<?xml version="1.0" encoding="UTF-8"?>
<!--Generator: Apple Native CoreSVG 175-->
<!DOCTYPE svg
PUBLIC "-//W3C//DTD SVG 1.1//EN"
       "http://www.w3.org/Graphics/SVG/1.1/DTD/svg11.dtd">
<svg version="1.1" xmlns="http://www.w3.org/2000/svg" xmlns:xlink="http://www.w3.org/1999/xlink" width="3300" height="2200">
 <!--glyph: "uni1002B4.medium", point size: 100.0, font version: "17.3d3e1", template writer version: "65.1"-->
 <g id="Notes">
  <rect height="2200" id="artboard" style="fill:white;opacity:1" width="3300" x="0" y="0"/>
  <line style="fill:none;stroke:black;opacity:1;stroke-width:0.5;" x1="263" x2="3036" y1="292" y2="292"/>
  <text style="stroke:none;fill:black;font-family:sans-serif;font-size:13;font-weight:bold;" transform="matrix(1 0 0 1 263 322)">Weight/Scale Variations</text>
  <text style="stroke:none;fill:black;font-family:sans-serif;font-size:13;text-anchor:middle;" transform="matrix(1 0 0 1 559.711 322)">Ultralight</text>
  <text style="stroke:none;fill:black;font-family:sans-serif;font-size:13;text-anchor:middle;" transform="matrix(1 0 0 1 856.422 322)">Thin</text>
  <text style="stroke:none;fill:black;font-family:sans-serif;font-size:13;text-anchor:middle;" transform="matrix(1 0 0 1 1153.13 322)">Light</text>
  <text style="stroke:none;fill:black;font-family:sans-serif;font-size:13;text-anchor:middle;" transform="matrix(1 0 0 1 1449.84 322)">Regular</text>
  <text style="stroke:none;fill:black;font-family:sans-serif;font-size:13;text-anchor:middle;" transform="matrix(1 0 0 1 1746.56 322)">Medium</text>
  <text style="stroke:none;fill:black;font-family:sans-serif;font-size:13;text-anchor:middle;" transform="matrix(1 0 0 1 2043.27 322)">Semibold</text>
  <text style="stroke:none;fill:black;font-family:sans-serif;font-size:13;text-anchor:middle;" transform="matrix(1 0 0 1 2339.98 322)">Bold</text>
  <text style="stroke:none;fill:black;font-family:sans-serif;font-size:13;text-anchor:middle;" transform="matrix(1 0 0 1 2636.69 322)">Heavy</text>
  <text style="stroke:none;fill:black;font-family:sans-serif;font-size:13;text-anchor:middle;" transform="matrix(1 0 0 1 2933.4 322)">Black</text>
  <line style="fill:none;stroke:black;opacity:1;stroke-width:0.5;" x1="263" x2="3036" y1="1903" y2="1903"/>
  <g transform="matrix(1 0 0 1 263 1933)">
   <path d="M9.24805 0.830078Q10.8691 0.830078 12.2949 0.214844Q13.7207-0.400391 14.8096-1.49414Q15.8984-2.58789 16.5186-4.01367Q17.1387-5.43945 17.1387-7.05078Q17.1387-8.66211 16.5186-10.0879Q15.8984-11.5137 14.8047-12.6074Q13.7109-13.7012 12.2852-14.3164Q10.8594-14.9316 9.23828-14.9316Q7.62695-14.9316 6.20117-14.3164Q4.77539-13.7012 3.69141-12.6074Q2.60742-11.5137 1.9873-10.0879Q1.36719-8.66211 1.36719-7.05078Q1.36719-5.43945 1.9873-4.01367Q2.60742-2.58789 3.69629-1.49414Q4.78516-0.400391 6.21094 0.214844Q7.63672 0.830078 9.24805 0.830078ZM9.24805-0.654297Q7.91992-0.654297 6.7627-1.14746Q5.60547-1.64062 4.73145-2.51953Q3.85742-3.39844 3.36426-4.56055Q2.87109-5.72266 2.87109-7.05078Q2.87109-8.37891 3.35938-9.54102Q3.84766-10.7031 4.72168-11.582Q5.5957-12.4609 6.75293-12.9541Q7.91016-13.4473 9.23828-13.4473Q10.5762-13.4473 11.7334-12.9541Q12.8906-12.4609 13.7695-11.582Q14.6484-10.7031 15.1465-9.54102Q15.6445-8.37891 15.6445-7.05078Q15.6445-5.72266 15.1514-4.56055Q14.6582-3.39844 13.7842-2.51953Q12.9102-1.64062 11.748-1.14746Q10.5859-0.654297 9.24805-0.654297ZM5.6543-7.05078Q5.6543-6.72852 5.85938-6.52832Q6.06445-6.32812 6.40625-6.32812L8.51562-6.32812L8.51562-4.20898Q8.51562-3.88672 8.71094-3.67676Q8.90625-3.4668 9.23828-3.4668Q9.56055-3.4668 9.77051-3.67676Q9.98047-3.88672 9.98047-4.20898L9.98047-6.32812L12.0898-6.32812Q12.4219-6.32812 12.627-6.52832Q12.832-6.72852 12.832-7.05078Q12.832-7.38281 12.627-7.58789Q12.4219-7.79297 12.0898-7.79297L9.98047-7.79297L9.98047-9.90234Q9.98047-10.2344 9.77051-10.4443Q9.56055-10.6543 9.23828-10.6543Q8.90625-10.6543 8.71094-10.4443Q8.51562-10.2344 8.51562-9.90234L8.51562-7.79297L6.40625-7.79297Q6.06445-7.79297 5.85938-7.58789Q5.6543-7.38281 5.6543-7.05078Z"/>
  </g>
  <g transform="matrix(1 0 0 1 281.867 1933)">
   <path d="M11.709 2.91016Q13.75 2.91016 15.5518 2.12891Q17.3535 1.34766 18.7305-0.0292969Q20.1074-1.40625 20.8887-3.20801Q21.6699-5.00977 21.6699-7.05078Q21.6699-9.0918 20.8887-10.8936Q20.1074-12.6953 18.7305-14.0723Q17.3535-15.4492 15.5469-16.2305Q13.7402-17.0117 11.6992-17.0117Q9.6582-17.0117 7.85645-16.2305Q6.05469-15.4492 4.68262-14.0723Q3.31055-12.6953 2.5293-10.8936Q1.74805-9.0918 1.74805-7.05078Q1.74805-5.00977 2.5293-3.20801Q3.31055-1.40625 4.6875-0.0292969Q6.06445 1.34766 7.86621 2.12891Q9.66797 2.91016 11.709 2.91016ZM11.709 1.25Q9.98047 1.25 8.47656 0.605469Q6.97266-0.0390625 5.83496-1.17676Q4.69727-2.31445 4.05762-3.81836Q3.41797-5.32227 3.41797-7.05078Q3.41797-8.7793 4.05762-10.2832Q4.69727-11.7871 5.83008-12.9297Q6.96289-14.0723 8.4668-14.7119Q9.9707-15.3516 11.6992-15.3516Q13.4277-15.3516 14.9316-14.7119Q16.4355-14.0723 17.5781-12.9297Q18.7207-11.7871 19.3652-10.2832Q20.0098-8.7793 20.0098-7.05078Q20.0098-5.32227 19.3701-3.81836Q18.7305-2.31445 17.5928-1.17676Q16.4551-0.0390625 14.9463 0.605469Q13.4375 1.25 11.709 1.25ZM7.17773-7.05078Q7.17773-6.69922 7.41211-6.47461Q7.64648-6.25 8.01758-6.25L10.8887-6.25L10.8887-3.36914Q10.8887-2.99805 11.1133-2.76855Q11.3379-2.53906 11.6895-2.53906Q12.0605-2.53906 12.29-2.76855Q12.5195-2.99805 12.5195-3.36914L12.5195-6.25L15.4004-6.25Q15.7715-6.25 16.001-6.47461Q16.2305-6.69922 16.2305-7.05078Q16.2305-7.42188 16.001-7.65137Q15.7715-7.88086 15.4004-7.88086L12.5195-7.88086L12.5195-10.752Q12.5195-11.1328 12.29-11.3623Q12.0605-11.5918 11.6895-11.5918Q11.3379-11.5918 11.1133-11.3574Q10.8887-11.123 10.8887-10.752L10.8887-7.88086L8.01758-7.88086Q7.63672-7.88086 7.40723-7.65137Q7.17773-7.42188 7.17773-7.05078Z"/>
  </g>
  <g transform="matrix(1 0 0 1 305.646 1933)">
   <path d="M14.9707 5.66406Q17.0605 5.66406 18.96 5.01465Q20.8594 4.36523 22.4512 3.19336Q24.043 2.02148 25.2197 0.429688Q26.3965-1.16211 27.0459-3.06641Q27.6953-4.9707 27.6953-7.05078Q27.6953-9.14062 27.0459-11.04Q26.3965-12.9395 25.2197-14.5312Q24.043-16.123 22.4512-17.2998Q20.8594-18.4766 18.9551-19.126Q17.0508-19.7754 14.9609-19.7754Q12.8711-19.7754 10.9717-19.126Q9.07227-18.4766 7.48535-17.2998Q5.89844-16.123 4.72168-14.5312Q3.54492-12.9395 2.90039-11.04Q2.25586-9.14062 2.25586-7.05078Q2.25586-4.9707 2.90527-3.06641Q3.55469-1.16211 4.72656 0.429688Q5.89844 2.02148 7.49023 3.19336Q9.08203 4.36523 10.9814 5.01465Q12.8809 5.66406 14.9707 5.66406ZM14.9707 3.84766Q13.1641 3.84766 11.5283 3.2959Q9.89258 2.74414 8.53516 1.74805Q7.17773 0.751953 6.17676-0.610352Q5.17578-1.97266 4.62891-3.6084Q4.08203-5.24414 4.08203-7.05078Q4.08203-8.86719 4.62891-10.5029Q5.17578-12.1387 6.17188-13.501Q7.16797-14.8633 8.52539-15.8594Q9.88281-16.8555 11.5186-17.4023Q13.1543-17.9492 14.9609-17.9492Q16.7773-17.9492 18.4131-17.4023Q20.0488-16.8555 21.4111-15.8594Q22.7734-14.8633 23.7695-13.501Q24.7656-12.1387 25.3174-10.5029Q25.8691-8.86719 25.8691-7.05078Q25.8789-5.24414 25.332-3.6084Q24.7852-1.97266 23.7842-0.610352Q22.7832 0.751953 21.4209 1.74805Q20.0586 2.74414 18.4229 3.2959Q16.7871 3.84766 14.9707 3.84766ZM9.19922-7.05078Q9.19922-6.66992 9.45801-6.4209Q9.7168-6.17188 10.1172-6.17188L14.0625-6.17188L14.0625-2.2168Q14.0625-1.81641 14.3115-1.55762Q14.5605-1.29883 14.9512-1.29883Q15.3516-1.29883 15.6104-1.55273Q15.8691-1.80664 15.8691-2.2168L15.8691-6.17188L19.8242-6.17188Q20.2246-6.17188 20.4785-6.4209Q20.7324-6.66992 20.7324-7.05078Q20.7324-7.46094 20.4785-7.71484Q20.2246-7.96875 19.8242-7.96875L15.8691-7.96875L15.8691-11.9141Q15.8691-12.3242 15.6104-12.583Q15.3516-12.8418 14.9512-12.8418Q14.5605-12.8418 14.3115-12.583Q14.0625-12.3242 14.0625-11.9141L14.0625-7.96875L10.1172-7.96875Q9.70703-7.96875 9.45312-7.71484Q9.19922-7.46094 9.19922-7.05078Z"/>
  </g>
  <text style="stroke:none;fill:black;font-family:sans-serif;font-size:13;font-weight:bold;" transform="matrix(1 0 0 1 263 1953)">Design Variations</text>
  <text style="stroke:none;fill:black;font-family:sans-serif;font-size:13;" transform="matrix(1 0 0 1 263 1971)">Symbols are supported in up to nine weights and three scales.</text>
  <text style="stroke:none;fill:black;font-family:sans-serif;font-size:13;" transform="matrix(1 0 0 1 263 1989)">For optimal layout with text and other symbols, vertically align</text>
  <text style="stroke:none;fill:black;font-family:sans-serif;font-size:13;" transform="matrix(1 0 0 1 263 2007)">symbols with the adjacent text.</text>
  <line style="fill:none;stroke:#00AEEF;stroke-width:0.5;opacity:1.0;" x1="776" x2="776" y1="1919" y2="1933"/>
  <g transform="matrix(1 0 0 1 776 1933)">
   <path d="M3.31055 0.15625Q3.70117 0.15625 3.91602-0.00976562Q4.13086-0.175781 4.26758-0.585938L5.52734-4.0332L11.2891-4.0332L12.5488-0.585938Q12.6855-0.175781 12.9004-0.00976562Q13.1152 0.15625 13.4961 0.15625Q13.8867 0.15625 14.1162-0.0585938Q14.3457-0.273438 14.3457-0.644531Q14.3457-0.869141 14.2383-1.17188L9.6582-13.3691Q9.48242-13.8184 9.17969-14.043Q8.87695-14.2676 8.4082-14.2676Q7.5-14.2676 7.17773-13.3789L2.59766-1.16211Q2.49023-0.859375 2.49023-0.634766Q2.49023-0.263672 2.70996-0.0537109Q2.92969 0.15625 3.31055 0.15625ZM6.00586-5.51758L8.37891-12.0898L8.42773-12.0898L10.8008-5.51758Z"/>
  </g>
  <line style="fill:none;stroke:#00AEEF;stroke-width:0.5;opacity:1.0;" x1="793.197" x2="793.197" y1="1919" y2="1933"/>
  <text style="stroke:none;fill:black;font-family:sans-serif;font-size:13;font-weight:bold;" transform="matrix(1 0 0 1 776 1953)">Margins</text>
  <text style="stroke:none;fill:black;font-family:sans-serif;font-size:13;" transform="matrix(1 0 0 1 776 1971)">Leading and trailing margins on the left and right side of each symbol</text>
  <text style="stroke:none;fill:black;font-family:sans-serif;font-size:13;" transform="matrix(1 0 0 1 776 1989)">can be adjusted by modifying the x-location of the margin guidelines.</text>
  <text style="stroke:none;fill:black;font-family:sans-serif;font-size:13;" transform="matrix(1 0 0 1 776 2007)">Modifications are automatically applied proportionally to all</text>
  <text style="stroke:none;fill:black;font-family:sans-serif;font-size:13;" transform="matrix(1 0 0 1 776 2025)">scales and weights.</text>
  <g transform="matrix(1 0 0 1 1289 1933)">
   <path d="M2.8418 1.86523L4.54102 3.57422Q5.18555 4.22852 5.90332 4.17969Q6.62109 4.13086 7.31445 3.35938L18.0078-8.42773L17.041-9.4043L6.42578 2.27539Q6.16211 2.57812 5.89355 2.61719Q5.625 2.65625 5.27344 2.30469L4.10156 1.14258Q3.75 0.791016 3.79395 0.522461Q3.83789 0.253906 4.14062-0.0195312L15.6152-10.8203L14.6387-11.7871L3.04688-0.898438Q2.30469-0.214844 2.25098 0.498047Q2.19727 1.21094 2.8418 1.86523ZM9.25781-16.3281Q8.94531-16.0254 8.90625-15.6348Q8.86719-15.2441 9.04297-14.9512Q9.21875-14.6777 9.55566-14.541Q9.89258-14.4043 10.3809-14.5215Q11.4746-14.7754 12.5977-14.7314Q13.7207-14.6875 14.7949-13.9844L14.209-12.5293Q13.9551-11.9043 14.0674-11.4404Q14.1797-10.9766 14.5801-10.5664L16.875-8.25195Q17.2363-7.88086 17.5781-7.82227Q17.9199-7.76367 18.3398-7.8418L19.4043-8.03711L20.0684-7.36328L20.0293-6.80664Q20-6.43555 20.1221-6.12305Q20.2441-5.81055 20.6055-5.44922L21.3672-4.70703Q21.7285-4.3457 22.1533-4.33105Q22.5781-4.31641 22.9297-4.66797L25.8398-7.58789Q26.1914-7.93945 26.1816-8.35449Q26.1719-8.76953 25.8105-9.13086L25.0391-9.89258Q24.6875-10.2539 24.3799-10.3857Q24.0723-10.5176 23.7109-10.4883L23.1348-10.4395L22.4902-11.0742L22.7344-12.1973Q22.832-12.6172 22.6953-12.9834Q22.5586-13.3496 22.1191-13.7891L19.9219-15.9766Q18.6719-17.2168 17.2607-17.8369Q15.8496-18.457 14.4189-18.4814Q12.9883-18.5059 11.665-17.959Q10.3418-17.4121 9.25781-16.3281ZM10.752-15.957Q11.6602-16.6211 12.7002-16.9043Q13.7402-17.1875 14.8047-17.085Q15.8691-16.9824 16.8701-16.5137Q17.8711-16.0449 18.7012-15.2051L21.1328-12.793Q21.3086-12.6172 21.3525-12.4512Q21.3965-12.2852 21.3379-12.0312L21.0156-10.5469L22.5195-9.0625L23.5059-9.12109Q23.6914-9.13086 23.7891-9.09668Q23.8867-9.0625 24.0332-8.91602L24.6094-8.33984L22.168-5.89844L21.5918-6.47461Q21.4453-6.62109 21.4062-6.71875Q21.3672-6.81641 21.377-7.01172L21.4453-7.98828L19.9512-9.47266L18.4277-9.21875Q18.1836-9.16992 18.042-9.2041Q17.9004-9.23828 17.7148-9.41406L15.7129-11.416Q15.5176-11.5918 15.4932-11.7529Q15.4688-11.9141 15.5859-12.1875L16.4648-14.2773Q15.293-15.3711 13.8281-15.791Q12.3633-16.2109 10.8398-15.7617Q10.7227-15.7324 10.6885-15.8057Q10.6543-15.8789 10.752-15.957Z"/>
  </g>
  <text style="stroke:none;fill:black;font-family:sans-serif;font-size:13;font-weight:bold;" transform="matrix(1 0 0 1 1289 1953)">Exporting</text>
  <text style="stroke:none;fill:black;font-family:sans-serif;font-size:13;" transform="matrix(1 0 0 1 1289 1971)">Symbols should be outlined when exporting to ensure the</text>
  <text style="stroke:none;fill:black;font-family:sans-serif;font-size:13;" transform="matrix(1 0 0 1 1289 1989)">design is preserved when submitting to Xcode.</text>
  <text id="template-version" style="stroke:none;fill:black;font-family:sans-serif;font-size:13;text-anchor:end;" transform="matrix(1 0 0 1 3036 1933)">Template v.3.0</text>
  <text style="stroke:none;fill:black;font-family:sans-serif;font-size:13;text-anchor:end;" transform="matrix(1 0 0 1 3036 1951)">Requires Xcode 13 or greater</text>
  <text id="descriptive-name" style="stroke:none;fill:black;font-family:sans-serif;font-size:13;text-anchor:end;" transform="matrix(1 0 0 1 3036 1969)">Generated from heart</text>
  <text style="stroke:none;fill:black;font-family:sans-serif;font-size:13;text-anchor:end;" transform="matrix(1 0 0 1 3036 1987)">Typeset at 100 points</text>
  <text style="stroke:none;fill:black;font-family:sans-serif;font-size:13;" transform="matrix(1 0 0 1 263 726)">Small</text>
  <text style="stroke:none;fill:black;font-family:sans-serif;font-size:13;" transform="matrix(1 0 0 1 263 1156)">Medium</text>
  <text style="stroke:none;fill:black;font-family:sans-serif;font-size:13;" transform="matrix(1 0 0 1 263 1586)">Large</text>
 </g>
 <g id="Guides">
  <g id="H-reference" style="fill:#27AAE1;stroke:none;" transform="matrix(1 0 0 1 339 696)">
   <path d="M0.993347 0L3.6377 0L29.3282-67.1326L30.0301-67.1326L30.0301-70.459L28.1227-70.459ZM11.6882-24.4797L46.9818-24.4797L46.2311-26.7288L12.4382-26.7288ZM55.1193 0L57.7637 0L30.6381-70.459L29.4327-70.459L29.4327-67.1326Z"/>
  </g>
  <line id="Baseline-S" style="fill:none;stroke:#27AAE1;opacity:1;stroke-width:0.5;" x1="263" x2="3036" y1="696" y2="696"/>
  <line id="Capline-S" style="fill:none;stroke:#27AAE1;opacity:1;stroke-width:0.5;" x1="263" x2="3036" y1="625.541" y2="625.541"/>
  <g id="H-reference" style="fill:#27AAE1;stroke:none;" transform="matrix(1 0 0 1 339 1126)">
   <path d="M0.993347 0L3.6377 0L29.3282-67.1326L30.0301-67.1326L30.0301-70.459L28.1227-70.459ZM11.6882-24.4797L46.9818-24.4797L46.2311-26.7288L12.4382-26.7288ZM55.1193 0L57.7637 0L30.6381-70.459L29.4327-70.459L29.4327-67.1326Z"/>
  </g>
  <line id="Baseline-M" style="fill:none;stroke:#27AAE1;opacity:1;stroke-width:0.5;" x1="263" x2="3036" y1="1126" y2="1126"/>
  <line id="Capline-M" style="fill:none;stroke:#27AAE1;opacity:1;stroke-width:0.5;" x1="263" x2="3036" y1="1055.54" y2="1055.54"/>
  <g id="H-reference" style="fill:#27AAE1;stroke:none;" transform="matrix(1 0 0 1 339 1556)">
   <path d="M0.993347 0L3.6377 0L29.3282-67.1326L30.0301-67.1326L30.0301-70.459L28.1227-70.459ZM11.6882-24.4797L46.9818-24.4797L46.2311-26.7288L12.4382-26.7288ZM55.1193 0L57.7637 0L30.6381-70.459L29.4327-70.459L29.4327-67.1326Z"/>
  </g>
  <line id="Baseline-L" style="fill:none;stroke:#27AAE1;opacity:1;stroke-width:0.5;" x1="263" x2="3036" y1="1556" y2="1556"/>
  <line id="Capline-L" style="fill:none;stroke:#27AAE1;opacity:1;stroke-width:0.5;" x1="263" x2="3036" y1="1485.54" y2="1485.54"/>
  <line id="left-margin-Regular-M" style="fill:none;stroke:#00AEEF;stroke-width:0.5;opacity:1.0;" x1="1389.34" x2="1389.34" y1="1030.79" y2="1150.12"/>
  <line id="right-margin-Regular-M" style="fill:none;stroke:#00AEEF;stroke-width:0.5;opacity:1.0;" x1="1510.35" x2="1510.35" y1="1030.79" y2="1150.12"/>
 </g>
 <g id="Symbols">
  <g id="Black-L" transform="matrix(1 0 0 1 2851.77 1556)">
   <path d="M14.2531-52.5973Q14.2531-39.0219 21.3816-25.5813Q28.5102-12.1407 41.3698 0.520026Q54.2294 13.1808 71.3643 24.5348Q74.2328 26.4208 76.9721 27.9238Q79.7114 29.4269 81.627 29.4269Q83.5998 29.4269 86.3501 27.9238Q89.1005 26.4208 91.8898 24.5348Q109.025 13.1808 121.884 0.520026Q134.744-12.1407 141.872-25.5813Q149.001-39.0219 149.001-52.5973Q149.001-65.7279 143.533-75.4717Q138.066-85.2154 129.018-90.6213Q119.97-96.0272 109.32-96.0272Q99.529-96.0272 92.6376-92.3743Q85.7461-88.7214 81.627-83.0344Q77.5871-88.7006 70.656-92.3639Q63.725-96.0272 53.9342-96.0272Q43.2836-96.0272 34.236-90.6213Q25.1884-85.2154 19.7207-75.4717Q14.2531-65.7279 14.2531-52.5973ZM35.7527-52.8309Q35.7527-59.5307 38.5988-64.6057Q41.4449-69.6806 46.3494-72.5714Q51.2538-75.4621 57.3594-75.4621Q62.2556-75.4621 65.7055-73.9255Q69.1555-72.3888 71.6325-70.0254Q74.1096-67.6619 75.9312-65.1505Q77.3048-63.1944 78.6631-62.2319Q80.0214-61.2695 81.627-61.2695Q83.291-61.2695 84.5507-62.2319Q85.8104-63.1944 87.2644-65.1505Q89.2433-67.6995 91.6911-70.0629Q94.139-72.4264 97.5791-73.9443Q101.019-75.4621 105.915-75.4621Q112.079-75.4621 116.944-72.5714Q121.809-69.6806 124.655-64.6057Q127.501-59.5307 127.501-52.8309Q127.501-45.9305 124.272-38.3941Q121.042-30.8576 115.076-23.1848Q109.11-15.512 100.847-8.10335Q92.5833-0.694702 82.4797 6.02925Q81.9267 6.41743 81.627 6.41743Q81.3857 6.41743 80.7951 6.02925Q70.6696-0.694702 62.4069-8.10335Q54.1442-15.512 48.1775-23.1848Q42.2109-30.8576 38.9818-38.3941Q35.7527-45.9305 35.7527-52.8309Z"/>
  </g>
  <g id="Heavy-L" transform="matrix(1 0 0 1 2556.02 1556)">
   <path d="M14.5109-52.7213Q14.5109-39.2033 21.6343-25.8525Q28.7576-12.5016 41.65 0.092148Q54.5424 12.6859 71.8051 24.0272Q74.2247 25.6154 76.6051 26.8849Q78.9854 28.1545 80.6721 28.1545Q82.3979 28.1545 84.7961 26.8849Q87.1943 25.6154 89.5392 24.0272Q106.802 12.6859 119.694 0.092148Q132.587-12.5016 139.71-25.8525Q146.833-39.2033 146.833-52.7213Q146.833-65.3541 141.564-74.8082Q136.296-84.2624 127.49-89.5315Q118.684-94.8006 108.159-94.8006Q98.6194-94.8006 91.7177-91.0898Q84.816-87.379 80.6721-81.4928Q76.6031-87.3489 69.664-91.0748Q62.7248-94.8006 53.1851-94.8006Q42.6607-94.8006 33.8547-89.5315Q25.0487-84.2624 19.7798-74.8082Q14.5109-65.3541 14.5109-52.7213ZM33.1715-52.8998Q33.1715-60.0154 36.1404-65.3915Q39.1092-70.7675 44.2387-73.8108Q49.3682-76.8541 55.7876-76.8541Q60.9186-76.8541 64.5814-75.1843Q68.2442-73.5144 70.8647-70.9547Q73.4851-68.3949 75.3653-65.6943Q76.6952-63.7768 77.9468-62.8847Q79.1984-61.9926 80.6721-61.9926Q82.1905-61.9926 83.3573-62.8847Q84.524-63.7768 85.9344-65.6943Q87.9585-68.4093 90.5567-70.9691Q93.1548-73.5289 96.8053-75.1915Q100.456-76.8541 105.587-76.8541Q112.051-76.8541 117.143-73.8108Q122.235-70.7675 125.204-65.3915Q128.173-60.0154 128.173-52.8998Q128.173-45.5451 124.706-37.6687Q121.24-29.7924 114.97-21.8902Q108.699-13.988 100.199-6.46823Q91.6991 1.05155 81.623 7.7679Q80.958 8.22607 80.6721 8.22607Q80.4308 8.22607 79.7515 7.7679Q69.6396 1.05155 61.1425-6.46823Q52.6454-13.988 46.372-21.8902Q40.0985-29.7924 36.635-37.6687Q33.1715-45.5451 33.1715-52.8998Z"/>
  </g>
  <g id="Bold-L" transform="matrix(1 0 0 1 2260.59 1556)">
   <path d="M14.7218-52.8601Q14.7218-39.4412 21.8487-26.224Q28.9756-13.0069 41.8953-0.516325Q54.8149 11.9743 72.1643 23.2853Q74.0605 24.5272 76.0138 25.5234Q77.9671 26.5196 79.3844 26.5196Q80.8178 26.5196 82.7967 25.5234Q84.7756 24.5272 86.6047 23.2853Q103.954 11.9743 116.874-0.516325Q129.793-13.0069 136.92-26.224Q144.047-39.4412 144.047-52.8601Q144.047-64.893 139.017-73.9898Q133.986-83.0867 125.48-88.1867Q116.974-93.2867 106.625-93.2867Q97.393-93.2867 90.4611-89.4843Q83.5292-85.6819 79.3844-79.5275Q75.3069-85.644 68.3414-89.4654Q61.3758-93.2867 52.1437-93.2867Q41.7953-93.2867 33.289-88.1867Q24.7827-83.0867 19.7523-73.9898Q14.7218-64.893 14.7218-52.8601ZM29.9228-52.9769Q29.9228-60.5925 33.0491-66.3375Q36.1753-72.0824 41.5926-75.3178Q47.01-78.5531 53.8286-78.5531Q59.2142-78.5531 63.1272-76.7329Q67.0401-74.9128 69.8411-72.1147Q72.642-69.3166 74.6064-66.348Q75.8527-64.514 76.9662-63.7139Q78.0797-62.9139 79.3844-62.9139Q80.7185-62.9139 81.7626-63.7139Q82.8067-64.514 84.1334-66.348Q86.2188-69.3077 89.0052-72.1059Q91.7915-74.9041 95.6921-76.7286Q99.5927-78.5531 104.978-78.5531Q111.826-78.5531 117.21-75.3178Q122.594-72.0824 125.72-66.3375Q128.846-60.5925 128.846-52.9769Q128.846-45.1059 125.114-36.848Q121.382-28.5901 114.757-20.4259Q108.132-12.2618 99.3327-4.5963Q90.5333 3.06921 80.421 9.82255Q79.6549 10.343 79.3844 10.343Q79.1431 10.343 78.3861 9.82255Q68.2226 3.06921 59.4298-4.5963Q50.637-12.2618 44.0055-20.4259Q37.374-28.5901 33.6484-36.848Q29.9228-45.1059 29.9228-52.9769Z"/>
  </g>
  <g id="Semibold-L" transform="matrix(1 0 0 1 1964.77 1556)">
   <path d="M14.8672-52.9558Q14.8672-39.6051 21.9965-26.4802Q29.1258-13.3553 42.0643-0.935802Q55.0028 11.4837 72.412 22.7739Q73.9473 23.7769 75.6062 24.5848Q77.2651 25.3926 78.4967 25.3926Q79.7285 25.3926 81.4183 24.5848Q83.1082 23.7769 84.5817 22.7739Q101.991 11.4837 114.929-0.935802Q127.868-13.3553 134.997-26.4802Q142.127-39.6051 142.127-52.9558Q142.127-64.5751 137.26-73.4256Q132.394-82.2761 124.095-87.2595Q115.795-92.2429 105.568-92.2429Q96.5475-92.2429 89.5948-88.3774Q82.6422-84.512 78.4967-78.1725Q74.4133-84.4687 67.4296-88.3558Q60.4459-92.2429 51.4257-92.2429Q41.1987-92.2429 32.899-87.2595Q24.5993-82.2761 19.7332-73.4256Q14.8672-64.5751 14.8672-52.9558ZM27.6832-53.0301Q27.6832-60.9903 30.9179-66.9896Q34.1526-72.9889 39.7684-76.3566Q45.3842-79.7244 52.478-79.7244Q58.0392-79.7244 62.1246-77.8006Q66.2101-75.8768 69.1355-72.9144Q72.0608-69.952 74.0833-66.7987Q75.2719-65.0222 76.2902-64.2856Q77.3085-63.549 78.4967-63.549Q79.7038-63.549 80.6633-64.2856Q81.6228-65.0222 82.8918-66.7987Q85.0195-69.927 87.9356-72.8896Q90.8517-75.8521 94.9247-77.7883Q98.9977-79.7244 104.559-79.7244Q111.672-79.7244 117.256-76.3566Q122.841-72.9889 126.076-66.9896Q129.31-60.9903 129.31-53.0301Q129.31-44.8031 125.395-36.2821Q121.479-27.7612 114.61-19.4165Q107.741-11.0718 98.7355-3.3058Q89.7297 4.46016 79.5924 11.239Q78.7565 11.8023 78.4967 11.8023Q78.2554 11.8023 77.4448 11.239Q67.2456 4.46016 58.249-3.3058Q49.2524-11.0718 42.3741-19.4165Q35.4958-27.7612 31.5895-36.2821Q27.6832-44.8031 27.6832-53.0301Z"/>
  </g>
  <g id="Medium-L" transform="matrix(1 0 0 1 1668.73 1556)">
   <path d="M14.9774-53.0283Q14.9774-39.7295 22.1086-26.6745Q29.2398-13.6195 42.1925-1.25387Q55.1453 11.1117 72.5998 22.3861Q73.8614 23.2081 75.2971 23.873Q76.7329 24.538 77.8236 24.538Q78.9025 24.538 80.3732 23.873Q81.8439 23.2081 83.0477 22.3861Q100.502 11.1117 113.455-1.25387Q126.408-13.6195 133.539-26.6745Q140.67-39.7295 140.67-53.0283Q140.67-64.3341 135.929-72.9978Q131.187-81.6615 123.044-86.5565Q114.901-91.4516 104.766-91.4516Q95.9064-91.4516 88.938-87.5382Q81.9695-83.6248 77.8236-77.1452Q73.7357-83.5776 66.7382-87.5146Q59.7407-91.4516 50.8813-91.4516Q40.7463-91.4516 32.6033-86.5565Q24.4603-81.6615 19.7188-72.9978Q14.9774-64.3341 14.9774-53.0283ZM25.985-53.0704Q25.985-61.292 29.302-67.4841Q32.619-73.6763 38.3853-77.1444Q44.1515-80.6125 51.454-80.6125Q57.1482-80.6125 61.3645-78.6101Q65.5807-76.6077 68.6004-73.5208Q71.6202-70.4338 73.6866-67.1405Q74.8315-65.4076 75.7776-64.7191Q76.7237-64.0306 77.8236-64.0306Q78.9343-64.0306 79.8297-64.7191Q80.7251-65.4076 81.9504-67.1405Q84.1101-70.3966 87.1246-73.4838Q90.1391-76.571 94.3428-78.5917Q98.5465-80.6125 104.241-80.6125Q111.554-80.6125 117.291-77.1444Q123.029-73.6763 126.345-67.4841Q129.662-61.292 129.662-53.0704Q129.662-44.5735 125.608-35.8531Q121.553-27.1327 114.499-18.6511Q107.445-10.1694 98.2826-2.32729Q89.1203 5.51485 78.9641 12.313Q78.0753 12.9089 77.8236 12.9089Q77.5823 12.9089 76.7311 12.313Q66.5049 5.51485 57.3537-2.32729Q48.2026-10.1694 41.1371-18.6511Q34.0717-27.1327 30.0284-35.8531Q25.985-44.5735 25.985-53.0704Z"/>
  </g>
  <g id="Regular-L" transform="matrix(1 0 0 1 1372.9 1556)">
   <path d="M15.1211-53.1229Q15.1211-39.8916 22.2548-26.9278Q29.3884-13.964 42.3597-1.66874Q55.3311 10.6266 72.8447 21.8803Q73.7494 22.4661 74.894 22.9447Q76.0386 23.4233 76.9456 23.4233Q77.8252 23.4233 79.01 22.9447Q80.1947 22.4661 81.0469 21.8803Q98.5606 10.6266 111.532-1.66874Q124.503-13.964 131.637-26.9278Q138.771-39.8916 138.771-53.1229Q138.771-64.0198 134.192-72.4398Q129.613-80.8599 121.674-85.6396Q113.735-90.4193 103.72-90.4193Q95.0702-90.4193 88.0812-86.4435Q81.0922-82.4677 76.9456-75.8051Q72.852-82.4152 65.8365-86.4172Q58.8209-90.4193 50.1713-90.4193Q40.1563-90.4193 32.2176-85.6396Q24.2789-80.8599 19.7-72.4398Q15.1211-64.0198 15.1211-53.1229ZM23.77-53.1229Q23.77-61.6854 27.1943-68.1291Q30.6186-74.5728 36.5811-78.1718Q42.5437-81.7709 50.1183-81.7709Q55.9862-81.7709 60.3729-79.666Q64.7597-77.5612 67.9025-74.3117Q71.0453-71.0622 73.1692-67.5862Q74.2571-65.9103 75.109-65.2845Q75.9609-64.6588 76.9456-64.6588Q77.9307-64.6588 78.7424-65.2845Q79.5541-65.9103 80.7225-67.5862Q82.924-71.0092 86.0668-74.2589Q89.2096-77.5086 93.5838-79.6397Q97.958-81.7709 103.826-81.7709Q111.401-81.7709 117.337-78.1718Q123.273-74.5728 126.697-68.1291Q130.122-61.6854 130.122-53.1229Q130.122-44.274 125.886-35.2934Q121.65-26.3129 114.354-17.6527Q107.058-8.99247 97.692-1.05097Q88.3255 6.89052 78.1446 13.7139Q77.1869 14.3522 76.9456 14.3522Q76.7043 14.3522 75.8001 13.7139Q65.5387 6.89052 56.186-1.05097Q46.8332-8.99247 39.5237-17.6527Q32.2141-26.3129 27.9921-35.2934Q23.77-44.274 23.77-53.1229Z"/>
  </g>
  <g id="Light-L" transform="matrix(1 0 0 1 1077.75 1556)">
   <path d="M14.5677-53.1229Q14.5677-40.1398 21.7682-27.4146Q28.9686-14.6894 41.8731-2.59447Q54.7776 9.50042 71.8905 20.6397Q72.6425 21.1302 73.6058 21.5229Q74.569 21.9156 75.3805 21.9156Q76.1456 21.9156 77.149 21.5229Q78.1525 21.1302 78.8713 20.6397Q95.9841 9.50042 108.889-2.59447Q121.793-14.6894 128.994-27.4146Q136.194-40.1398 136.194-53.1229Q136.194-63.7145 131.73-71.896Q127.265-80.0775 119.537-84.7426Q111.808-89.4076 102.041-89.4076Q93.5814-89.4076 86.4589-85.2411Q79.3363-81.0745 75.3805-74.0874Q71.4587-81.0412 64.3191-85.2244Q57.1795-89.4076 48.7209-89.4076Q38.9538-89.4076 31.2252-84.7426Q23.4965-80.0775 19.0321-71.896Q14.5677-63.7145 14.5677-53.1229ZM21.1936-53.1229Q21.1936-61.9336 24.761-68.6062Q28.3284-75.2789 34.5486-79.0307Q40.7688-82.7825 48.6869-82.7825Q54.4974-82.7825 58.9701-80.6681Q63.4428-78.5536 66.7288-75.1705Q70.0147-71.7875 72.2723-67.9107Q73.112-66.5211 73.8304-65.9908Q74.5488-65.4604 75.3805-65.4604Q76.213-65.4604 76.8911-65.9908Q77.5693-66.5211 78.4894-67.9107Q80.7672-71.7534 84.0532-75.1369Q87.3392-78.5203 91.8184-80.6514Q96.2977-82.7825 102.108-82.7825Q110.027-82.7825 116.23-79.0307Q122.433-75.2789 126.001-68.6062Q129.568-61.9336 129.568-53.1229Q129.568-44.2166 125.323-35.2266Q121.077-26.2366 113.686-17.5382Q106.295-8.83983 96.6805-0.745709Q87.066 7.34842 76.4079 14.4963Q75.6217 15.0202 75.3805 15.0202Q75.1392 15.0202 74.3879 14.4963Q63.6494 7.34842 54.0581-0.745709Q44.4668-8.83983 37.0522-17.5382Q29.6376-26.2366 25.4156-35.2266Q21.1936-44.2166 21.1936-53.1229Z"/>
  </g>
  <g id="Thin-L" transform="matrix(1 0 0 1 783.111 1556)">
   <path d="M13.8357-53.1229Q13.8357-40.468 21.1246-28.0584Q28.4135-15.6487 41.2296-3.81882Q54.0457 8.01101 70.6284 18.9989Q71.1786 19.3635 71.902 19.6425Q72.6254 19.9215 73.3105 19.9215Q73.9242 19.9215 74.6878 19.6425Q75.4514 19.3635 75.9938 18.9989Q92.5765 8.01101 105.393-3.81882Q118.209-15.6487 125.498-28.0584Q132.786-40.468 132.786-53.1229Q132.786-63.3108 128.473-71.1767Q124.16-79.0427 116.71-83.5562Q109.259-88.0696 99.8194-88.0696Q91.6124-88.0696 84.3132-83.6507Q77.014-79.2318 73.3105-71.8155Q69.616-79.2239 62.3123-83.6468Q55.0086-88.0696 46.8028-88.0696Q37.3635-88.0696 29.9126-83.5562Q22.4617-79.0427 18.1487-71.1767Q13.8357-63.3108 13.8357-53.1229ZM17.786-53.1229Q17.786-62.2618 21.5428-69.2373Q25.2996-76.2127 31.8605-80.1666Q38.4215-84.1206 46.7937-84.1206Q52.5283-84.1206 57.1147-81.9934Q61.7011-79.8662 65.1764-76.3065Q68.6517-72.7468 71.0861-68.3399Q71.5976-67.329 72.1393-66.9248Q72.6811-66.5206 73.3105-66.5206Q73.9411-66.5206 74.4426-66.9248Q74.9441-67.329 75.536-68.3399Q77.9148-72.7377 81.3901-76.298Q84.8655-79.8583 89.4836-81.9894Q94.1017-84.1206 99.8363-84.1206Q108.21-84.1206 114.766-80.1666Q121.323-76.2127 125.079-69.2373Q128.836-62.2618 128.836-53.1229Q128.836-44.1407 124.578-35.1382Q120.32-26.1357 112.802-17.3868Q105.285-8.63797 95.3427-0.341973Q85.4002 7.95402 74.111 15.5311Q73.5517 15.9036 73.3105 15.9036Q73.0692 15.9036 72.5202 15.5311Q61.1506 7.95402 51.2438-0.341973Q41.337-8.63797 33.7835-17.3868Q26.2301-26.1357 22.008-35.1382Q17.786-44.1407 17.786-53.1229Z"/>
  </g>
  <g id="Ultralight-L" transform="matrix(1 0 0 1 487.46 1556)">
   <path d="M13.4608-53.1229Q13.4608-40.6362 20.795-28.3881Q28.1292-16.14 40.9-4.44593Q53.6707 7.24814 69.9819 18.1585Q70.4287 18.4585 71.0293 18.6793Q71.6299 18.9002 72.2502 18.9002Q72.7864 18.9002 73.4272 18.6793Q74.068 18.4585 74.52 18.1585Q90.8311 7.24814 103.602-4.44593Q116.373-16.14 123.707-28.3881Q131.041-40.6362 131.041-53.1229Q131.041-63.104 126.806-70.8083Q122.57-78.5127 115.262-82.9485Q107.953-87.3843 98.6816-87.3843Q90.6038-87.3843 83.2142-82.8361Q75.8245-78.288 72.2502-70.6519Q68.6722-78.2932 61.2844-82.8387Q53.8966-87.3843 45.8203-87.3843Q36.5489-87.3843 29.2403-82.9485Q21.9317-78.5127 17.6962-70.8083Q13.4608-63.104 13.4608-53.1229ZM16.0406-53.1229Q16.0406-62.43 19.8944-69.5605Q23.7482-76.691 30.4837-80.7485Q37.2192-84.8059 45.824-84.8059Q51.5197-84.8059 56.1643-82.6722Q60.8089-80.5385 64.3813-76.8883Q67.9536-73.2382 70.4786-68.5597Q70.8219-67.7428 71.2732-67.4032Q71.7244-67.0637 72.2502-67.0637Q72.7775-67.0637 73.1885-67.4032Q73.5996-67.7428 74.0233-68.5597Q76.4538-73.2419 80.0261-76.8928Q83.5984-80.5436 88.2877-82.6748Q92.977-84.8059 98.6727-84.8059Q107.279-84.8059 114.016-80.7485Q120.754-76.691 124.607-69.5605Q128.461-62.43 128.461-53.1229Q128.461-44.1018 124.196-35.0929Q119.932-26.084 112.35-17.3093Q104.768-8.53457 94.6575-0.135181Q84.5469 8.26421 72.9345 16.0611Q72.4915 16.356 72.2502 16.356Q72.009 16.356 71.5636 16.0611Q59.8708 8.26421 49.8023-0.135181Q39.7339-8.53457 32.1093-17.3093Q24.4847-26.084 20.2627-35.0929Q16.0406-44.1018 16.0406-53.1229Z"/>
  </g>
  <g id="Black-M" transform="matrix(1 0 0 1 2869.55 1126)">
   <path d="M10.7458-48.5784Q10.7458-38.0452 16.2822-27.5875Q21.8185-17.1298 31.7441-7.29053Q41.6698 2.54877 54.7808 11.3406Q57.3682 13.0447 59.7744 14.3983Q62.1806 15.7518 63.8485 15.7518Q65.5737 15.7518 67.9825 14.3983Q70.3914 13.0447 72.9162 11.3406Q86.0271 2.54877 95.9528-7.29053Q105.878-17.1298 111.415-27.5875Q116.951-38.0452 116.951-48.5784Q116.951-59.1379 112.56-66.9033Q108.168-74.6687 100.98-78.9589Q93.791-83.2491 85.4645-83.2491Q77.6894-83.2491 72.341-80.443Q66.9926-77.6369 63.8485-73.3581Q60.767-77.6314 55.3873-80.4402Q50.0075-83.2491 42.2324-83.2491Q33.906-83.2491 26.7173-78.9589Q19.5286-74.6687 15.1372-66.9033Q10.7458-59.1379 10.7458-48.5784ZM29.5683-48.8068Q29.5683-53.6737 31.6872-57.3777Q33.8062-61.0817 37.4474-63.211Q41.0886-65.3402 45.5956-65.3402Q49.1793-65.3402 51.6808-64.2628Q54.1824-63.1854 55.9976-61.505Q57.8128-59.8246 59.1919-57.9872Q60.26-56.4772 61.386-55.6841Q62.512-54.8909 63.8485-54.8909Q65.2421-54.8909 66.2798-55.6841Q67.3175-56.4772 68.4479-57.9872Q69.9525-59.8762 71.7392-61.5566Q73.5259-63.237 76.0245-64.2886Q78.5231-65.3402 82.1068-65.3402Q86.671-65.3402 90.2809-63.211Q93.8908-61.0817 96.0097-57.3777Q98.1287-53.6737 98.1287-48.8068Q98.1287-43.8435 95.8284-38.2956Q93.5282-32.7476 89.155-26.9951Q84.7818-21.2426 78.5496-15.5776Q72.3174-9.91268 64.4015-4.65285Q64.0925-4.42778 63.8485-4.42778Q63.6616-4.42778 63.3009-4.65285Q55.3798-9.91268 49.1475-15.5776Q42.9152-21.2426 38.5421-26.9951Q34.169-32.7476 31.8686-38.2956Q29.5683-43.8435 29.5683-48.8068Z"/>
  </g>
  <g id="Heavy-M" transform="matrix(1 0 0 1 2573.63 1126)">
   <path d="M11.049-48.6997Q11.049-38.1998 16.574-27.8077Q22.0991-17.4157 32.063-7.62341Q42.0268 2.16883 55.2997 10.9588Q57.4624 12.3807 59.5345 13.5138Q61.6065 14.647 63.0594 14.647Q64.5536 14.647 66.635 13.5138Q68.7164 12.3807 70.8191 10.9588Q84.092 2.16883 94.0558-7.62341Q104.02-17.4157 109.545-27.8077Q115.07-38.1998 115.07-48.6997Q115.07-58.8006 110.862-66.3049Q106.655-73.8093 99.6827-77.9763Q92.7108-82.1434 84.4849-82.1434Q76.9375-82.1434 71.5914-79.2982Q66.2453-76.4531 63.0594-72.0096Q59.9335-76.4367 54.5574-79.2901Q49.1813-82.1434 41.6339-82.1434Q33.408-82.1434 26.4361-77.9763Q19.4642-73.8093 15.2566-66.3049Q11.049-58.8006 11.049-48.6997ZM27.2828-48.8742Q27.2828-54.1247 29.5085-58.1019Q31.7342-62.0791 35.5716-64.3434Q39.409-66.6076 44.1912-66.6076Q48.0097-66.6076 50.7114-65.4009Q53.413-64.1943 55.3552-62.3342Q57.2975-60.4742 58.7215-58.4888Q59.7697-56.9903 60.8037-56.2571Q61.8377-55.5239 63.0594-55.5239Q64.3247-55.5239 65.2839-56.2571Q66.2431-56.9903 67.3537-58.4888Q68.8955-60.5014 70.8159-62.3614Q72.7363-64.2215 75.4309-65.4145Q78.1255-66.6076 81.944-66.6076Q86.7699-66.6076 90.5772-64.3434Q94.3846-62.0791 96.6103-58.1019Q98.836-54.1247 98.836-48.8742Q98.836-43.472 96.3055-37.5926Q93.7749-31.7133 89.1127-25.7401Q84.4504-19.7669 78.0098-14.0074Q71.5692-8.24784 63.7242-3.02538Q63.2899-2.72133 63.0594-2.72133Q62.8725-2.72133 62.411-3.02538Q54.5473-8.24784 48.1079-14.0074Q41.6684-19.7669 37.005-25.7401Q32.3416-31.7133 29.8122-37.5926Q27.2828-43.472 27.2828-48.8742Z"/>
  </g>
  <g id="Bold-M" transform="matrix(1 0 0 1 2277.8 1126)">
   <path d="M11.3881-48.8354Q11.3881-38.3726 16.9006-28.054Q22.413-17.7354 32.4196-7.99579Q42.4263 1.74381 55.8802 10.5317Q57.5679 11.6378 59.266 12.5245Q60.9642 13.4112 62.1767 13.4112Q63.4126 13.4112 65.1276 12.5245Q66.8427 11.6378 68.4732 10.5317Q81.9272 1.74381 91.9338-7.99579Q101.94-17.7354 107.453-28.054Q112.965-38.3726 112.965-48.8354Q112.965-58.4232 108.963-65.6355Q104.961-72.8479 98.2318-76.8772Q91.5024-80.9065 83.3891-80.9065Q76.0964-80.9065 70.7529-78.0177Q65.4094-75.1289 62.1767-70.5011Q59.0012-75.1003 53.6291-78.0034Q48.257-80.9065 40.9644-80.9065Q32.851-80.9065 26.1216-76.8772Q19.3922-72.8479 15.3901-65.6355Q11.3881-58.4232 11.3881-48.8354ZM24.7261-48.9495Q24.7261-54.6291 27.0712-58.912Q29.4163-63.1949 33.4732-65.6101Q37.5302-68.0254 42.62-68.0254Q46.7013-68.0254 49.6269-66.6741Q52.5524-65.3228 54.6367-63.2618Q56.7209-61.2009 58.1951-59.05Q59.2213-57.5642 60.1524-56.898Q61.0834-56.2319 62.1767-56.2319Q63.2986-56.2319 64.1699-56.898Q65.0413-57.5642 66.1297-59.05Q67.7131-61.2008 69.7831-63.2618Q71.853-65.3227 74.7669-66.674Q77.6807-68.0254 81.762-68.0254Q86.8805-68.0254 90.9088-65.6101Q94.9371-63.1949 97.2822-58.912Q99.6274-54.6291 99.6274-48.9495Q99.6274-43.0564 96.8391-36.8063Q94.0508-30.5563 89.0653-24.3362Q84.0797-18.1161 77.406-12.2508Q70.7323-6.38548 62.9665-1.20483Q62.3921-0.812416 62.1767-0.812416Q61.9898-0.812416 61.4156-1.20483Q53.616-6.38548 46.9448-12.2508Q40.2737-18.1161 35.2855-24.3362Q30.2974-30.5563 27.5117-36.8063Q24.7261-43.0564 24.7261-48.9495Z"/>
  </g>
  <g id="Semibold-M" transform="matrix(1 0 0 1 1981.7 1126)">
   <path d="M11.6219-48.9289Q11.6219-38.4918 17.1257-28.2238Q22.6295-17.9558 32.6655-8.2525Q42.7016 1.45081 56.2804 10.2373Q57.6406 11.1257 59.081 11.8424Q60.5214 12.5591 61.5681 12.5591Q62.626 12.5591 64.0885 11.8424Q65.551 11.1257 66.856 10.2373Q80.4348 1.45081 90.4709-8.2525Q100.507-17.9558 106.011-28.2238Q111.514-38.4918 111.514-48.9289Q111.514-58.163 107.654-65.1741Q103.794-72.1851 97.2316-76.1194Q90.6694-80.0538 82.6336-80.0538Q75.5165-80.0538 70.1748-77.1349Q64.8331-74.216 61.5681-69.4611Q58.3585-74.179 52.9891-77.1164Q47.6198-80.0538 40.5028-80.0538Q32.467-80.0538 25.9047-76.1194Q19.3425-72.1851 15.4822-65.1741Q11.6219-58.163 11.6219-48.9289ZM22.9635-49.0015Q22.9635-54.9769 25.391-59.4705Q27.8184-63.9641 32.0267-66.4834Q36.2349-69.0028 41.5369-69.0028Q45.7993-69.0028 48.8792-67.5518Q51.9592-66.1007 54.1413-63.9013Q56.3235-61.7019 57.8323-59.4368Q58.8432-57.9598 59.7033-57.3399Q60.5634-56.7199 61.5681-56.7199Q62.5911-56.7199 63.4019-57.3399Q64.2127-57.9598 65.2859-59.4368Q66.898-61.683 69.071-63.8824Q71.2441-66.0819 74.3091-67.5423Q77.3741-69.0028 81.6365-69.0028Q86.9568-69.0028 91.1373-66.4834Q95.3179-63.9641 97.7454-59.4705Q100.173-54.9769 100.173-49.0015Q100.173-42.7699 97.207-36.2643Q94.2411-29.7586 89.0326-23.3683Q83.8242-16.978 76.9898-11.0398Q70.1553-5.10158 62.4442 0.0502458Q61.7732 0.503575 61.5681 0.503575Q61.3812 0.503575 60.7293 0.0502458Q52.974-5.10158 46.1431-11.0398Q39.3122-16.978 34.1002-23.3683Q28.8882-29.7586 25.9258-36.2643Q22.9635-42.7699 22.9635-49.0015Z"/>
  </g>
  <g id="Medium-M" transform="matrix(1 0 0 1 1685.45 1126)">
   <path d="M11.7991-48.9998Q11.7991-38.5821 17.2964-28.3525Q22.7936-18.1229 32.852-8.44715Q42.9104 1.22864 56.5839 10.014Q57.6957 10.7374 58.9407 11.3253Q60.1857 11.9131 61.1067 11.9131Q62.0295 11.9131 63.3005 11.3253Q64.5715 10.7374 65.6297 10.014Q79.3032 1.22864 89.3616-8.44715Q99.42-18.1229 104.917-28.3525Q110.414-38.5821 110.414-48.9998Q110.414-57.9658 106.662-64.8242Q102.909-71.6826 96.4732-75.5449Q90.0378-79.4072 82.0608-79.4072Q75.0768-79.4072 69.7365-76.4655Q64.3961-73.5238 61.1067-68.6726Q57.8711-73.4804 52.5039-76.4438Q47.1366-79.4072 40.1528-79.4072Q32.1758-79.4072 25.7403-75.5449Q19.3049-71.6826 15.552-64.8242Q11.7991-57.9658 11.7991-48.9998ZM21.627-49.0409Q21.627-55.2406 24.1169-59.894Q26.6069-64.5473 30.9298-67.1456Q35.2528-69.7439 40.7156-69.7439Q45.1153-69.7439 48.3123-68.2173Q51.5093-66.6906 53.7657-64.3862Q56.0222-62.0818 57.5572-59.7301Q58.5565-58.2598 59.3628-57.6749Q60.1691-57.09 61.1067-57.09Q62.0547-57.09 62.8196-57.6749Q63.5845-58.2598 64.6461-59.7301Q66.2799-62.0485 68.5312-64.3531Q70.7825-66.6576 73.962-68.2007Q77.1416-69.7439 81.5413-69.7439Q87.0146-69.7439 91.3106-67.1456Q95.6067-64.5473 98.0966-59.894Q100.587-55.2406 100.587-49.0409Q100.587-42.5527 97.4859-35.8533Q94.3853-29.1538 89.0079-22.6345Q83.6305-16.1151 76.6742-10.1216Q69.7179-4.12808 62.0481 1.0019Q61.3039 1.50142 61.1067 1.50142Q60.9198 1.50142 60.209 1.0019Q52.4872-4.12808 45.5351-10.1216Q38.5831-16.1151 33.2014-22.6345Q27.8196-29.1538 24.7233-35.8533Q21.627-42.5527 21.627-49.0409Z"/>
  </g>
  <g id="Regular-M" transform="matrix(1 0 0 1 1389.34 1126)">
   <path d="M12.0304-49.0923Q12.0304-38.7 17.519-28.5205Q23.0076-18.3409 33.0952-8.70104Q43.1827 0.938853 56.9797 9.72283Q57.7676 10.2309 58.7576 10.6507Q59.7477 11.0705 60.5049 11.0705Q61.2515 11.0705 62.2728 10.6507Q63.294 10.2309 64.0302 9.72283Q77.8272 0.938853 87.9147-8.70104Q98.0023-18.3409 103.491-28.5205Q108.98-38.7 108.98-49.0923Q108.98-57.7085 105.367-64.3678Q101.754-71.0271 95.484-74.7955Q89.2139-78.5639 81.3136-78.5639Q74.5033-78.5639 69.1647-75.5924Q63.8261-72.6209 60.5049-67.644Q57.2354-72.5692 51.8709-75.5665Q46.5064-78.5639 39.6963-78.5639Q31.796-78.5639 25.5259-74.7955Q19.2557-71.0271 15.6431-64.3678Q12.0304-57.7085 12.0304-49.0923ZM19.8838-49.0923Q19.8838-55.5846 22.4552-60.4463Q25.0265-65.308 29.4991-68.0093Q33.9717-70.7106 39.6444-70.7106Q44.2232-70.7106 47.5729-69.0853Q50.9225-67.4601 53.2758-65.0187Q55.6291-62.5773 57.1983-60.1127Q58.1826-58.6511 58.9187-58.1119Q59.6548-57.5728 60.5049-57.5728Q61.3551-57.5728 62.06-58.1119Q62.765-58.6511 63.8116-60.1127Q65.4737-62.5254 67.827-64.9669Q70.1802-67.4084 73.5093-69.0595Q76.8383-70.7106 81.4172-70.7106Q87.09-70.7106 91.5367-68.0093Q95.9834-65.308 98.5547-60.4463Q101.126-55.5846 101.126-49.0923Q101.126-42.2693 97.8497-35.3171Q94.5734-28.3649 88.9756-21.6772Q83.3777-14.9895 76.2625-8.92391Q69.1472-2.85828 61.5315 2.24318Q60.6918 2.80295 60.5049 2.80295Q60.3179 2.80295 59.5302 2.24318Q51.8522-2.85828 44.7422-8.92391Q37.6322-14.9895 32.029-21.6772Q26.4258-28.3649 23.1548-35.3171Q19.8838-42.2693 19.8838-49.0923Z"/>
  </g>
  <g id="Light-M" transform="matrix(1 0 0 1 1094.03 1126)">
   <path d="M11.5342-49.0923Q11.5342-38.9225 17.0827-28.9569Q22.6313-18.9912 32.6589-9.531Q42.6865-0.0707924 56.1241 8.61056Q56.7752 9.03327 57.6027 9.376Q58.4302 9.71873 59.1016 9.71873Q59.7457 9.71873 60.6044 9.376Q61.463 9.03327 62.0796 8.61056Q75.5173-0.0707924 85.5449-9.531Q95.5725-18.9912 101.121-28.9569Q106.67-38.9225 106.67-49.0923Q106.67-57.4348 103.16-63.8802Q99.6495-70.3257 93.5677-73.9913Q87.4859-77.6568 79.8078-77.6568Q73.1685-77.6568 67.7102-74.5143Q62.2519-71.3718 59.1016-66.104Q55.9863-71.3373 50.5105-74.4971Q45.0348-77.6568 38.396-77.6568Q30.7179-77.6568 24.6361-73.9913Q18.5543-70.3257 15.0442-63.8802Q11.5342-57.4348 11.5342-49.0923ZM17.5739-49.0923Q17.5739-55.8071 20.2736-60.8741Q22.9733-65.9411 27.6769-68.7793Q32.3805-71.6176 38.3611-71.6176Q42.8884-71.6176 46.3151-69.9837Q49.7418-68.3498 52.2235-65.7887Q54.7051-63.2275 56.3942-60.4036Q57.156-59.1987 57.7724-58.7451Q58.3888-58.2915 59.1016-58.2915Q59.815-58.2915 60.4002-58.7451Q60.9855-59.1987 61.8095-60.4036Q63.5401-63.1927 66.0217-65.754Q68.5033-68.3154 71.9265-69.9665Q75.3498-71.6176 79.8771-71.6176Q85.8581-71.6176 90.5443-68.7793Q95.2305-65.9411 97.9302-60.8741Q100.63-55.8071 100.63-49.0923Q100.63-42.2179 97.3449-35.2572Q94.06-28.2965 88.3766-21.5746Q82.6932-14.8527 75.3556-8.65023Q68.018-2.44776 59.9745 2.94465Q59.2886 3.40178 59.1016 3.40178Q58.9147 3.40178 58.2642 2.94465Q50.1583-2.44776 42.8344-8.65023Q35.5105-14.8527 29.8132-21.5746Q24.1159-28.2965 20.8449-35.2572Q17.5739-42.2179 17.5739-49.0923Z"/>
  </g>
  <g id="Thin-M" transform="matrix(1 0 0 1 799.176 1126)">
   <path d="M10.8779-49.0923Q10.8779-39.2168 16.5057-29.534Q22.1336-19.8513 32.0819-10.6287Q42.0302-1.40613 54.9926 7.13948Q55.4626 7.44926 56.0751 7.6901Q56.6876 7.93093 57.2458 7.93093Q57.7541 7.93093 58.3977 7.6901Q59.0414 7.44926 59.4998 7.13948Q72.4622-1.40613 82.4105-10.6287Q92.3588-19.8513 97.9867-29.534Q103.615-39.2168 103.615-49.0923Q103.615-57.0728 100.24-63.2354Q96.8659-69.3979 91.0331-72.9276Q85.2003-76.4572 77.8162-76.4572Q71.4031-76.4572 65.7865-73.0885Q60.1698-69.7197 57.2458-64.0671Q54.3342-69.7081 48.7113-73.0827Q43.0884-76.4572 36.6762-76.4572Q29.2921-76.4572 23.4593-72.9276Q17.6265-69.3979 14.2522-63.2354Q10.8779-57.0728 10.8779-49.0923ZM14.5188-49.0923Q14.5188-56.1014 17.3883-61.4398Q20.2578-66.7783 25.2669-69.7977Q30.276-72.8172 36.6638-72.8172Q41.1231-72.8172 44.6517-71.1719Q48.1803-69.5266 50.8317-66.8071Q53.4831-64.0876 55.3307-60.7884Q55.7982-59.9231 56.2562-59.5825Q56.7143-59.242 57.2458-59.242Q57.7782-59.242 58.205-59.5825Q58.6319-59.9231 59.1617-60.7884Q60.9827-64.0752 63.6341-66.7951Q66.2855-69.515 69.8332-71.1661Q73.381-72.8172 77.8403-72.8172Q84.2289-72.8172 89.2318-69.7977Q94.2347-66.7783 97.1041-61.4398Q99.9736-56.1014 99.9736-49.0923Q99.9736-42.1498 96.6773-35.1779Q93.3809-28.206 87.5844-21.4389Q81.7879-14.6717 74.1562-8.28826Q66.5245-1.9048 57.9152 3.87239Q57.4327 4.19378 57.2458 4.19378Q57.0589 4.19378 56.5897 3.87239Q47.9181-1.9048 40.3113-8.28826Q32.7045-14.6717 26.8827-21.4389Q21.0608-28.206 17.7898-35.1779Q14.5188-42.1498 14.5188-49.0923Z"/>
  </g>
  <g id="Ultralight-M" transform="matrix(1 0 0 1 503.415 1126)">
   <path d="M10.5418-49.0923Q10.5418-39.3675 16.2102-29.8297Q21.8787-20.2918 31.7864-11.1909Q41.6941-2.09008 54.413 6.386Q54.7904 6.63795 55.2927 6.82658Q55.7951 7.01522 56.2952 7.01522Q56.734 7.01522 57.2675 6.82658Q57.801 6.63795 58.1785 6.386Q70.8974-2.09008 80.8051-11.1909Q90.7128-20.2918 96.3813-29.8297Q102.05-39.3675 102.05-49.0923Q102.05-56.8874 98.7449-62.9051Q95.4401-68.9227 89.7349-72.3828Q84.0297-75.8428 76.7961-75.8428Q70.4989-75.8428 64.8011-72.3582Q59.1033-68.8735 56.2952-63.0239Q53.4881-68.8736 47.7898-72.3582Q42.0915-75.8428 35.7954-75.8428Q28.5618-75.8428 22.8566-72.3828Q17.1514-68.9227 13.8466-62.9051Q10.5418-56.8874 10.5418-49.0923ZM12.954-49.0923Q12.954-56.2521 15.9104-61.7296Q18.8669-67.2071 24.0325-70.3194Q29.1981-73.4316 35.7944-73.4316Q40.2189-73.4316 43.7996-71.7805Q47.3804-70.1294 50.1188-67.3287Q52.8572-64.5281 54.786-60.9855Q55.1028-60.2941 55.4797-60.0115Q55.8566-59.7289 56.2952-59.7289Q56.7349-59.7289 57.0807-60.0115Q57.4264-60.2941 57.8055-60.9855Q59.6728-64.5272 62.4112-67.3283Q65.1496-70.1294 68.7611-71.7805Q72.3726-73.4316 76.797-73.4316Q83.3944-73.4316 88.5595-70.3194Q93.7246-67.2071 96.681-61.7296Q99.6375-56.2521 99.6375-49.0923Q99.6375-42.115 96.3353-35.1373Q93.0331-28.1597 87.1787-21.3693Q81.3242-14.579 73.5419-8.10286Q65.7595-1.6267 56.8605 4.34757Q56.4821 4.59944 56.2952 4.59944Q56.1083 4.59944 55.732 4.34757Q46.7706-1.6267 39.0189-8.10286Q31.2673-14.579 25.3816-21.3693Q19.496-28.1597 16.225-35.1373Q12.954-42.115 12.954-49.0923Z"/>
  </g>
  <g id="Black-S" transform="matrix(1 0 0 1 2883.2 696)">
   <path d="M8.30078-45.6543Q8.30078-37.4023 12.6465-29.1992Q16.9922-20.9961 24.7559-13.2812Q32.5195-5.56641 42.7246 1.31836Q44.873 2.73438 46.8506 3.85742Q48.8281 4.98047 50.1953 4.98047Q51.6113 4.98047 53.5889 3.85742Q55.5664 2.73438 57.666 1.31836Q67.8711-5.56641 75.6348-13.2812Q83.3984-20.9961 87.7441-29.1992Q92.0898-37.4023 92.0898-45.6543Q92.0898-54.0527 88.5986-60.2051Q85.1074-66.3574 79.4189-69.751Q73.7305-73.1445 67.1875-73.1445Q61.0352-73.1445 56.8359-70.9473Q52.6367-68.75 50.1953-65.4297Q47.8027-68.75 43.5791-70.9473Q39.3555-73.1445 33.2031-73.1445Q26.6602-73.1445 20.9717-69.751Q15.2832-66.3574 11.792-60.2051Q8.30078-54.0527 8.30078-45.6543ZM23.7305-45.8496Q23.7305-49.5605 25.3662-52.3926Q27.002-55.2246 29.8096-56.8604Q32.6172-58.4961 36.084-58.4961Q38.8184-58.4961 40.7227-57.6904Q42.627-56.8848 44.0186-55.6152Q45.4102-54.3457 46.4844-52.9297Q47.3145-51.7578 48.2178-51.123Q49.1211-50.4883 50.1953-50.4883Q51.3184-50.4883 52.1484-51.123Q52.9785-51.7578 53.8574-52.9297Q55.0293-54.3945 56.3965-55.6641Q57.7637-56.9336 59.668-57.7148Q61.5723-58.4961 64.3066-58.4961Q67.8223-58.4961 70.6055-56.8604Q73.3887-55.2246 75.0244-52.3926Q76.6602-49.5605 76.6602-45.8496Q76.6602-42.0898 74.9268-37.8418Q73.1934-33.5938 69.8486-29.1504Q66.5039-24.707 61.6699-20.2881Q56.8359-15.8691 50.5859-11.7188Q50.3906-11.5723 50.1953-11.5723Q50.0488-11.5723 49.8047-11.7188Q43.5547-15.8691 38.7207-20.2881Q33.8867-24.707 30.542-29.1504Q27.1973-33.5938 25.4639-37.8418Q23.7305-42.0898 23.7305-45.8496Z"/>
  </g>
  <g id="Heavy-S" transform="matrix(1 0 0 1 2586.99 696)">
   <path d="M8.62347-45.758Q8.62347-37.5061 12.9519-29.3318Q17.2803-21.1574 25.0843-13.4599Q32.8883-5.76232 43.2778 1.13397Q45.0805 2.31949 46.793 3.26391Q48.5054 4.20833 49.6998 4.20833Q50.9314 4.20833 52.6496 3.26391Q54.3679 2.31949 56.1217 1.13397Q66.5112-5.76232 74.3152-13.4599Q82.1192-21.1574 86.4476-29.3318Q90.7761-37.5061 90.7761-45.758Q90.7761-53.7992 87.4289-59.7556Q84.0817-65.7121 78.5546-69.0134Q73.0275-72.3148 66.5421-72.3148Q60.5627-72.3148 56.3807-70.106Q52.1988-67.8972 49.6998-64.4732Q47.2496-67.8857 43.0432-70.1002Q38.8369-72.3148 32.8574-72.3148Q26.372-72.3148 20.8449-69.0134Q15.3178-65.7121 11.9706-59.7556Q8.62347-53.7992 8.62347-45.758ZM22.0709-45.9072Q22.0709-49.9178 23.7816-52.9573Q25.4922-55.9967 28.4382-57.7304Q31.3841-59.4641 35.0468-59.4641Q37.9886-59.4641 40.0542-58.549Q42.1199-57.6339 43.6037-56.226Q45.0875-54.8182 46.1847-53.3215Q47.0263-52.1266 47.8663-51.5322Q48.7062-50.9377 49.6998-50.9377Q50.7306-50.9377 51.5088-51.5322Q52.287-52.1266 53.1775-53.3215Q54.3724-54.844 55.8375-56.2518Q57.3027-57.6596 59.3626-58.5619Q61.4224-59.4641 64.3643-59.4641Q68.0643-59.4641 70.9858-57.7304Q73.9073-55.9967 75.6179-52.9573Q77.3286-49.9178 77.3286-45.9072Q77.3286-41.7787 75.3993-37.2483Q73.4699-32.7179 69.889-28.0901Q66.308-23.4624 61.3242-18.9801Q56.3404-14.4977 50.2056-10.4165Q49.8835-10.1893 49.6998-10.1893Q49.5533-10.1893 49.2054-10.4165Q43.0591-14.4977 38.0753-18.9801Q33.0915-23.4624 29.5106-28.0901Q25.9296-32.7179 24.0003-37.2483Q22.0709-41.7787 22.0709-45.9072Z"/>
  </g>
  <g id="Bold-S" transform="matrix(1 0 0 1 2290.83 696)">
   <path d="M8.98438-45.874Q8.98438-37.6221 13.2935-29.48Q17.6025-21.3379 25.4517-13.6597Q33.3008-5.98145 43.8965 0.927734Q45.3125 1.85547 46.7285 2.6001Q48.1445 3.34473 49.1455 3.34473Q50.1709 3.34473 51.5991 2.6001Q53.0273 1.85547 54.3945 0.927734Q64.9902-5.98145 72.8394-13.6597Q80.6885-21.3379 84.9976-29.48Q89.3066-37.6221 89.3066-45.874Q89.3066-53.5156 86.1206-59.2529Q82.9346-64.9902 77.5879-68.1885Q72.2412-71.3867 65.8203-71.3867Q60.0342-71.3867 55.8716-69.165Q51.709-66.9434 49.1455-63.4033Q46.6309-66.9189 42.4438-69.1528Q38.2568-71.3867 32.4707-71.3867Q26.0498-71.3867 20.7031-68.1885Q15.3564-64.9902 12.1704-59.2529Q8.98438-53.5156 8.98438-45.874ZM20.2148-45.9717Q20.2148-50.3174 22.0093-53.5889Q23.8037-56.8604 26.9043-58.7036Q30.0049-60.5469 33.8867-60.5469Q37.0605-60.5469 39.3066-59.5093Q41.5527-58.4717 43.1396-56.9092Q44.7266-55.3467 45.8496-53.7598Q46.7041-52.5391 47.4731-51.9897Q48.2422-51.4404 49.1455-51.4404Q50.0732-51.4404 50.7935-51.9897Q51.5137-52.5391 52.417-53.7598Q53.6377-55.3467 55.2124-56.9092Q56.7871-58.4717 59.021-59.5093Q61.2549-60.5469 64.4287-60.5469Q68.335-60.5469 71.4111-58.7036Q74.4873-56.8604 76.2817-53.5889Q78.0762-50.3174 78.0762-45.9717Q78.0762-41.4307 75.9277-36.5845Q73.7793-31.7383 69.9341-26.9043Q66.0889-22.0703 60.9375-17.5171Q55.7861-12.9639 49.7803-8.95996Q49.3164-8.64258 49.1455-8.64258Q48.999-8.64258 48.5352-8.95996Q42.5049-12.9639 37.3535-17.5171Q32.2021-22.0703 28.3569-26.9043Q24.5117-31.7383 22.3633-36.5845Q20.2148-41.4307 20.2148-45.9717Z"/>
  </g>
  <g id="Semibold-S" transform="matrix(1 0 0 1 1994.5 696)">
   <path d="M9.2332-45.954Q9.2332-37.7021 13.529-29.5822Q17.8247-21.4623 25.7049-13.7974Q33.5852-6.13252 44.323 0.785547Q45.4725 1.53555 46.6841 2.14243Q47.8957 2.74932 48.7634 2.74932Q49.6466 2.74932 50.8749 2.14243Q52.1031 1.53555 53.2037 0.785547Q63.9416-6.13252 71.8218-13.7974Q79.7021-21.4623 83.9978-29.5822Q88.2936-37.7021 88.2936-45.954Q88.2936-53.3201 85.2186-58.9063Q82.1437-64.4926 76.9214-67.6197Q71.6991-70.7469 65.3227-70.7469Q59.6698-70.7469 55.5206-68.5163Q51.3713-66.2857 48.7634-62.6657Q46.2043-66.2524 42.0306-68.4997Q37.8569-70.7469 32.2041-70.7469Q25.8276-70.7469 20.6054-67.6197Q15.3831-64.4926 12.3082-58.9063Q9.2332-53.3201 9.2332-45.954ZM18.9352-46.0161Q18.9352-50.5929 20.7874-54.0243Q22.6396-57.4558 25.8468-59.3746Q29.054-61.2934 33.0869-61.2934Q36.4207-61.2934 38.7912-60.1713Q41.1617-59.0493 42.8197-57.3802Q44.4777-55.711 45.6186-54.0619Q46.4819-52.8234 47.2021-52.3052Q47.9223-51.787 48.7634-51.787Q49.62-51.787 50.3002-52.3052Q50.9805-52.8234 51.8927-54.0619Q53.1312-55.6933 54.7814-57.3624Q56.4316-59.0315 58.7855-60.1625Q61.1394-61.2934 64.4731-61.2934Q68.5216-61.2934 71.7044-59.3746Q74.8872-57.4558 76.7394-54.0243Q78.5916-50.5929 78.5916-46.0161Q78.5916-41.1907 76.2921-36.1268Q73.9926-31.0629 69.9652-26.0867Q65.9378-21.1105 60.6709-16.5084Q55.404-11.9063 49.487-7.95576Q48.9254-7.57617 48.7634-7.57617Q48.6169-7.57617 48.073-7.95576Q42.1228-11.9063 36.8559-16.5084Q31.589-21.1105 27.5616-26.0867Q23.5342-31.0629 21.2347-36.1268Q18.9352-41.1907 18.9352-46.0161Z"/>
  </g>
  <g id="Medium-S" transform="matrix(1 0 0 1 1698.08 696)">
   <path d="M9.42188-46.0146Q9.42188-37.7627 13.7075-29.6597Q17.9932-21.5566 25.897-13.9019Q33.8008-6.24707 44.6465 0.677734Q45.5938 1.29297 46.6504 1.79541Q47.707 2.29785 48.4736 2.29785Q49.249 2.29785 50.3257 1.79541Q51.4023 1.29297 52.3008 0.677734Q63.1465-6.24707 71.0503-13.9019Q78.9541-21.5566 83.2397-29.6597Q87.5254-37.7627 87.5254-46.0146Q87.5254-53.1719 84.5347-58.6436Q81.5439-64.1152 76.416-67.1885Q71.2881-70.2617 64.9453-70.2617Q59.3936-70.2617 55.2544-68.0244Q51.1152-65.7871 48.4736-62.1064Q45.8809-65.7471 41.7173-68.0044Q37.5537-70.2617 32.002-70.2617Q25.6592-70.2617 20.5312-67.1885Q15.4033-64.1152 12.4126-58.6436Q9.42188-53.1719 9.42188-46.0146ZM17.9648-46.0498Q17.9648-50.8018 19.8608-54.3545Q21.7568-57.9072 25.0449-59.8833Q28.333-61.8594 32.4805-61.8594Q35.9355-61.8594 38.4004-60.6733Q40.8652-59.4873 42.5771-57.7373Q44.2891-55.9873 45.4434-54.291Q46.3135-53.0391 46.9966-52.5444Q47.6797-52.0498 48.4736-52.0498Q49.2764-52.0498 49.9263-52.5444Q50.5762-53.0391 51.4951-54.291Q52.7471-55.9561 54.4546-57.7061Q56.1621-59.4561 58.6069-60.6577Q61.0518-61.8594 64.5068-61.8594Q68.6631-61.8594 71.9268-59.8833Q75.1904-57.9072 77.0864-54.3545Q78.9824-50.8018 78.9824-46.0498Q78.9824-41.0088 76.5684-35.7798Q74.1543-30.5508 69.9888-25.4668Q65.8232-20.3828 60.4688-15.7437Q55.1143-11.1045 49.2646-7.19434Q48.6289-6.76758 48.4736-6.76758Q48.3271-6.76758 47.7227-7.19434Q41.833-11.1045 36.4785-15.7437Q31.124-20.3828 26.9585-25.4668Q22.793-30.5508 20.3789-35.7798Q17.9648-41.0088 17.9648-46.0498Z"/>
  </g>
  <g id="Regular-S" transform="matrix(1 0 0 1 1401.75 696)">
   <path d="M9.66797-46.0938Q9.66797-37.8418 13.9404-29.7607Q18.2129-21.6797 26.1475-14.0381Q34.082-6.39648 45.0684 0.537109Q45.752 0.976562 46.6064 1.34277Q47.4609 1.70898 48.0957 1.70898Q48.7305 1.70898 49.6094 1.34277Q50.4883 0.976562 51.123 0.537109Q62.1094-6.39648 70.0439-14.0381Q77.9785-21.6797 82.251-29.7607Q86.5234-37.8418 86.5234-46.0938Q86.5234-52.9785 83.6426-58.3008Q80.7617-63.623 75.7568-66.626Q70.752-69.6289 64.4531-69.6289Q59.0332-69.6289 54.9072-67.3828Q50.7812-65.1367 48.0957-61.377Q45.459-65.0879 41.3086-67.3584Q37.1582-69.6289 31.7383-69.6289Q25.4395-69.6289 20.4346-66.626Q15.4297-63.623 12.5488-58.3008Q9.66797-52.9785 9.66797-46.0938ZM16.6992-46.0938Q16.6992-51.0742 18.6523-54.7852Q20.6055-58.4961 23.999-60.5469Q27.3926-62.5977 31.6895-62.5977Q35.3027-62.5977 37.8906-61.3281Q40.4785-60.0586 42.2607-58.2031Q44.043-56.3477 45.2148-54.5898Q46.0938-53.3203 46.7285-52.8564Q47.3633-52.3926 48.0957-52.3926Q48.8281-52.3926 49.4385-52.8564Q50.0488-53.3203 50.9766-54.5898Q52.2461-56.2988 54.0283-58.1543Q55.8105-60.0098 58.374-61.3037Q60.9375-62.5977 64.5508-62.5977Q68.8477-62.5977 72.2168-60.5469Q75.5859-58.4961 77.5391-54.7852Q79.4922-51.0742 79.4922-46.0938Q79.4922-40.7715 76.9287-35.3271Q74.3652-29.8828 70.0195-24.6582Q65.6738-19.4336 60.2051-14.7461Q54.7363-10.0586 48.9746-6.20117Q48.2422-5.71289 48.0957-5.71289Q47.9492-5.71289 47.2656-6.20117Q41.4551-10.0586 35.9863-14.7461Q30.5176-19.4336 26.1719-24.6582Q21.8262-29.8828 19.2627-35.3271Q16.6992-40.7715 16.6992-46.0938Z"/>
  </g>
  <g id="Light-S" transform="matrix(1 0 0 1 1106.28 696)">
   <path d="M9.22902-46.0938Q9.22902-38.0386 13.5545-30.1468Q17.88-22.2549 25.7615-14.7723Q33.6431-7.28963 44.3115-0.446828Q44.8741-0.0829061 45.5847 0.215149Q46.2954 0.513204 46.8544 0.513204Q47.3984 0.513204 48.1335 0.215149Q48.8686-0.0829061 49.3975-0.446828Q60.066-7.28963 67.9475-14.7723Q75.8291-22.2549 80.1545-30.1468Q84.48-38.0386 84.48-46.0938Q84.48-52.7364 81.69-57.8695Q78.8999-63.0025 74.0616-65.9145Q69.2233-68.8265 63.121-68.8265Q57.8524-68.8265 53.6205-66.4291Q49.3886-64.0317 46.8544-60.0146Q44.354-63.9982 40.1052-66.4124Q35.8564-68.8265 30.588-68.8265Q24.4858-68.8265 19.6475-65.9145Q14.8092-63.0025 12.0191-57.8695Q9.22902-52.7364 9.22902-46.0938ZM14.6558-46.0938Q14.6558-51.2711 16.7225-55.1636Q18.7892-59.0561 22.3871-61.2281Q25.985-63.4 30.5542-63.4Q34.122-63.4 36.778-62.1229Q39.4341-60.8457 41.3298-58.8843Q43.2256-56.9229 44.5035-54.8472Q45.1856-53.8048 45.7144-53.4166Q46.2433-53.0284 46.8544-53.0284Q47.4658-53.0284 47.9702-53.4166Q48.4746-53.8048 49.2055-54.8472Q50.5356-56.8891 52.4314-58.8506Q54.3271-60.8121 56.9739-62.1061Q59.6207-63.4 63.1884-63.4Q67.7579-63.4 71.3389-61.2281Q74.9199-59.0561 76.9866-55.1636Q79.0532-51.2711 79.0532-46.0938Q79.0532-40.726 76.4821-35.2741Q73.911-29.8223 69.4897-24.5674Q65.0683-19.3125 59.4028-14.504Q53.7374-9.69543 47.5972-5.58065Q47.0009-5.18316 46.8544-5.18316Q46.7079-5.18316 46.1456-5.58065Q39.9567-9.69543 34.2987-14.504Q28.6407-19.3125 24.2118-24.5674Q19.7828-29.8223 17.2193-35.2741Q14.6558-40.726 14.6558-46.0938Z"/>
  </g>
  <g id="Thin-S" transform="matrix(1 0 0 1 811.209 696)">
   <path d="M8.64848-46.0938Q8.64848-38.299 13.0441-30.6574Q17.4397-23.0158 25.2511-15.7433Q33.0625-8.47089 43.3105-1.74817Q43.713-1.48414 44.2335-1.27623Q44.7539-1.06831 45.2127-1.06831Q45.6366-1.06831 46.1815-1.27623Q46.7263-1.48414 47.1154-1.74817Q57.3634-8.47089 65.1748-15.7433Q72.9862-23.0158 77.3818-30.6574Q81.7775-38.299 81.7775-46.0938Q81.7775-52.4162 79.1075-57.299Q76.4375-62.1818 71.8195-64.9736Q67.2015-67.7654 61.3592-67.7654Q56.2908-67.7654 51.9188-65.1678Q47.5468-62.5703 45.2127-58.2128Q42.8926-62.5569 38.5136-65.1611Q34.1346-67.7654 29.0667-67.7654Q23.2245-67.7654 18.6065-64.9736Q13.9885-62.1818 11.3185-57.299Q8.64848-52.4162 8.64848-46.0938ZM11.9532-46.0938Q11.9532-51.5314 14.1701-55.6641Q16.387-59.7967 20.2551-62.129Q24.1233-64.4612 29.0527-64.4612Q32.5603-64.4612 35.3065-63.1739Q38.0527-61.8867 40.0986-59.7852Q42.1446-57.6837 43.5628-55.1876Q43.9845-54.4455 44.3732-54.1574Q44.762-53.8692 45.2127-53.8692Q45.6639-53.8692 46.0283-54.1574Q46.3926-54.4455 46.8632-55.1876Q48.2733-57.6698 50.3193-59.7715Q52.3652-61.8733 55.1221-63.1673Q57.879-64.4612 61.3866-64.4612Q66.3167-64.4612 70.1778-62.129Q74.039-59.7967 76.2558-55.6641Q78.4727-51.5314 78.4727-46.0938Q78.4727-40.6658 75.8915-35.204Q73.3103-29.7422 68.7889-24.4473Q64.2675-19.1524 58.3418-14.1838Q52.4162-9.21513 45.7756-4.75995Q45.3592-4.48254 45.2127-4.48254Q45.0662-4.48254 44.6643-4.75995Q37.9749-9.21513 32.0667-14.1838Q26.1585-19.1524 21.6193-24.4473Q17.0802-29.7422 14.5167-35.204Q11.9532-40.6658 11.9532-46.0938Z"/>
  </g>
  <g id="Ultralight-S" transform="matrix(1 0 0 1 515.339 696)">
   <path d="M8.35114-46.0938Q8.35114-38.4323 12.7827-30.9189Q17.2142-23.4055 24.9897-16.2407Q32.7652-9.07593 42.7979-2.4147Q43.1183-2.20184 43.5413-2.0401Q43.9644-1.87836 44.3718-1.87836Q44.7342-1.87836 45.1817-2.0401Q45.6291-2.20184 45.9465-2.4147Q55.9792-9.07593 63.7547-16.2407Q71.5302-23.4055 75.9617-30.9189Q80.3932-38.4323 80.3932-46.0938Q80.3932-52.2522 77.7847-57.0068Q75.1762-61.7615 70.6711-64.4917Q66.1659-67.2218 60.4568-67.2218Q55.4909-67.2218 51.0471-64.5218Q46.6034-61.8217 44.3718-57.2899Q42.144-61.8187 37.6984-64.5203Q33.2527-67.2218 28.2875-67.2218Q22.5784-67.2218 18.0733-64.4917Q13.5681-61.7615 10.9596-57.0068Q8.35114-52.2522 8.35114-46.0938ZM10.569-46.0938Q10.569-51.6647 12.8628-55.9204Q15.1566-60.1761 19.1631-62.5904Q23.1697-65.0047 28.2837-65.0047Q31.7604-65.0047 34.5528-63.7123Q37.3451-62.4199 39.468-60.2467Q41.5909-58.0734 43.0809-55.3619Q43.3693-54.7737 43.6863-54.5368Q44.0033-54.2999 44.3718-54.2999Q44.7411-54.2999 45.0336-54.5368Q45.3262-54.7737 45.6635-55.3619Q47.1146-58.0696 49.2374-60.2432Q51.3603-62.4168 54.1737-63.7108Q56.987-65.0047 60.4637-65.0047Q65.5785-65.0047 69.5831-62.5904Q73.5878-60.1761 75.8816-55.9204Q78.1754-51.6647 78.1754-46.0938Q78.1754-40.6349 75.589-35.1681Q73.0026-29.7012 68.4299-24.3858Q63.8573-19.0704 57.7984-14.0198Q51.7395-8.96912 44.8425-4.3396Q44.5183-4.12369 44.3718-4.12369Q44.2253-4.12369 43.9056-4.3396Q36.9598-8.96912 30.9235-14.0198Q24.8871-19.0704 20.2915-24.3858Q15.696-29.7012 13.1325-35.1681Q10.569-40.6349 10.569-46.0938Z"/>
  </g>
 </g>
</svg>
