<?xml version="1.0" encoding="UTF-8"?>
<!--Generator: Apple Native CoreSVG 175-->
<!DOCTYPE svg
PUBLIC "-//W3C//DTD SVG 1.1//EN"
       "http://www.w3.org/Graphics/SVG/1.1/DTD/svg11.dtd">
<svg version="1.1" xmlns="http://www.w3.org/2000/svg" xmlns:xlink="http://www.w3.org/1999/xlink" width="3300" height="2200">
 <!--glyph: "uni10026D.medium", point size: 100.0, font version: "17.3d3e1", template writer version: "65.1"-->
 <g id="Notes">
  <rect height="2200" id="artboard" style="fill:white;opacity:1" width="3300" x="0" y="0"/>
  <line style="fill:none;stroke:black;opacity:1;stroke-width:0.5;" x1="263" x2="3036" y1="292" y2="292"/>
  <text style="stroke:none;fill:black;font-family:sans-serif;font-size:13;font-weight:bold;" transform="matrix(1 0 0 1 263 322)">Weight/Scale Variations</text>
  <text style="stroke:none;fill:black;font-family:sans-serif;font-size:13;text-anchor:middle;" transform="matrix(1 0 0 1 559.711 322)">Ultralight</text>
  <text style="stroke:none;fill:black;font-family:sans-serif;font-size:13;text-anchor:middle;" transform="matrix(1 0 0 1 856.422 322)">Thin</text>
  <text style="stroke:none;fill:black;font-family:sans-serif;font-size:13;text-anchor:middle;" transform="matrix(1 0 0 1 1153.13 322)">Light</text>
  <text style="stroke:none;fill:black;font-family:sans-serif;font-size:13;text-anchor:middle;" transform="matrix(1 0 0 1 1449.84 322)">Regular</text>
  <text style="stroke:none;fill:black;font-family:sans-serif;font-size:13;text-anchor:middle;" transform="matrix(1 0 0 1 1746.56 322)">Medium</text>
  <text style="stroke:none;fill:black;font-family:sans-serif;font-size:13;text-anchor:middle;" transform="matrix(1 0 0 1 2043.27 322)">Semibold</text>
  <text style="stroke:none;fill:black;font-family:sans-serif;font-size:13;text-anchor:middle;" transform="matrix(1 0 0 1 2339.98 322)">Bold</text>
  <text style="stroke:none;fill:black;font-family:sans-serif;font-size:13;text-anchor:middle;" transform="matrix(1 0 0 1 2636.69 322)">Heavy</text>
  <text style="stroke:none;fill:black;font-family:sans-serif;font-size:13;text-anchor:middle;" transform="matrix(1 0 0 1 2933.4 322)">Black</text>
  <line style="fill:none;stroke:black;opacity:1;stroke-width:0.5;" x1="263" x2="3036" y1="1903" y2="1903"/>
  <g transform="matrix(1 0 0 1 263 1933)">
   <path d="M9.24805 0.830078Q10.8691 0.830078 12.2949 0.214844Q13.7207-0.400391 14.8096-1.49414Q15.8984-2.58789 16.5186-4.01367Q17.1387-5.43945 17.1387-7.05078Q17.1387-8.66211 16.5186-10.0879Q15.8984-11.5137 14.8047-12.6074Q13.7109-13.7012 12.2852-14.3164Q10.8594-14.9316 9.23828-14.9316Q7.62695-14.9316 6.20117-14.3164Q4.77539-13.7012 3.69141-12.6074Q2.60742-11.5137 1.9873-10.0879Q1.36719-8.66211 1.36719-7.05078Q1.36719-5.43945 1.9873-4.01367Q2.60742-2.58789 3.69629-1.49414Q4.78516-0.400391 6.21094 0.214844Q7.63672 0.830078 9.24805 0.830078ZM9.24805-0.654297Q7.91992-0.654297 6.7627-1.14746Q5.60547-1.64062 4.73145-2.51953Q3.85742-3.39844 3.36426-4.56055Q2.87109-5.72266 2.87109-7.05078Q2.87109-8.37891 3.35938-9.54102Q3.84766-10.7031 4.72168-11.582Q5.5957-12.4609 6.75293-12.9541Q7.91016-13.4473 9.23828-13.4473Q10.5762-13.4473 11.7334-12.9541Q12.8906-12.4609 13.7695-11.582Q14.6484-10.7031 15.1465-9.54102Q15.6445-8.37891 15.6445-7.05078Q15.6445-5.72266 15.1514-4.56055Q14.6582-3.39844 13.7842-2.51953Q12.9102-1.64062 11.748-1.14746Q10.5859-0.654297 9.24805-0.654297ZM5.6543-7.05078Q5.6543-6.72852 5.85938-6.52832Q6.06445-6.32812 6.40625-6.32812L8.51562-6.32812L8.51562-4.20898Q8.51562-3.88672 8.71094-3.67676Q8.90625-3.4668 9.23828-3.4668Q9.56055-3.4668 9.77051-3.67676Q9.98047-3.88672 9.98047-4.20898L9.98047-6.32812L12.0898-6.32812Q12.4219-6.32812 12.627-6.52832Q12.832-6.72852 12.832-7.05078Q12.832-7.38281 12.627-7.58789Q12.4219-7.79297 12.0898-7.79297L9.98047-7.79297L9.98047-9.90234Q9.98047-10.2344 9.77051-10.4443Q9.56055-10.6543 9.23828-10.6543Q8.90625-10.6543 8.71094-10.4443Q8.51562-10.2344 8.51562-9.90234L8.51562-7.79297L6.40625-7.79297Q6.06445-7.79297 5.85938-7.58789Q5.6543-7.38281 5.6543-7.05078Z"/>
  </g>
  <g transform="matrix(1 0 0 1 281.867 1933)">
   <path d="M11.709 2.91016Q13.75 2.91016 15.5518 2.12891Q17.3535 1.34766 18.7305-0.0292969Q20.1074-1.40625 20.8887-3.20801Q21.6699-5.00977 21.6699-7.05078Q21.6699-9.0918 20.8887-10.8936Q20.1074-12.6953 18.7305-14.0723Q17.3535-15.4492 15.5469-16.2305Q13.7402-17.0117 11.6992-17.0117Q9.6582-17.0117 7.85645-16.2305Q6.05469-15.4492 4.68262-14.0723Q3.31055-12.6953 2.5293-10.8936Q1.74805-9.0918 1.74805-7.05078Q1.74805-5.00977 2.5293-3.20801Q3.31055-1.40625 4.6875-0.0292969Q6.06445 1.34766 7.86621 2.12891Q9.66797 2.91016 11.709 2.91016ZM11.709 1.25Q9.98047 1.25 8.47656 0.605469Q6.97266-0.0390625 5.83496-1.17676Q4.69727-2.31445 4.05762-3.81836Q3.41797-5.32227 3.41797-7.05078Q3.41797-8.7793 4.05762-10.2832Q4.69727-11.7871 5.83008-12.9297Q6.96289-14.0723 8.4668-14.7119Q9.9707-15.3516 11.6992-15.3516Q13.4277-15.3516 14.9316-14.7119Q16.4355-14.0723 17.5781-12.9297Q18.7207-11.7871 19.3652-10.2832Q20.0098-8.7793 20.0098-7.05078Q20.0098-5.32227 19.3701-3.81836Q18.7305-2.31445 17.5928-1.17676Q16.4551-0.0390625 14.9463 0.605469Q13.4375 1.25 11.709 1.25ZM7.17773-7.05078Q7.17773-6.69922 7.41211-6.47461Q7.64648-6.25 8.01758-6.25L10.8887-6.25L10.8887-3.36914Q10.8887-2.99805 11.1133-2.76855Q11.3379-2.53906 11.6895-2.53906Q12.0605-2.53906 12.29-2.76855Q12.5195-2.99805 12.5195-3.36914L12.5195-6.25L15.4004-6.25Q15.7715-6.25 16.001-6.47461Q16.2305-6.69922 16.2305-7.05078Q16.2305-7.42188 16.001-7.65137Q15.7715-7.88086 15.4004-7.88086L12.5195-7.88086L12.5195-10.752Q12.5195-11.1328 12.29-11.3623Q12.0605-11.5918 11.6895-11.5918Q11.3379-11.5918 11.1133-11.3574Q10.8887-11.123 10.8887-10.752L10.8887-7.88086L8.01758-7.88086Q7.63672-7.88086 7.40723-7.65137Q7.17773-7.42188 7.17773-7.05078Z"/>
  </g>
  <g transform="matrix(1 0 0 1 305.646 1933)">
   <path d="M14.9707 5.66406Q17.0605 5.66406 18.96 5.01465Q20.8594 4.36523 22.4512 3.19336Q24.043 2.02148 25.2197 0.429688Q26.3965-1.16211 27.0459-3.06641Q27.6953-4.9707 27.6953-7.05078Q27.6953-9.14062 27.0459-11.04Q26.3965-12.9395 25.2197-14.5312Q24.043-16.123 22.4512-17.2998Q20.8594-18.4766 18.9551-19.126Q17.0508-19.7754 14.9609-19.7754Q12.8711-19.7754 10.9717-19.126Q9.07227-18.4766 7.48535-17.2998Q5.89844-16.123 4.72168-14.5312Q3.54492-12.9395 2.90039-11.04Q2.25586-9.14062 2.25586-7.05078Q2.25586-4.9707 2.90527-3.06641Q3.55469-1.16211 4.72656 0.429688Q5.89844 2.02148 7.49023 3.19336Q9.08203 4.36523 10.9814 5.01465Q12.8809 5.66406 14.9707 5.66406ZM14.9707 3.84766Q13.1641 3.84766 11.5283 3.2959Q9.89258 2.74414 8.53516 1.74805Q7.17773 0.751953 6.17676-0.610352Q5.17578-1.97266 4.62891-3.6084Q4.08203-5.24414 4.08203-7.05078Q4.08203-8.86719 4.62891-10.5029Q5.17578-12.1387 6.17188-13.501Q7.16797-14.8633 8.52539-15.8594Q9.88281-16.8555 11.5186-17.4023Q13.1543-17.9492 14.9609-17.9492Q16.7773-17.9492 18.4131-17.4023Q20.0488-16.8555 21.4111-15.8594Q22.7734-14.8633 23.7695-13.501Q24.7656-12.1387 25.3174-10.5029Q25.8691-8.86719 25.8691-7.05078Q25.8789-5.24414 25.332-3.6084Q24.7852-1.97266 23.7842-0.610352Q22.7832 0.751953 21.4209 1.74805Q20.0586 2.74414 18.4229 3.2959Q16.7871 3.84766 14.9707 3.84766ZM9.19922-7.05078Q9.19922-6.66992 9.45801-6.4209Q9.7168-6.17188 10.1172-6.17188L14.0625-6.17188L14.0625-2.2168Q14.0625-1.81641 14.3115-1.55762Q14.5605-1.29883 14.9512-1.29883Q15.3516-1.29883 15.6104-1.55273Q15.8691-1.80664 15.8691-2.2168L15.8691-6.17188L19.8242-6.17188Q20.2246-6.17188 20.4785-6.4209Q20.7324-6.66992 20.7324-7.05078Q20.7324-7.46094 20.4785-7.71484Q20.2246-7.96875 19.8242-7.96875L15.8691-7.96875L15.8691-11.9141Q15.8691-12.3242 15.6104-12.583Q15.3516-12.8418 14.9512-12.8418Q14.5605-12.8418 14.3115-12.583Q14.0625-12.3242 14.0625-11.9141L14.0625-7.96875L10.1172-7.96875Q9.70703-7.96875 9.45312-7.71484Q9.19922-7.46094 9.19922-7.05078Z"/>
  </g>
  <text style="stroke:none;fill:black;font-family:sans-serif;font-size:13;font-weight:bold;" transform="matrix(1 0 0 1 263 1953)">Design Variations</text>
  <text style="stroke:none;fill:black;font-family:sans-serif;font-size:13;" transform="matrix(1 0 0 1 263 1971)">Symbols are supported in up to nine weights and three scales.</text>
  <text style="stroke:none;fill:black;font-family:sans-serif;font-size:13;" transform="matrix(1 0 0 1 263 1989)">For optimal layout with text and other symbols, vertically align</text>
  <text style="stroke:none;fill:black;font-family:sans-serif;font-size:13;" transform="matrix(1 0 0 1 263 2007)">symbols with the adjacent text.</text>
  <line style="fill:none;stroke:#00AEEF;stroke-width:0.5;opacity:1.0;" x1="776" x2="776" y1="1919" y2="1933"/>
  <g transform="matrix(1 0 0 1 776 1933)">
   <path d="M3.31055 0.15625Q3.70117 0.15625 3.91602-0.00976562Q4.13086-0.175781 4.26758-0.585938L5.52734-4.0332L11.2891-4.0332L12.5488-0.585938Q12.6855-0.175781 12.9004-0.00976562Q13.1152 0.15625 13.4961 0.15625Q13.8867 0.15625 14.1162-0.0585938Q14.3457-0.273438 14.3457-0.644531Q14.3457-0.869141 14.2383-1.17188L9.6582-13.3691Q9.48242-13.8184 9.17969-14.043Q8.87695-14.2676 8.4082-14.2676Q7.5-14.2676 7.17773-13.3789L2.59766-1.16211Q2.49023-0.859375 2.49023-0.634766Q2.49023-0.263672 2.70996-0.0537109Q2.92969 0.15625 3.31055 0.15625ZM6.00586-5.51758L8.37891-12.0898L8.42773-12.0898L10.8008-5.51758Z"/>
  </g>
  <line style="fill:none;stroke:#00AEEF;stroke-width:0.5;opacity:1.0;" x1="793.197" x2="793.197" y1="1919" y2="1933"/>
  <text style="stroke:none;fill:black;font-family:sans-serif;font-size:13;font-weight:bold;" transform="matrix(1 0 0 1 776 1953)">Margins</text>
  <text style="stroke:none;fill:black;font-family:sans-serif;font-size:13;" transform="matrix(1 0 0 1 776 1971)">Leading and trailing margins on the left and right side of each symbol</text>
  <text style="stroke:none;fill:black;font-family:sans-serif;font-size:13;" transform="matrix(1 0 0 1 776 1989)">can be adjusted by modifying the x-location of the margin guidelines.</text>
  <text style="stroke:none;fill:black;font-family:sans-serif;font-size:13;" transform="matrix(1 0 0 1 776 2007)">Modifications are automatically applied proportionally to all</text>
  <text style="stroke:none;fill:black;font-family:sans-serif;font-size:13;" transform="matrix(1 0 0 1 776 2025)">scales and weights.</text>
  <g transform="matrix(1 0 0 1 1289 1933)">
   <path d="M2.8418 1.86523L4.54102 3.57422Q5.18555 4.22852 5.90332 4.17969Q6.62109 4.13086 7.31445 3.35938L18.0078-8.42773L17.041-9.4043L6.42578 2.27539Q6.16211 2.57812 5.89355 2.61719Q5.625 2.65625 5.27344 2.30469L4.10156 1.14258Q3.75 0.791016 3.79395 0.522461Q3.83789 0.253906 4.14062-0.0195312L15.6152-10.8203L14.6387-11.7871L3.04688-0.898438Q2.30469-0.214844 2.25098 0.498047Q2.19727 1.21094 2.8418 1.86523ZM9.25781-16.3281Q8.94531-16.0254 8.90625-15.6348Q8.86719-15.2441 9.04297-14.9512Q9.21875-14.6777 9.55566-14.541Q9.89258-14.4043 10.3809-14.5215Q11.4746-14.7754 12.5977-14.7314Q13.7207-14.6875 14.7949-13.9844L14.209-12.5293Q13.9551-11.9043 14.0674-11.4404Q14.1797-10.9766 14.5801-10.5664L16.875-8.25195Q17.2363-7.88086 17.5781-7.82227Q17.9199-7.76367 18.3398-7.8418L19.4043-8.03711L20.0684-7.36328L20.0293-6.80664Q20-6.43555 20.1221-6.12305Q20.2441-5.81055 20.6055-5.44922L21.3672-4.70703Q21.7285-4.3457 22.1533-4.33105Q22.5781-4.31641 22.9297-4.66797L25.8398-7.58789Q26.1914-7.93945 26.1816-8.35449Q26.1719-8.76953 25.8105-9.13086L25.0391-9.89258Q24.6875-10.2539 24.3799-10.3857Q24.0723-10.5176 23.7109-10.4883L23.1348-10.4395L22.4902-11.0742L22.7344-12.1973Q22.832-12.6172 22.6953-12.9834Q22.5586-13.3496 22.1191-13.7891L19.9219-15.9766Q18.6719-17.2168 17.2607-17.8369Q15.8496-18.457 14.4189-18.4814Q12.9883-18.5059 11.665-17.959Q10.3418-17.4121 9.25781-16.3281ZM10.752-15.957Q11.6602-16.6211 12.7002-16.9043Q13.7402-17.1875 14.8047-17.085Q15.8691-16.9824 16.8701-16.5137Q17.8711-16.0449 18.7012-15.2051L21.1328-12.793Q21.3086-12.6172 21.3525-12.4512Q21.3965-12.2852 21.3379-12.0312L21.0156-10.5469L22.5195-9.0625L23.5059-9.12109Q23.6914-9.13086 23.7891-9.09668Q23.8867-9.0625 24.0332-8.91602L24.6094-8.33984L22.168-5.89844L21.5918-6.47461Q21.4453-6.62109 21.4062-6.71875Q21.3672-6.81641 21.377-7.01172L21.4453-7.98828L19.9512-9.47266L18.4277-9.21875Q18.1836-9.16992 18.042-9.2041Q17.9004-9.23828 17.7148-9.41406L15.7129-11.416Q15.5176-11.5918 15.4932-11.7529Q15.4688-11.9141 15.5859-12.1875L16.4648-14.2773Q15.293-15.3711 13.8281-15.791Q12.3633-16.2109 10.8398-15.7617Q10.7227-15.7324 10.6885-15.8057Q10.6543-15.8789 10.752-15.957Z"/>
  </g>
  <text style="stroke:none;fill:black;font-family:sans-serif;font-size:13;font-weight:bold;" transform="matrix(1 0 0 1 1289 1953)">Exporting</text>
  <text style="stroke:none;fill:black;font-family:sans-serif;font-size:13;" transform="matrix(1 0 0 1 1289 1971)">Symbols should be outlined when exporting to ensure the</text>
  <text style="stroke:none;fill:black;font-family:sans-serif;font-size:13;" transform="matrix(1 0 0 1 1289 1989)">design is preserved when submitting to Xcode.</text>
  <text id="template-version" style="stroke:none;fill:black;font-family:sans-serif;font-size:13;text-anchor:end;" transform="matrix(1 0 0 1 3036 1933)">Template v.3.0</text>
  <text style="stroke:none;fill:black;font-family:sans-serif;font-size:13;text-anchor:end;" transform="matrix(1 0 0 1 3036 1951)">Requires Xcode 13 or greater</text>
  <text id="descriptive-name" style="stroke:none;fill:black;font-family:sans-serif;font-size:13;text-anchor:end;" transform="matrix(1 0 0 1 3036 1969)">Generated from person.crop.circle</text>
  <text style="stroke:none;fill:black;font-family:sans-serif;font-size:13;text-anchor:end;" transform="matrix(1 0 0 1 3036 1987)">Typeset at 100 points</text>
  <text style="stroke:none;fill:black;font-family:sans-serif;font-size:13;" transform="matrix(1 0 0 1 263 726)">Small</text>
  <text style="stroke:none;fill:black;font-family:sans-serif;font-size:13;" transform="matrix(1 0 0 1 263 1156)">Medium</text>
  <text style="stroke:none;fill:black;font-family:sans-serif;font-size:13;" transform="matrix(1 0 0 1 263 1586)">Large</text>
 </g>
 <g id="Guides">
  <g id="H-reference" style="fill:#27AAE1;stroke:none;" transform="matrix(1 0 0 1 339 696)">
   <path d="M0.993347 0L3.6377 0L29.3282-67.1326L30.0301-67.1326L30.0301-70.459L28.1227-70.459ZM11.6882-24.4797L46.9818-24.4797L46.2311-26.7288L12.4382-26.7288ZM55.1193 0L57.7637 0L30.6381-70.459L29.4327-70.459L29.4327-67.1326Z"/>
  </g>
  <line id="Baseline-S" style="fill:none;stroke:#27AAE1;opacity:1;stroke-width:0.5;" x1="263" x2="3036" y1="696" y2="696"/>
  <line id="Capline-S" style="fill:none;stroke:#27AAE1;opacity:1;stroke-width:0.5;" x1="263" x2="3036" y1="625.541" y2="625.541"/>
  <g id="H-reference" style="fill:#27AAE1;stroke:none;" transform="matrix(1 0 0 1 339 1126)">
   <path d="M0.993347 0L3.6377 0L29.3282-67.1326L30.0301-67.1326L30.0301-70.459L28.1227-70.459ZM11.6882-24.4797L46.9818-24.4797L46.2311-26.7288L12.4382-26.7288ZM55.1193 0L57.7637 0L30.6381-70.459L29.4327-70.459L29.4327-67.1326Z"/>
  </g>
  <line id="Baseline-M" style="fill:none;stroke:#27AAE1;opacity:1;stroke-width:0.5;" x1="263" x2="3036" y1="1126" y2="1126"/>
  <line id="Capline-M" style="fill:none;stroke:#27AAE1;opacity:1;stroke-width:0.5;" x1="263" x2="3036" y1="1055.54" y2="1055.54"/>
  <g id="H-reference" style="fill:#27AAE1;stroke:none;" transform="matrix(1 0 0 1 339 1556)">
   <path d="M0.993347 0L3.6377 0L29.3282-67.1326L30.0301-67.1326L30.0301-70.459L28.1227-70.459ZM11.6882-24.4797L46.9818-24.4797L46.2311-26.7288L12.4382-26.7288ZM55.1193 0L57.7637 0L30.6381-70.459L29.4327-70.459L29.4327-67.1326Z"/>
  </g>
  <line id="Baseline-L" style="fill:none;stroke:#27AAE1;opacity:1;stroke-width:0.5;" x1="263" x2="3036" y1="1556" y2="1556"/>
  <line id="Capline-L" style="fill:none;stroke:#27AAE1;opacity:1;stroke-width:0.5;" x1="263" x2="3036" y1="1485.54" y2="1485.54"/>
  <line id="left-margin-Regular-M" style="fill:none;stroke:#00AEEF;stroke-width:0.5;opacity:1.0;" x1="1391.32" x2="1391.32" y1="1030.79" y2="1150.12"/>
  <line id="right-margin-Regular-M" style="fill:none;stroke:#00AEEF;stroke-width:0.5;opacity:1.0;" x1="1508.37" x2="1508.37" y1="1030.79" y2="1150.12"/>
 </g>
 <g id="Symbols">
  <g id="Black-L" transform="matrix(1 0 0 1 2854.19 1556)">
   <path d="M79.1953 32.7252Q93.2356 32.7252 105.521 27.4303Q117.806 22.1354 127.174 12.7571Q136.542 3.37874 141.848-8.90649Q147.154-21.1917 147.154-35.2113Q147.154-49.2309 141.848-61.5161Q136.542-73.8013 127.164-83.1796Q117.785-92.558 105.5-97.8529Q93.2149-103.148 79.1746-103.148Q65.1563-103.148 52.8704-97.8529Q40.5846-92.558 31.2276-83.1796Q21.8707-73.8013 16.5647-61.5161Q11.2588-49.2309 11.2588-35.2113Q11.2588-21.1917 16.5647-8.90649Q21.8707 3.37874 31.238 12.7571Q40.6053 22.1354 52.8912 27.4303Q65.177 32.7252 79.1953 32.7252ZM79.1953 12.5777Q69.2941 12.5777 60.6256 8.86047Q51.9572 5.14327 45.4197-1.40458Q38.8822-7.95243 35.1644-16.6312Q31.4465-25.3101 31.4465-35.2113Q31.4465-45.1125 35.154-53.7913Q38.8615-62.4702 45.399-69.018Q51.9365-75.5659 60.6049-79.2831Q69.2734-83.0003 79.1746-83.0003Q89.0966-83.0003 97.7657-79.2831Q106.435-75.5659 112.982-69.018Q119.529-62.4702 123.257-53.7913Q126.986-45.1125 126.986-35.2113Q126.986-25.3101 123.268-16.6312Q119.551-7.95243 113.014-1.40458Q106.476 5.14327 97.7974 8.86047Q89.1186 12.5777 79.1953 12.5777ZM117.501 6.52422L117.148 4.26886Q113.703-0.331947 108.233-4.12422Q102.764-7.91649 95.4717-10.2016Q88.1799-12.4866 79.1953-12.4866Q70.2314-12.4866 62.9293-10.2022Q55.6271-7.91778 50.1685-4.12551Q44.7099-0.333233 41.2636 4.265L40.9094 6.52422Q47.7238 11.454 54.4207 14.5418Q61.1176 17.6297 67.3984 19.0716Q73.6793 20.5135 79.1966 20.5135Q84.7711 20.5135 91.0311 19.0722Q97.2912 17.6309 104.005 14.5438Q110.719 11.4566 117.501 6.52422ZM79.1953-21.7054Q85.4228-21.6847 90.4141-24.9087Q95.4054-28.1327 98.2992-33.5786Q101.193-39.0245 101.193-45.7408Q101.193-52.0927 98.2693-57.429Q95.3457-62.7652 90.3537-66.0294Q85.3618-69.2936 79.1953-69.2936Q73.0483-69.2936 68.046-66.0294Q63.0437-62.7652 60.12-57.429Q57.1963-52.0927 57.2184-45.7408Q57.2184-39.0245 60.1115-33.5889Q63.0047-28.1534 67.9967-24.9398Q72.9886-21.7262 79.1953-21.7054Z"/>
  </g>
  <g id="Heavy-L" transform="matrix(1 0 0 1 2558.42 1556)">
   <path d="M78.2511 31.7672Q92.088 31.7672 104.202 26.5464Q116.316 21.3256 125.559 12.0677Q134.802 2.8099 140.04-9.30402Q145.279-21.4179 145.279-35.2251Q145.279-49.0322 140.04-61.1461Q134.802-73.2601 125.544-82.5179Q116.286-91.7758 104.172-96.9966Q92.0582-102.217 78.2213-102.217Q64.4202-102.217 52.3033-96.9966Q40.1863-91.7758 30.9613-82.5179Q21.7362-73.2601 16.4975-61.1461Q11.2588-49.0322 11.2588-35.2251Q11.2588-21.4179 16.4975-9.30402Q21.7362 2.8099 30.9761 12.0677Q40.2161 21.3256 52.333 26.5464Q64.45 31.7672 78.2511 31.7672ZM78.2511 14.0252Q68.0447 14.0252 59.1149 10.2016Q50.1851 6.37791 43.4463-0.375708Q36.7076-7.12933 32.8809-16.074Q29.0543-25.0188 29.0543-35.2251Q29.0543-45.4314 32.8661-54.3761Q36.6778-63.3208 43.4166-70.0745Q50.1553-76.8281 59.0851-80.6517Q68.015-84.4754 78.2213-84.4754Q88.4574-84.4754 97.3902-80.6517Q106.323-76.8281 113.074-70.0745Q119.824-63.3208 123.666-54.3761Q127.507-45.4314 127.507-35.2251Q127.507-25.0188 123.684-16.074Q119.86-7.12933 113.121-0.375708Q106.383 6.37791 97.4379 10.2016Q88.4932 14.0252 78.2511 14.0252ZM117.675 6.43398L117.369 4.55647Q114.35-0.0391242 108.802-3.99229Q103.254-7.94545 95.5475-10.3871Q87.8408-12.8288 78.2511-12.8288Q68.6911-12.8288 60.9695-10.3901Q53.2478-7.95149 47.7179-3.99832Q42.188-0.0451597 39.1629 4.53836L38.8505 6.43398Q45.384 11.5339 52.3105 14.8337Q59.2371 18.1335 65.8849 19.7368Q72.5326 21.3401 78.2571 21.3401Q84.0202 21.3401 90.6515 19.7398Q97.2828 18.1396 104.208 14.8428Q111.133 11.546 117.675 6.43398ZM78.2511-22.3974Q84.4462-22.3677 89.4097-25.571Q94.3732-28.7743 97.2623-34.204Q100.151-39.6338 100.151-46.3681Q100.151-52.7153 97.2369-58.0423Q94.3225-63.3693 89.356-66.6128Q84.3895-69.8563 78.2511-69.8563Q72.1364-69.8563 67.155-66.6128Q62.1736-63.3693 59.2592-58.0423Q56.3448-52.7153 56.3806-46.3681Q56.3806-39.6338 59.2666-34.2189Q62.1527-28.804 67.1192-25.6156Q72.0857-22.4272 78.2511-22.3974Z"/>
  </g>
  <g id="Bold-L" transform="matrix(1 0 0 1 2262.89 1556)">
   <path d="M77.0653 30.566Q90.6516 30.566 102.549 25.4396Q114.447 20.3133 123.533 11.2089Q132.619 2.10448 137.771-9.79333Q142.923-21.6912 142.923-35.2405Q142.923-48.7898 137.771-60.6877Q132.619-72.5855 123.515-81.6899Q114.41-90.7942 102.512-95.9206Q90.6146-101.047 77.0283-101.047Q63.4932-101.047 51.5882-95.9206Q39.6833-90.7942 30.623-81.6899Q21.5627-72.5855 16.4108-60.6877Q11.2588-48.7898 11.2588-35.2405Q11.2588-21.6912 16.4108-9.79333Q21.5627 2.10448 30.6415 11.2089Q39.7203 20.3133 51.6252 25.4396Q63.5301 30.566 77.0653 30.566ZM77.0653 15.8201Q66.4831 15.8201 57.2278 11.8629Q47.9725 7.90583 40.9827 0.897553Q33.9929-6.11072 30.0287-15.3845Q26.0645-24.6583 26.0645-35.2405Q26.0645-45.8227 30.0102-55.0965Q33.9559-64.3703 40.9457-71.3786Q47.9355-78.3868 57.1908-82.3439Q66.4461-86.3011 77.0283-86.3011Q87.6474-86.3011 96.9099-82.3439Q106.172-78.3868 113.173-71.3786Q120.175-64.3703 124.157-55.0965Q128.14-45.8227 128.14-35.2405Q128.14-24.6583 124.183-15.3845Q120.226-6.11072 113.236 0.897553Q106.246 7.90583 96.9725 11.8629Q87.6986 15.8201 77.0653 15.8201ZM117.701 6.27836L117.458 4.84366Q114.89 0.265415 109.253-3.86917Q103.616-8.00375 95.4611-10.6278Q87.306-13.2518 77.0653-13.2518Q66.8615-13.2518 58.6879-10.6349Q50.5143-8.01797 44.9032-3.88339Q39.2921 0.251189 36.7093 4.80098L36.4523 6.27836Q42.6601 11.5715 49.7989 15.12Q56.9377 18.6684 63.9845 20.4623Q71.0313 22.2561 77.0795 22.2561Q83.1427 22.2561 90.172 20.4694Q97.2013 18.6826 104.315 15.1413Q111.428 11.6 117.701 6.27836ZM77.0653-23.2233Q83.2214-23.1863 88.1494-26.3665Q93.0775-29.5467 95.9584-34.9569Q98.8393-40.3671 98.8393-47.116Q98.8393-53.4549 95.9367-58.7701Q93.0341-64.0853 88.0989-67.3057Q83.1637-70.5261 77.0653-70.5261Q70.9896-70.5261 66.0359-67.3057Q61.0822-64.0853 58.1796-58.7701Q55.277-53.4549 55.3282-47.116Q55.3282-40.3671 58.202-34.9754Q61.0758-29.5837 66.011-26.422Q70.9462-23.2603 77.0653-23.2233Z"/>
  </g>
  <g id="Semibold-L" transform="matrix(1 0 0 1 1966.99 1556)">
   <path d="M76.2478 29.7379Q89.6614 29.7379 101.41 24.6766Q113.159 19.6153 122.137 10.6168Q131.114 1.61818 136.206-10.1307Q141.299-21.8795 141.299-35.2511Q141.299-48.6228 136.206-60.3716Q131.114-72.1204 122.116-81.119Q113.117-90.1176 101.368-95.1789Q89.6194-100.24 76.2058-100.24Q62.854-100.24 51.0953-95.1789Q39.3365-90.1176 30.3898-81.119Q21.4432-72.1204 16.351-60.3716Q11.2588-48.6228 11.2588-35.2511Q11.2588-21.8795 16.351-10.1307Q21.4432 1.61818 30.4108 10.6168Q39.3785 19.6153 51.1372 24.6766Q62.896 29.7379 76.2478 29.7379ZM76.2478 17.0574Q65.4065 17.0574 55.9268 13.0083Q46.4471 8.95916 39.2843 1.77533Q32.1214-5.4085 28.0624-14.9092Q24.0033-24.4099 24.0033-35.2511Q24.0033-46.0924 28.0414-55.5931Q32.0795-65.0938 39.2423-72.2776Q46.4052-79.4614 55.8848-83.5105Q65.3645-87.5597 76.2058-87.5597Q87.089-87.5597 96.5787-83.5105Q106.068-79.4614 113.242-72.2776Q120.416-65.0938 124.496-55.5931Q128.576-46.0924 128.576-35.2511Q128.576-24.4099 124.527-14.9092Q120.478-5.4085 113.315 1.77533Q106.152 8.95916 96.6516 13.0083Q87.1509 17.0574 76.2478 17.0574ZM117.719 6.17108L117.52 5.04165Q115.262 0.475362 109.564-3.78429Q103.866-8.04394 95.4015-10.7937Q86.9373-13.5435 76.2478-13.5435Q65.6002-13.5435 57.115-10.8037Q48.6298-8.06381 42.9627-3.80416Q37.2956 0.45549 35.0179 4.98204L34.7991 6.17108Q40.7823 11.5975 48.0674 15.3173Q55.3526 19.0371 62.6744 20.9624Q69.9962 22.8876 76.2677 22.8876Q82.5378 22.8876 89.8415 20.9723Q97.1452 19.057 104.389 15.3471Q111.632 11.6372 117.719 6.17108ZM76.2478-23.7927Q82.377-23.7507 87.2806-26.9149Q92.1843-30.0792 95.0595-35.4759Q97.9348-40.8727 97.9348-47.6315Q97.9348-53.9648 95.0403-59.2719Q92.1459-64.5789 87.2323-67.7834Q82.3187-70.9878 76.2478-70.9878Q70.199-70.9878 65.2644-67.7834Q60.3298-64.5789 57.4354-59.2719Q54.5409-53.9648 54.6027-47.6315Q54.6027-40.8727 57.4681-35.4969Q60.3334-30.1211 65.247-26.9779Q70.1606-23.8346 76.2478-23.7927Z"/>
  </g>
  <g id="Medium-L" transform="matrix(1 0 0 1 1670.9 1556)">
   <path d="M75.6279 29.11Q88.9106 29.11 100.546 24.0981Q112.182 19.0862 121.078 10.1678Q129.973 1.24944 135.02-10.3864Q140.067-22.0223 140.067-35.2592Q140.067-48.4961 135.02-60.1319Q129.973-71.7678 121.055-80.6862Q112.137-89.6045 100.501-94.6164Q88.8648-99.6283 75.5822-99.6283Q62.3695-99.6283 50.7215-94.6164Q39.0736-89.6045 30.213-80.6862Q21.3525-71.7678 16.3056-60.1319Q11.2588-48.4961 11.2588-35.2592Q11.2588-22.0223 16.3056-10.3864Q21.3525 1.24944 30.2359 10.1678Q39.1193 19.0862 50.7673 24.0981Q62.4152 29.11 75.6279 29.11ZM75.6279 17.9956Q64.5902 17.9956 54.9404 13.8767Q45.2905 9.75784 37.9965 2.4409Q30.7024-4.87605 26.5714-14.5488Q22.4405-24.2215 22.4405-35.2592Q22.4405-46.2969 26.5486-55.9696Q30.6567-65.6423 37.9507-72.9593Q45.2448-80.2762 54.8946-84.3951Q64.5445-88.514 75.5822-88.514Q86.6657-88.514 96.3276-84.3951Q105.989-80.2762 113.294-72.9593Q120.599-65.6423 124.753-55.9696Q128.907-46.2969 128.907-35.2592Q128.907-24.2215 124.788-14.5488Q120.669-4.87605 113.375 2.4409Q106.081 9.75784 96.4083 13.8767Q86.7356 17.9956 75.6279 17.9956ZM117.732 6.08973L117.566 5.19178Q115.544 0.634553 109.799-3.71993Q104.055-8.07441 95.3563-10.9195Q86.6577-13.7646 75.6279-13.7646Q64.6439-13.7646 55.9224-10.9316Q47.2009-8.09856 41.4914-3.74408Q35.7819 0.610399 33.7353 5.11932L33.5455 6.08973Q39.3584 11.6171 46.7545 15.4669Q54.1506 19.3167 61.681 21.3416Q69.2114 23.3664 75.6521 23.3664Q82.0791 23.3664 89.5909 21.3537Q97.1027 19.3409 104.445 15.5031Q111.787 11.6654 117.732 6.08973ZM75.6279-24.2244Q81.7367-24.1786 86.6219-27.3308Q91.507-30.4829 94.378-35.8695Q97.249-41.256 97.249-48.0224Q97.249-54.3514 94.3607-59.6523Q91.4724-64.9532 86.5751-68.1456Q81.6779-71.3379 75.6279-71.3379Q69.5996-71.3379 64.6795-68.1456Q59.7593-64.9532 56.8711-59.6523Q53.9828-54.3514 54.0527-48.0224Q54.0527-41.256 56.9115-35.8924Q59.7704-30.5287 64.6677-27.3994Q69.5649-24.2701 75.6279-24.2244Z"/>
  </g>
  <g id="Regular-L" transform="matrix(1 0 0 1 1374.99 1556)">
   <path d="M74.8194 28.2909Q87.9312 28.2909 99.4198 23.3434Q110.908 18.3959 119.697 9.58221Q128.485 0.768476 133.473-10.7201Q138.46-22.2086 138.46-35.2697Q138.46-48.3308 133.473-59.8193Q128.485-71.3079 119.671-80.1216Q110.858-88.9353 99.3691-93.8828Q87.8805-98.8303 74.7687-98.8303Q61.7374-98.8303 50.234-93.8828Q38.7306-88.9353 29.9824-80.1216Q21.2342-71.3079 16.2465-59.8193Q11.2588-48.3308 11.2588-35.2697Q11.2588-22.2086 16.2465-10.7201Q21.2342 0.768476 30.0077 9.58221Q38.7813 18.3959 50.2847 23.3434Q61.7881 28.2909 74.8194 28.2909ZM74.8194 19.2194Q63.5255 19.2194 53.6537 15.0095Q43.7819 10.7996 36.3167 3.30903Q28.8515-4.18154 24.6267-14.0786Q20.402-23.9757 20.402-35.2697Q20.402-46.5637 24.6014-56.4608Q28.8008-66.3579 36.266-73.8484Q43.7313-81.339 53.603-85.5489Q63.4748-89.7588 74.7687-89.7588Q86.1134-89.7588 96-85.5489Q105.887-81.339 113.362-73.8484Q120.838-66.3579 125.088-56.4608Q129.338-46.5637 129.338-35.2697Q129.338-23.9757 125.128-14.0786Q120.918-4.18154 113.453 3.30903Q105.988 10.7996 96.0909 15.0095Q86.1938 19.2194 74.8194 19.2194ZM117.749 5.98362L117.627 5.38759Q115.912 0.842194 110.107-3.63598Q104.302-8.11416 95.2974-11.0836Q86.2931-14.0531 74.8194-14.0531Q63.3964-14.0531 54.3668-11.0985Q45.3372-8.14389 39.5723-3.66572Q33.8074 0.812455 32.0624 5.29838L31.9104 5.98362Q37.5012 11.6428 45.0421 15.6621Q52.5829 19.6814 60.3853 21.8362Q68.1877 23.991 74.8492 23.991Q81.4809 23.991 89.264 21.8511Q97.0472 19.7111 104.518 15.7067Q111.989 11.7022 117.749 5.98362ZM74.8194-24.7875Q80.9016-24.7368 85.7626-27.8732Q90.6236-31.0095 93.489-36.3828Q96.3544-41.7561 96.3544-48.5323Q96.3544-54.8557 93.4741-60.1486Q90.5939-65.4414 85.718-68.618Q80.8421-71.7946 74.8194-71.7946Q68.8177-71.7946 63.9165-68.618Q59.0152-65.4414 56.135-60.1486Q53.2547-54.8557 53.3352-48.5323Q53.3352-41.7561 56.1857-36.4081Q59.0362-31.0602 63.9121-27.9492Q68.7879-24.8381 74.8194-24.7875Z"/>
  </g>
  <g id="Light-L" transform="matrix(1 0 0 1 1079.2 1556)">
   <path d="M73.8959 27.3674Q86.8436 27.3674 98.1577 22.502Q109.472 17.6366 118.137 8.95629Q126.802 0.275949 131.708-11.0381Q136.614-22.3522 136.614-35.2697Q136.614-48.1872 131.708-59.5013Q126.802-70.8154 118.122-79.4957Q109.442-88.176 98.1275-93.0414Q86.8134-97.9069 73.8658-97.9069Q60.9986-97.9069 49.6594-93.0414Q38.3201-88.176 29.6951-79.4957Q21.07-70.8154 16.1644-59.5013Q11.2588-48.1872 11.2588-35.2697Q11.2588-22.3522 16.1644-11.0381Q21.07 0.275949 29.7102 8.95629Q38.3503 17.6366 49.6895 22.502Q61.0287 27.3674 73.8959 27.3674ZM73.8959 20.4712Q62.3557 20.4712 52.2479 16.1587Q42.1402 11.8462 34.4903 4.18122Q26.8403-3.48379 22.5027-13.6066Q18.1651-23.7295 18.1651-35.2697Q18.1651-46.8099 22.4876-56.9328Q26.8102-67.0556 34.4601-74.7206Q42.11-82.3856 52.2178-86.6981Q62.3255-91.0106 73.8658-91.0106Q85.4362-91.0106 95.5691-86.6981Q105.702-82.3856 113.342-74.7206Q120.982-67.0556 125.334-56.9328Q129.687-46.8099 129.687-35.2697Q129.687-23.7295 125.375-13.6066Q121.062-3.48379 113.412 4.18122Q105.762 11.8462 95.6394 16.1587Q85.5166 20.4712 73.8959 20.4712ZM116.539 5.59371L116.498 5.14133Q114.599 0.678018 108.783-3.81042Q102.968-8.29885 94.0763-11.3196Q85.1849-14.3404 73.8959-14.3404Q62.6371-14.3404 53.7306-11.3448Q44.8241-8.34911 39.0489-3.86068Q33.2738 0.627758 31.3236 4.99055L31.2331 5.59371Q36.7419 11.2734 43.9647 15.3748Q51.1874 19.4762 58.9077 21.7028Q66.628 23.9294 73.9462 23.9294Q81.2141 23.9294 88.8741 21.7279Q96.5341 19.5264 103.666 15.4502Q110.799 11.3739 116.539 5.59371ZM73.8959-25.1569Q79.9576-25.1267 84.7878-28.2631Q89.618-31.3995 92.4629-36.7625Q95.3078-42.1255 95.3078-48.8606Q95.3078-55.1636 92.4378-60.4461Q89.5678-65.7287 84.7124-68.9053Q79.8571-72.0819 73.8959-72.0819Q67.9147-72.0819 63.0443-68.9053Q58.1738-65.7287 55.3039-60.4461Q52.4339-55.1636 52.5143-48.8606Q52.5143-42.1255 55.334-36.7775Q58.1537-31.4296 63.0091-28.3083Q67.8644-25.187 73.8959-25.1569Z"/>
  </g>
  <g id="Thin-L" transform="matrix(1 0 0 1 783.716 1556)">
   <path d="M72.6746 26.1461Q85.405 26.1461 96.4884 21.3892Q107.572 16.6324 116.074 8.12846Q124.577-0.375458 129.374-11.4588Q134.171-22.5422 134.171-35.2697Q134.171-47.9972 129.374-59.0806Q124.577-70.1639 116.073-78.6679Q107.569-87.1718 96.4854-91.9286Q85.402-96.6855 72.6715-96.6855Q60.0215-96.6855 48.8994-91.9286Q37.7773-87.1718 29.3151-78.6679Q20.8529-70.1639 16.0558-59.0806Q11.2588-47.9972 11.2588-35.2697Q11.2588-22.5422 16.0558-11.4588Q20.8529-0.375458 29.3166 8.12846Q37.7803 16.6324 48.9024 21.3892Q60.0245 26.1461 72.6746 26.1461ZM72.6746 22.1269Q60.8086 22.1269 50.3887 17.6787Q39.9688 13.2305 32.0746 5.33475Q24.1804-2.56097 19.6935-12.9824Q15.2066-23.4038 15.2066-35.2697Q15.2066-47.1356 19.692-57.557Q24.1774-67.9784 32.0716-75.8742Q39.9658-83.7699 50.3857-88.2181Q60.8056-92.6663 72.6715-92.6663Q84.5405-92.6663 94.9991-88.2181Q105.458-83.7699 113.315-75.8742Q121.172-67.9784 125.66-57.557Q130.149-47.1356 130.149-35.2697Q130.149-23.4038 125.7-12.9824Q121.252-2.56097 113.358 5.33475Q105.464 13.2305 95.0423 17.6787Q84.6209 22.1269 72.6746 22.1269ZM114.937 5.07801L115.006 4.81563Q112.861 0.460882 107.032-4.04112Q101.204-8.54313 92.4614-11.6318Q83.7192-14.7204 72.6746-14.7204Q61.6329-14.7204 52.8892-11.6705Q44.1456-8.62053 38.3568-4.11853Q32.5681 0.38348 30.3465 4.58342L30.3375 5.07801Q35.7377 10.7848 42.5397 14.9948Q49.3418 19.2048 56.9535 21.5264Q64.5653 23.848 72.752 23.848Q80.8612 23.848 88.3584 21.5651Q95.8556 19.2822 102.54 15.1109Q109.224 10.9396 114.937 5.07801ZM72.6746-25.6454Q78.7091-25.6424 83.4986-28.7788Q88.2881-31.9152 91.1058-37.2646Q93.9235-42.614 93.9235-49.2949Q93.9235-55.5707 91.0671-60.8397Q88.2107-66.1087 83.3825-69.2853Q78.5543-72.4619 72.6746-72.4619Q66.7205-72.4619 61.8907-69.2853Q57.061-66.1087 54.2046-60.8397Q51.3482-55.5707 51.4286-49.2949Q51.4286-42.614 54.2076-37.2661Q56.9866-31.9182 61.8148-28.7833Q66.6431-25.6484 72.6746-25.6454Z"/>
  </g>
  <g id="Ultralight-L" transform="matrix(1 0 0 1 487.631 1556)">
   <path d="M72.049 25.5205Q84.6682 25.5205 95.6335 20.8192Q106.599 16.118 115.018 7.70445Q123.437-0.709105 128.178-11.6743Q132.92-22.6395 132.92-35.2697Q132.92-47.8999 128.178-58.8651Q123.437-69.8303 115.023-78.2439Q106.61-86.6574 95.6443-91.3586Q84.6791-96.0599 72.0598-96.0599Q59.521-96.0599 48.5101-91.3586Q37.4993-86.6574 29.1205-78.2439Q20.7417-69.8303 16.0002-58.8651Q11.2588-47.8999 11.2588-35.2697Q11.2588-22.6395 16.0002-11.6743Q20.7417-0.709105 29.115 7.70445Q37.4884 16.118 48.4992 20.8192Q59.5101 25.5205 72.049 25.5205ZM72.049 22.9749Q60.0162 22.9749 49.4364 18.4572Q38.8567 13.9395 30.8374 5.92558Q22.818-2.0883 18.2546-12.6626Q13.6913-23.2369 13.6913-35.2697Q13.6913-47.3025 18.2601-57.8768Q22.8289-68.4511 30.8482-76.465Q38.8676-84.4789 49.4473-88.9966Q60.0271-93.5143 72.0598-93.5143Q84.0817-93.5143 94.7071-88.9966Q105.333-84.4789 113.301-76.465Q121.269-68.4511 125.827-57.8768Q130.385-47.3025 130.385-35.2697Q130.385-23.2369 125.867-12.6626Q121.349-2.0883 113.33 5.92558Q105.311 13.9395 94.7365 18.4572Q84.1621 22.9749 72.049 22.9749ZM114.117 4.81387L114.241 4.6488Q111.972 0.349667 106.136-4.15929Q100.3-8.66825 91.6342-11.7916Q82.9685-14.915 72.049-14.915Q61.1185-14.915 52.4583-11.8373Q43.798-8.75955 38.0023-4.2506Q32.2066 0.258362 29.846 4.37489L29.8787 4.81387Q35.2233 10.5346 41.8099 14.8002Q48.3964 19.0657 55.9526 21.436Q63.5087 23.8063 72.1403 23.8063Q80.6805 23.8063 88.0943 21.4817Q95.508 19.157 101.963 14.9371Q108.418 10.7172 114.117 4.81387ZM72.049-25.8957Q78.0696-25.9065 82.8382-29.0429Q87.6069-32.1793 90.4107-37.5218Q93.2145-42.8643 93.2145-49.5173Q93.2145-55.7792 90.3651-61.0413Q87.5156-66.3033 82.7013-69.4799Q77.887-72.6565 72.049-72.6565Q66.1088-72.6565 61.2999-69.4799Q56.491-66.3033 53.6416-61.0413Q50.7921-55.7792 50.8725-49.5173Q50.8725-42.8643 53.6307-37.5163Q56.3888-32.1684 61.2032-29.0266Q66.0175-25.8848 72.049-25.8957Z"/>
  </g>
  <g id="Black-M" transform="matrix(1 0 0 1 2871.36 1126)">
   <path d="M62.0423 18.1161Q73.0725 18.1161 82.714 13.9613Q92.3555 9.80654 99.704 2.45531Q107.052-4.89592 111.21-14.5374Q115.367-24.1789 115.367-35.2035Q115.367-46.2282 111.21-55.8697Q107.052-65.5112 99.7012-72.8624Q92.35-80.2136 82.7085-84.3684Q73.067-88.5232 62.0368-88.5232Q51.0119-88.5232 41.3705-84.3684Q31.7292-80.2136 24.3833-72.8624Q17.0375-65.5112 12.8801-55.8697Q8.72266-46.2282 8.72266-35.2035Q8.72266-24.1789 12.8801-14.5374Q17.0375-4.89592 24.3861 2.45531Q31.7347 9.80654 41.376 13.9613Q51.0174 18.1161 62.0423 18.1161ZM62.0423 0.734266Q54.6003 0.734266 48.0771-2.06802Q41.554-4.87031 36.637-9.78999Q31.7201-14.7097 28.918-21.2356Q26.1159-27.7615 26.1159-35.2035Q26.1159-42.6456 28.9152-49.1715Q31.7146-55.6974 36.6315-60.6171Q41.5485-65.5368 48.0716-68.3391Q54.5948-71.1414 62.0368-71.1414Q69.4844-71.1414 76.0074-68.3391Q82.5304-65.5368 87.4502-60.6171Q92.3701-55.6974 95.175-49.1715Q97.9799-42.6456 97.9799-35.2035Q97.9799-27.7615 95.1776-21.2356Q92.3753-14.7097 87.4584-9.78999Q82.5414-4.87031 76.0155-2.06802Q69.4896 0.734266 62.0423 0.734266ZM90.7185-2.85642L90.4162-4.90901Q87.3562-8.4668 83.1844-11.268Q79.0127-14.0691 73.7354-15.7118Q68.458-17.3545 62.0423-17.3545Q55.6322-17.3545 50.3521-15.7116Q45.072-14.0688 40.9028-11.2676Q36.7337-8.4665 33.674-4.9081L33.372-2.85642Q38.8816 0.819443 43.8296 3.04065Q48.7775 5.26187 53.317 6.25006Q57.8565 7.23825 62.042 7.23825Q66.2849 7.23825 70.7991 6.24991Q75.3133 5.26156 80.2875 3.0402Q85.2617 0.818835 90.7185-2.85642ZM62.0423-24.2072Q66.892-24.2017 70.7787-26.7172Q74.6654-29.2327 76.9086-33.4644Q79.1519-37.6961 79.1519-42.8784Q79.1519-47.8007 76.8802-51.9416Q74.6086-56.0824 70.722-58.629Q66.8355-61.1757 62.0423-61.1757Q57.255-61.1757 53.3657-58.629Q49.4764-56.0824 47.2047-51.9416Q44.9331-47.8007 44.9383-42.8784Q44.9383-37.6961 47.1817-33.4671Q49.4251-29.2382 53.3117-26.7255Q57.1982-24.2127 62.0423-24.2072Z"/>
  </g>
  <g id="Heavy-M" transform="matrix(1 0 0 1 2575.48 1126)">
   <path d="M61.2045 17.2648Q72.0509 17.2648 81.541 13.1749Q91.0312 9.08498 98.2688 1.83921Q105.506-5.40657 109.606-14.8967Q113.705-24.3868 113.705-35.217Q113.705-46.0473 109.606-55.5374Q105.506-65.0275 98.2607-72.2733Q91.0149-79.519 81.5248-83.6089Q72.0347-87.6988 61.1882-87.6988Q50.3604-87.6988 40.8691-83.6089Q31.3778-79.519 24.1495-72.2733Q16.9211-65.0275 12.8219-55.5374Q8.72266-46.0473 8.72266-35.217Q8.72266-24.3868 12.8219-14.8967Q16.9211-5.40657 24.1576 1.83921Q31.394 9.08498 40.8853 13.1749Q50.3767 17.2648 61.2045 17.2648ZM61.2045 2.03385Q53.4869 2.03385 46.73-0.86303Q39.9731-3.75991 34.8765-8.86466Q29.7798-13.9694 26.8817-20.7344Q23.9836-27.4994 23.9836-35.217Q23.9836-42.9346 26.8736-49.6996Q29.7636-56.4646 34.8602-61.5694Q39.9568-66.6741 46.7137-69.571Q53.4706-72.4679 61.1882-72.4679Q68.922-72.4679 75.6802-69.571Q82.4383-66.6741 87.5418-61.5694Q92.6453-56.4646 95.5516-49.6996Q98.4578-42.9346 98.4578-35.217Q98.4578-27.4994 95.5609-20.7344Q92.664-13.9694 87.5674-8.86466Q82.4708-3.75991 75.7057-0.86303Q68.9407 2.03385 61.2045 2.03385ZM91.001-2.90866L90.7366-4.60513Q88.11-8.1654 83.8628-11.1229Q79.6155-14.0804 73.9221-15.8714Q68.2287-17.6625 61.2045-17.6625Q54.1964-17.6625 48.4949-15.8726Q42.7934-14.0828 38.5555-11.1253Q34.3176-8.16785 31.6885-4.61247L31.4217-2.90866Q36.6644 0.931653 41.8661 3.35251Q47.0679 5.77336 51.9737 6.91266Q56.8795 8.05196 61.2069 8.05196Q65.5755 8.05196 70.4639 6.91388Q75.3524 5.77581 80.5642 3.35617Q85.7759 0.936542 91.001-2.90866ZM61.2045-24.8496Q66.0244-24.8333 69.8868-27.3286Q73.7491-29.824 75.9896-34.0408Q78.2302-38.2576 78.2302-43.4613Q78.2302-48.381 75.9666-52.5137Q73.7031-56.6464 69.8395-59.1728Q65.9759-61.6993 61.2045-61.6993Q56.4468-61.6993 52.5751-59.1728Q48.7034-56.6464 46.4399-52.5137Q44.1763-48.381 44.195-43.4613Q44.195-38.2576 46.4343-34.0489Q48.6736-29.8402 52.5372-27.353Q56.4007-24.8658 61.2045-24.8496Z"/>
  </g>
  <g id="Bold-M" transform="matrix(1 0 0 1 2279.69 1126)">
   <path d="M60.2672 16.3124Q70.9082 16.3124 80.2289 12.2951Q89.5497 8.27781 96.6634 1.15Q103.777-5.9778 107.811-15.2986Q111.845-24.6193 111.845-35.2321Q111.845-45.8449 107.811-55.1656Q103.777-64.4864 96.6493-71.6142Q89.5215-78.742 80.2007-82.7593Q70.8799-86.7766 60.2389-86.7766Q49.6317-86.7766 40.3082-82.7593Q30.9846-78.742 23.8878-71.6142Q16.791-64.4864 12.7568-55.1656Q8.72266-45.8449 8.72266-35.2321Q8.72266-24.6193 12.7568-15.2986Q16.791-5.9778 23.902 1.15Q31.0129 8.27781 40.3364 12.2951Q49.6599 16.3124 60.2672 16.3124ZM60.2672 3.48763Q52.2414 3.48763 45.223 0.484927Q38.2046-2.51777 32.907-7.82954Q27.6093-13.1413 24.6039-20.1738Q21.5984-27.2063 21.5984-35.2321Q21.5984-43.2579 24.5897-50.2904Q27.5811-57.3229 32.8787-62.6347Q38.1764-67.9464 45.1948-70.9491Q52.2131-73.9518 60.2389-73.9518Q68.293-73.9518 75.3141-70.9491Q82.3352-67.9464 87.6443-62.6347Q92.9533-57.3229 95.9728-50.2904Q98.9924-43.2579 98.9924-35.2321Q98.9924-27.2063 95.9897-20.1738Q92.987-13.1413 87.6894-7.82954Q82.3917-2.51777 75.3592 0.484927Q68.3267 3.48763 60.2672 3.48763ZM91.317-2.9671L91.095-4.2652Q88.9532-7.82825 84.6216-10.9606Q80.2899-14.093 74.131-16.05Q67.9722-18.007 60.2672-18.007Q52.5904-18.007 46.4174-16.0528Q40.2445-14.0985 35.9297-10.9661Q31.6149-7.83377 29.4675-4.28177L29.2401-2.9671Q34.1841 1.05717 39.6697 3.70136Q45.1554 6.34554 50.471 7.65388Q55.7866 8.96221 60.2727 8.96221Q64.7818 8.96221 70.089 7.65664Q75.3961 6.35106 80.8737 3.70964Q86.3512 1.06822 91.317-2.9671ZM60.2672-25.5682Q65.0539-25.5399 68.889-28.0126Q72.7242-30.4853 74.9616-34.6855Q77.1991-38.8857 77.1991-44.1135Q77.1991-49.03 74.9446-53.1537Q72.6901-57.2773 68.8522-59.7811Q65.0143-62.285 60.2672-62.285Q55.5427-62.285 51.6907-59.7811Q47.8387-57.2773 45.5843-53.1537Q43.3298-49.03 43.3635-44.1135Q43.3635-38.8857 45.5982-34.6996Q47.8329-30.5136 51.6708-28.055Q55.5087-25.5964 60.2672-25.5682Z"/>
  </g>
  <g id="Semibold-M" transform="matrix(1 0 0 1 1983.62 1126)">
   <path d="M59.621 15.6559Q70.1203 15.6559 79.3244 11.6886Q88.5284 7.72135 95.5566 0.674869Q102.585-6.37161 106.574-15.5756Q110.564-24.7797 110.564-35.2425Q110.564-45.7053 106.574-54.9093Q102.585-64.1134 95.5384-71.1598Q88.4919-78.2063 79.2879-82.1736Q70.0838-86.1408 59.5845-86.1408Q49.1293-86.1408 39.9215-82.1736Q30.7136-78.2063 23.7075-71.1598Q16.7013-64.1134 12.712-54.9093Q8.72266-45.7053 8.72266-35.2425Q8.72266-24.7797 12.712-15.5756Q16.7013-6.37161 23.7257 0.674869Q30.7501 7.72135 39.958 11.6886Q49.1658 15.6559 59.621 15.6559ZM59.621 4.48985Q51.3827 4.48985 44.1841 1.4142Q36.9855-1.66145 31.5492-7.11594Q26.113-12.5704 23.0335-19.7873Q19.954-27.0042 19.954-35.2425Q19.954-43.4808 23.0153-50.6977Q26.0765-57.9145 31.5127-63.369Q36.9489-68.8235 44.1476-71.8992Q51.3462-74.9748 59.5845-74.9748Q67.8593-74.9748 75.0618-71.8992Q82.2642-68.8235 87.7149-63.369Q93.1655-57.9145 96.2633-50.6977Q99.361-43.4808 99.361-35.2425Q99.361-27.0042 96.2853-19.7873Q93.2097-12.5704 87.7735-7.11594Q82.3372-1.66145 75.1203 1.4142Q67.9035 4.48985 59.621 4.48985ZM91.5348-3.00738L91.3421-4.03086Q89.5346-7.59581 85.1447-10.8487Q80.7548-14.1017 74.2751-16.1731Q67.7954-18.2445 59.621-18.2445Q51.4832-18.2445 44.9852-16.1769Q38.4873-14.1093 34.1194-10.8564Q29.7516-7.60345 27.9364-4.05378L27.7361-3.00738Q32.4741 1.14371 38.1556 3.94186Q43.837 6.74 49.4351 8.16487Q55.0331 9.58974 59.6287 9.58974Q64.2347 9.58974 69.8305 8.16869Q75.4262 6.74764 81.087 3.95332Q86.7478 1.15899 91.5348-3.00738ZM59.621-26.0635Q64.3848-26.027 68.2012-28.4842Q72.0176-30.9413 74.2529-35.13Q76.4882-39.3188 76.4882-44.5631Q76.4882-49.4775 74.24-53.5949Q71.9918-57.7122 68.1716-60.2005Q64.3514-62.6888 59.621-62.6888Q54.9195-62.6888 51.0811-60.2005Q47.2426-57.7122 44.9944-53.5949Q42.7462-49.4775 42.7903-44.5631Q42.7903-39.3188 45.0218-35.1483Q47.2533-30.9778 51.0735-28.5389Q54.8937-26.1001 59.621-26.0635Z"/>
  </g>
  <g id="Medium-M" transform="matrix(1 0 0 1 1687.4 1126)">
   <path d="M59.1311 15.158Q69.523 15.158 78.6385 11.2287Q87.754 7.29942 94.7174 0.314603Q101.681-6.67021 105.636-15.7857Q109.591-24.9012 109.591-35.2504Q109.591-45.5995 105.636-54.715Q101.681-63.8305 94.696-70.8153Q87.7112-77.8002 78.5957-81.7295Q69.4802-85.6588 59.0883-85.6588Q48.7484-85.6588 39.6283-81.7295Q30.5081-77.8002 23.5707-70.8153Q16.6333-63.8305 12.678-54.715Q8.72266-45.5995 8.72266-35.2504Q8.72266-24.9012 12.678-15.7857Q16.6333-6.67021 23.5921 0.314603Q30.5509 7.29942 39.671 11.2287Q48.7912 15.158 59.1311 15.158ZM59.1311 5.24978Q50.7316 5.24978 43.3963 2.11881Q36.061-1.01215 30.5197-6.57486Q24.9784-12.1376 21.8428-19.4943Q18.7072-26.8509 18.7072-35.2504Q18.7072-43.6498 21.8214-51.0065Q24.9356-58.3632 30.4769-63.9259Q36.0183-69.4886 43.3536-72.6195Q50.6889-75.7505 59.0883-75.7505Q67.5305-75.7505 74.8704-72.6195Q82.2103-69.4886 87.7684-63.9259Q93.3265-58.3632 96.4835-51.0065Q99.6405-43.6498 99.6405-35.2504Q99.6405-26.8509 96.5095-19.4943Q93.3785-12.1376 87.8372-6.57486Q82.2959-1.01215 74.9392 2.11881Q67.5825 5.24978 59.1311 5.24978ZM91.7-3.03793L91.5295-3.85317Q89.9753-7.41957 85.5413-10.7639Q81.1073-14.1083 74.3843-16.2664Q67.6613-18.4246 59.1311-18.4246Q50.6436-18.4246 43.8992-16.2711Q37.1549-14.1175 32.7468-10.7732Q28.3388-7.42882 26.7754-3.88091L26.5957-3.03793Q31.1776 1.20932 37.0075 4.12421Q42.8373 7.0391 48.6496 8.55233Q54.4618 10.0656 59.1403 10.0656Q63.8198 10.0656 69.6344 8.55695Q75.4491 7.04835 81.2488 4.13808Q87.0486 1.22782 91.7-3.03793ZM59.1311-26.4392Q63.8775-26.3964 67.6797-28.8417Q71.4818-31.287 73.7155-35.4671Q75.9492-39.6471 75.9492-44.904Q75.9492-49.8168 73.7057-53.9294Q71.4623-58.042 67.6555-60.5185Q63.8488-62.9949 59.1311-62.9949Q54.4469-62.9949 50.6188-60.5185Q46.7906-58.042 44.5471-53.9294Q42.3037-49.8168 42.3557-44.904Q42.3557-39.6471 44.5848-35.4884Q46.8139-31.3298 50.6206-28.9059Q54.4274-26.4819 59.1311-26.4392Z"/>
  </g>
  <g id="Regular-M" transform="matrix(1 0 0 1 1391.32 1126)">
   <path d="M58.492 14.5087Q68.7438 14.5087 77.7439 10.6289Q86.7439 6.74907 93.6228-0.155309Q100.502-7.05969 104.413-16.0597Q108.324-25.0598 108.324-35.2606Q108.324-45.4615 104.413-54.4616Q100.502-63.4616 93.5973-70.366Q86.693-77.2704 77.6929-81.1502Q68.6929-85.03 58.441-85.03Q48.2515-85.03 39.2458-81.1502Q30.2401-77.2704 23.3923-70.366Q16.5446-63.4616 12.6336-54.4616Q8.72266-45.4615 8.72266-35.2606Q8.72266-25.0598 12.6336-16.0597Q16.5446-7.05969 23.4178-0.155309Q30.291 6.74907 39.2968 10.6289Q48.3025 14.5087 58.492 14.5087ZM58.492 6.24099Q49.8824 6.24099 42.3688 3.03788Q34.8553-0.165238 29.1769-5.86909Q23.4985-11.573 20.2897-19.112Q17.0809-26.6511 17.0809-35.2606Q17.0809-43.8702 20.2642-51.4093Q23.4476-58.9483 29.1259-64.6522Q34.8043-70.3561 42.3179-73.5592Q49.8315-76.7623 58.441-76.7623Q67.1016-76.7623 74.6208-73.5592Q82.1401-70.3561 87.8383-64.6522Q93.5364-58.9483 96.7707-51.4093Q100.005-43.8702 100.005-35.2606Q100.005-26.6511 96.8019-19.112Q93.5988-11.573 87.9204-5.86909Q82.242-0.165238 74.7029 3.03788Q67.1639 6.24099 58.492 6.24099ZM91.9154-3.07777L91.7739-3.6214Q90.5503-7.18969 86.0587-10.6533Q81.567-14.1169 74.5267-16.3882Q67.4864-18.6595 58.492-18.6595Q49.5486-18.6595 42.4828-16.3939Q35.417-14.1282 30.9565-10.6646Q26.496-7.20103 25.2611-3.65543L25.1082-3.07777Q29.4865 1.29491 35.5099 4.36206Q41.5334 7.42922 47.625 9.0577Q53.7167 10.6862 58.5033 10.6862Q63.2787 10.6862 69.3788 9.06337Q75.4789 7.44057 81.4598 4.37908Q87.4408 1.3176 91.9154-3.07777ZM58.492-26.9291Q63.2158-26.8782 66.9994-29.308Q70.7829-31.7379 73.0146-35.9067Q75.2462-40.0754 75.2462-45.3486Q75.2462-50.2593 73.0089-54.3658Q70.7716-58.4722 66.9824-60.9332Q63.1931-63.3943 58.492-63.3943Q53.8305-63.3943 50.0158-60.9332Q46.2011-58.4722 43.9638-54.3658Q41.7265-50.2593 41.7888-45.3486Q41.7888-40.0754 44.0147-35.9321Q46.2407-31.7889 50.0299-29.3845Q53.8191-26.9801 58.492-26.9291Z"/>
  </g>
  <g id="Light-M" transform="matrix(1 0 0 1 1095.44 1126)">
   <path d="M57.664 13.6807Q67.7687 13.6807 76.6123 9.87453Q85.456 6.06831 92.2245-0.716478Q98.993-7.50127 102.83-16.3449Q106.668-25.1886 106.668-35.2606Q106.668-45.3327 102.83-54.1764Q98.993-63.02 92.2082-69.8048Q85.4234-76.5896 76.5798-80.3958Q67.7361-84.202 57.6315-84.202Q47.5892-84.202 38.7306-80.3958Q29.8721-76.5896 23.1348-69.8048Q16.3974-63.02 12.56-54.1764Q8.72266-45.3327 8.72266-35.2606Q8.72266-25.1886 12.56-16.3449Q16.3974-7.50127 23.151-0.716478Q29.9047 6.06831 38.7632 9.87453Q47.6217 13.6807 57.664 13.6807ZM57.664 7.36333Q48.8337 7.36333 41.1085 4.06822Q33.3833 0.773111 27.5394-5.08714Q21.6954-10.9474 18.3854-18.6888Q15.0755-26.4303 15.0755-35.2606Q15.0755-44.091 18.3692-51.8325Q21.6629-59.5739 27.5068-65.4342Q33.3508-71.2944 41.076-74.5895Q48.8011-77.8846 57.6315-77.8846Q66.4944-77.8846 74.2345-74.5895Q81.9745-71.2944 87.8199-65.4342Q93.6652-59.5739 96.9915-51.8325Q100.318-44.091 100.318-35.2606Q100.318-26.4303 97.0227-18.6888Q93.7275-10.9474 87.8836-5.08714Q82.0396 0.773111 74.2982 4.06822Q66.5567 7.36333 57.664 7.36333ZM90.8299-3.42735L90.7619-3.84219Q89.3727-7.33688 84.8719-10.8097Q80.3711-14.2824 73.432-16.5998Q66.4928-18.9171 57.664-18.9171Q48.8678-18.9171 41.9124-16.6146Q34.957-14.3122 30.4873-10.8394Q26.0177-7.36662 24.5987-3.93142L24.5011-3.42735Q28.8057 0.963724 34.544 4.10448Q40.2823 7.24523 46.3003 8.93811Q52.3183 10.631 57.6938 10.631Q63.0395 10.631 69.0292 8.95298Q75.0189 7.27498 80.6963 4.14909Q86.3737 1.02321 90.8299-3.42735ZM57.664-27.2603Q62.3695-27.2277 66.1254-29.6576Q69.8814-32.0875 72.0946-36.247Q74.3078-40.4066 74.3078-45.643Q74.3078-50.5353 72.0797-54.6326Q69.8517-58.7298 66.0808-61.1908Q62.31-63.6519 57.664-63.6519Q53.0209-63.6519 49.2338-61.1908Q45.4467-58.7298 43.2186-54.6326Q40.9905-50.5353 41.0528-45.643Q41.0528-40.4066 43.2512-36.2633Q45.4495-32.1201 49.2204-29.7065Q52.9912-27.2929 57.664-27.2603Z"/>
  </g>
  <g id="Thin-M" transform="matrix(1 0 0 1 799.828 1126)">
   <path d="M56.569 12.5857Q66.479 12.5857 75.1158 8.87683Q83.7526 5.16794 90.3751-1.45867Q96.9976-8.08529 100.738-16.7221Q104.478-25.3589 104.478-35.2606Q104.478-45.1624 100.738-53.7992Q96.9976-62.436 90.371-69.0626Q83.7444-75.6892 75.1076-79.3981Q66.4707-83.107 56.5608-83.107Q46.7131-83.107 38.0493-79.3981Q29.3854-75.6892 22.7941-69.0626Q16.2027-62.436 12.4627-53.7992Q8.72266-45.1624 8.72266-35.2606Q8.72266-25.3589 12.4627-16.7221Q16.2027-8.08529 22.7982-1.45867Q29.3936 5.16794 38.0575 8.87683Q46.7214 12.5857 56.569 12.5857ZM56.569 8.84771Q47.4466 8.84771 39.4416 5.43093Q31.4366 2.01415 25.3736-4.05293Q19.3107-10.12 15.8668-18.1291Q12.423-26.1383 12.423-35.2606Q12.423-44.383 15.8627-52.3921Q19.3024-60.4013 25.3654-66.4684Q31.4284-72.5354 39.4334-75.9522Q47.4384-79.369 56.5608-79.369Q65.6914-79.369 73.7234-75.9522Q81.7555-72.5354 87.7955-66.4684Q93.8356-60.4013 97.2835-52.3921Q100.731-44.383 100.731-35.2606Q100.731-26.1383 97.3147-18.1291Q93.8979-10.12 87.8349-4.05293Q81.7719 2.01415 73.7628 5.43093Q65.7537 8.84771 56.569 8.84771ZM89.3941-3.8897L89.4235-4.1342Q87.8153-7.53155 83.3024-11.0165Q78.7894-14.5015 71.9841-16.8796Q65.1788-19.2578 56.569-19.2578Q47.9675-19.2578 41.158-16.9067Q34.3486-14.5555 29.8668-11.0706Q25.385-7.58563 23.7227-4.29643L23.698-3.8897Q27.9053 0.525709 33.2664 3.7638Q38.6275 7.00189 44.5482 8.77994Q50.4689 10.558 56.6231 10.558Q62.7232 10.558 68.5668 8.80697Q74.4105 7.05597 79.6864 3.84492Q84.9623 0.633866 89.3941-3.8897ZM56.569-27.6983Q61.2501-27.6901 64.9696-30.12Q68.689-32.5499 70.8779-36.6972Q73.0668-40.8446 73.0668-46.0323Q73.0668-50.9003 70.8509-54.9854Q68.6349-59.0705 64.8884-61.5315Q61.1419-63.9925 56.569-63.9925Q51.9502-63.9925 48.1996-61.5315Q44.449-59.0705 42.2331-54.9854Q40.0171-50.9003 40.0794-46.0323Q40.0794-40.8446 42.2413-36.7013Q44.4031-32.5581 48.1496-30.1323Q51.8962-27.7065 56.569-27.6983Z"/>
  </g>
  <g id="Ultralight-M" transform="matrix(1 0 0 1 503.679 1126)">
   <path d="M56.0081 12.0248Q65.8184 12.0248 74.3492 8.36581Q82.8801 4.70678 89.4278-1.83882Q95.9756-8.38442 99.6657-16.9153Q103.356-25.4462 103.356-35.2606Q103.356-45.0751 99.6657-53.606Q95.9756-62.1369 89.43-68.6825Q82.8844-75.2281 74.3535-78.8871Q65.8226-82.5461 56.0124-82.5461Q46.2644-82.5461 37.7003-78.8871Q29.1361-75.2281 22.6196-68.6825Q16.103-62.1369 12.4128-53.606Q8.72266-45.0751 8.72266-35.2606Q8.72266-25.4462 12.4128-16.9153Q16.103-8.38442 22.6175-1.83882Q29.1319 4.70678 37.6961 8.36581Q46.2602 12.0248 56.0081 12.0248ZM56.0081 9.60801Q46.7362 9.60801 38.5878 6.12891Q30.4395 2.64981 24.2644-3.52322Q18.0892-9.69625 14.5768-17.8425Q11.0645-25.9887 11.0645-35.2606Q11.0645-44.5326 14.579-52.6788Q18.0934-60.825 24.2686-66.9981Q30.4437-73.1711 38.5921-76.6502Q46.7404-80.1293 56.0124-80.1293Q65.2801-80.1293 73.4617-76.6502Q81.6433-73.1711 87.7831-66.9981Q93.9228-60.825 97.4331-52.6788Q100.943-44.5326 100.943-35.2606Q100.943-25.9887 97.4642-17.8425Q93.9851-9.69625 87.81-3.52322Q81.6348 2.64981 73.4886 6.12891Q65.3424 9.60801 56.0081 9.60801ZM88.6588-4.12651L88.738-4.28376Q87.0177-7.63126 82.4985-11.1224Q77.9792-14.6136 71.2425-17.023Q64.5057-19.4323 56.0081-19.4323Q47.5063-19.4323 40.7717-17.0562Q34.037-14.6802 29.549-11.189Q25.0609-7.69781 23.274-4.48339L23.2867-4.12651Q27.4442 0.30136 32.6121 3.58931Q37.78 6.87725 43.6508 8.69892Q49.5217 10.5206 56.0747 10.5206Q62.5611 10.5206 68.33 8.73219Q74.0989 6.9438 79.1692 3.68912Q84.2394 0.434444 88.6588-4.12651ZM56.0081-27.9227Q60.6767-27.9269 64.3775-30.3568Q68.0783-32.7867 70.2547-36.9278Q72.4311-41.069 72.4311-46.2318Q72.4311-51.0873 70.2214-55.1661Q68.0118-59.245 64.2777-61.706Q60.5437-64.167 56.0081-64.167Q51.4018-64.167 47.6699-61.706Q43.938-59.245 41.7283-55.1661Q39.5186-51.0873 39.5809-46.2318Q39.5809-41.069 41.724-36.9257Q43.8672-32.7824 47.6012-30.3504Q51.3353-27.9184 56.0081-27.9227Z"/>
  </g>
  <g id="Black-S" transform="matrix(1 0 0 1 2884.57 696)">
   <path d="M48.8281 6.78711Q57.5195 6.78711 65.1123 3.51562Q72.7051 0.244141 78.4912-5.54199Q84.2773-11.3281 87.5488-18.9209Q90.8203-26.5137 90.8203-35.2051Q90.8203-43.8965 87.5488-51.4893Q84.2773-59.082 78.4912-64.8682Q72.7051-70.6543 65.1123-73.9258Q57.5195-77.1973 48.8281-77.1973Q40.1367-77.1973 32.5439-73.9258Q24.9512-70.6543 19.165-64.8682Q13.3789-59.082 10.1074-51.4893Q6.83594-43.8965 6.83594-35.2051Q6.83594-26.5137 10.1074-18.9209Q13.3789-11.3281 19.165-5.54199Q24.9512 0.244141 32.5439 3.51562Q40.1367 6.78711 48.8281 6.78711ZM48.8281-7.37305Q43.0664-7.37305 38.0127-9.5459Q32.959-11.7188 29.1504-15.5273Q25.3418-19.3359 23.1689-24.3896Q20.9961-29.4434 20.9961-35.2051Q20.9961-40.9668 23.1689-46.0205Q25.3418-51.0742 29.1504-54.8828Q32.959-58.6914 38.0127-60.8643Q43.0664-63.0371 48.8281-63.0371Q54.5898-63.0371 59.6436-60.8643Q64.6973-58.6914 68.5059-54.8828Q72.3145-51.0742 74.4873-46.0205Q76.6602-40.9668 76.6602-35.2051Q76.6602-29.4434 74.4873-24.3896Q72.3145-19.3359 68.5059-15.5273Q64.6973-11.7188 59.6436-9.5459Q54.5898-7.37305 48.8281-7.37305ZM70.9473-9.86328L70.7031-11.5723Q68.1641-14.3555 64.917-16.5039Q61.6699-18.6523 57.666-19.8975Q53.6621-21.1426 48.8281-21.1426Q43.9941-21.1426 39.9902-19.8975Q35.9863-18.6523 32.7393-16.5039Q29.4922-14.3555 26.9531-11.5723L26.709-9.86328Q31.1035-7.03125 34.8877-5.34668Q38.6719-3.66211 42.1143-2.92969Q45.5566-2.19727 48.8281-2.19727Q52.1484-2.19727 55.5664-2.92969Q58.9844-3.66211 62.793-5.34668Q66.6016-7.03125 70.9473-9.86328ZM48.8281-26.416Q52.6367-26.416 55.6885-28.3936Q58.7402-30.3711 60.498-33.6914Q62.2559-37.0117 62.2559-41.0645Q62.2559-44.9219 60.4736-48.1689Q58.6914-51.416 55.6396-53.418Q52.5879-55.4199 48.8281-55.4199Q45.0684-55.4199 42.0166-53.418Q38.9648-51.416 37.1826-48.1689Q35.4004-44.9219 35.4004-41.0645Q35.4004-37.0117 37.1582-33.6914Q38.916-30.3711 41.9678-28.3936Q45.0195-26.416 48.8281-26.416Z"/>
  </g>
  <g id="Heavy-S" transform="matrix(1 0 0 1 2588.47 696)">
   <path d="M48.2173 6.16479Q56.7704 6.16479 64.2537 2.9394Q71.737-0.285985 77.4425-5.99721Q83.1479-11.7084 86.3791-19.1917Q89.6102-26.675 89.6102-35.2166Q89.6102-43.7582 86.3791-51.2415Q83.1479-58.7248 77.4367-64.436Q71.7255-70.1472 64.2422-73.3726Q56.7589-76.598 48.2058-76.598Q39.6642-76.598 32.1809-73.3726Q24.6976-70.1472 18.9979-64.436Q13.2982-58.7248 10.0671-51.2415Q6.83594-43.7582 6.83594-35.2166Q6.83594-26.675 10.0671-19.1917Q13.2982-11.7084 19.0037-5.99721Q24.7092-0.285985 32.1924 2.9394Q39.6757 6.16479 48.2173 6.16479ZM48.2173-6.40499Q42.2482-6.40499 37.0216-8.64699Q31.795-10.889 27.8539-14.8359Q23.9128-18.7828 21.6708-24.0151Q19.4288-29.2474 19.4288-35.2166Q19.4288-41.1858 21.665-46.4181Q23.9012-51.6504 27.8424-55.5973Q31.7835-59.5442 37.0101-61.7862Q42.2366-64.0282 48.2058-64.0282Q54.1865-64.0282 59.4131-61.7862Q64.6396-59.5442 68.5865-55.5973Q72.5334-51.6504 74.7812-46.4181Q77.0289-41.1858 77.0289-35.2166Q77.0289-29.2474 74.7869-24.0151Q72.5449-18.7828 68.6038-14.8359Q64.6627-10.889 59.4304-8.64699Q54.198-6.40499 48.2173-6.40499ZM71.3276-9.86328L71.1065-11.2842Q68.9593-14.0789 65.6488-16.3599Q62.3383-18.6408 57.9657-20.0069Q53.593-21.3731 48.2173-21.3731Q42.8532-21.3731 38.4748-20.0069Q34.0963-18.6408 30.7916-16.3599Q27.4869-14.0789 25.3397-11.2842L25.1186-9.86328Q29.2942-6.89296 33.3319-5.04704Q37.3696-3.20113 41.1347-2.3477Q44.8997-1.49427 48.2173-1.49427Q51.5722-1.49427 55.3244-2.3477Q59.0766-3.20113 63.1272-5.04704Q67.1778-6.89296 71.3276-9.86328ZM48.2173-26.9231Q52.0029-26.9116 55.0373-28.8718Q58.0718-30.8321 59.8296-34.1409Q61.5874-37.4496 61.5874-41.5254Q61.5874-45.3829 59.811-48.6242Q58.0345-51.8655 55-53.8501Q51.9656-55.8348 48.2173-55.8348Q44.4806-55.8348 41.4404-53.8501Q38.4001-51.8655 36.6237-48.6242Q34.8472-45.3829 34.8587-41.5254Q34.8587-37.4496 36.6166-34.1466Q38.3744-30.8436 41.4088-28.8891Q44.4433-26.9346 48.2173-26.9231Z"/>
  </g>
  <g id="Bold-S" transform="matrix(1 0 0 1 2292.43 696)">
   <path d="M47.5342 5.46875Q55.9326 5.46875 63.2935 2.29492Q70.6543-0.878906 76.2695-6.50635Q81.8848-12.1338 85.0708-19.4946Q88.2568-26.8555 88.2568-35.2295Q88.2568-43.6035 85.0708-50.9644Q81.8848-58.3252 76.2573-63.9526Q70.6299-69.5801 63.269-72.7539Q55.9082-75.9277 47.5098-75.9277Q39.1357-75.9277 31.7749-72.7539Q24.4141-69.5801 18.811-63.9526Q13.208-58.3252 10.022-50.9644Q6.83594-43.6035 6.83594-35.2295Q6.83594-26.8555 10.022-19.4946Q13.208-12.1338 18.8232-6.50635Q24.4385-0.878906 31.7993 2.29492Q39.1602 5.46875 47.5342 5.46875ZM47.5342-5.32227Q41.333-5.32227 35.9131-7.6416Q30.4932-9.96094 26.4038-14.0625Q22.3145-18.1641 19.9951-23.5962Q17.6758-29.0283 17.6758-35.2295Q17.6758-41.4307 19.9829-46.8628Q22.29-52.2949 26.3794-56.3965Q30.4688-60.498 35.8887-62.8174Q41.3086-65.1367 47.5098-65.1367Q53.7354-65.1367 59.1553-62.8174Q64.5752-60.498 68.6768-56.3965Q72.7783-52.2949 75.1099-46.8628Q77.4414-41.4307 77.4414-35.2295Q77.4414-29.0283 75.1221-23.5962Q72.8027-18.1641 68.7134-14.0625Q64.624-9.96094 59.1919-7.6416Q53.7598-5.32227 47.5342-5.32227ZM71.7529-9.86328L71.5576-10.9619Q69.8486-13.7695 66.4673-16.1987Q63.0859-18.6279 58.3008-20.1294Q53.5156-21.6309 47.5342-21.6309Q41.5771-21.6309 36.7798-20.1294Q31.9824-18.6279 28.6133-16.1987Q25.2441-13.7695 23.5352-10.9619L23.3398-9.86328Q27.2705-6.73828 31.5918-4.71191Q35.9131-2.68555 40.0391-1.69678Q44.165-0.708008 47.5342-0.708008Q50.9277-0.708008 55.0537-1.69678Q59.1797-2.68555 63.501-4.71191Q67.8223-6.73828 71.7529-9.86328ZM47.5342-27.4902Q51.2939-27.4658 54.3091-29.4067Q57.3242-31.3477 59.082-34.6436Q60.8398-37.9395 60.8398-42.041Q60.8398-45.8984 59.0698-49.1333Q57.2998-52.3682 54.2847-54.3335Q51.2695-56.2988 47.5342-56.2988Q43.8232-56.2988 40.7959-54.3335Q37.7686-52.3682 35.9985-49.1333Q34.2285-45.8984 34.2529-42.041Q34.2529-37.9395 36.0107-34.6558Q37.7686-31.3721 40.7837-29.4434Q43.7988-27.5146 47.5342-27.4902Z"/>
  </g>
  <g id="Semibold-S" transform="matrix(1 0 0 1 1996.19 696)">
   <path d="M47.0632 4.98887Q55.355 4.98887 62.6314 1.85059Q69.9078-1.2877 75.4608-6.85737Q81.0139-12.4271 84.1688-19.7035Q87.3237-26.9799 87.3237-35.2384Q87.3237-43.4969 84.1688-50.7733Q81.0139-58.0497 75.4442-63.6194Q69.8745-69.1891 62.5981-72.3273Q55.3217-75.4656 47.0299-75.4656Q38.7714-75.4656 31.495-72.3273Q24.2186-69.1891 18.6822-63.6194Q13.1458-58.0497 9.99087-50.7733Q6.83594-43.4969 6.83594-35.2384Q6.83594-26.9799 9.99087-19.7035Q13.1458-12.4271 18.6988-6.85737Q24.2519-1.2877 31.5283 1.85059Q38.8047 4.98887 47.0632 4.98887ZM47.0632-4.57578Q40.7021-4.57578 35.1488-6.94844Q29.5956-9.32109 25.4041-13.5293Q21.2125-17.7375 18.8398-23.3074Q16.4672-28.8772 16.4672-35.2384Q16.4672-41.5995 18.8232-47.1694Q21.1792-52.7393 25.3708-56.9475Q29.5623-61.1557 35.1155-63.5283Q40.6688-65.901 47.0299-65.901Q53.4243-65.901 58.9775-63.5283Q64.5308-61.1557 68.739-56.9475Q72.9472-52.7393 75.3365-47.1694Q77.7258-41.5995 77.7258-35.2384Q77.7258-28.8772 75.3531-23.3074Q72.9805-17.7375 68.7889-13.5293Q64.5974-9.32109 59.0275-6.94844Q53.4576-4.57578 47.0632-4.57578ZM72.0462-9.86328L71.8687-10.7397Q70.4618-13.5563 67.0316-16.0876Q63.6014-18.619 58.5318-20.2138Q53.4623-21.8086 47.0632-21.8086Q40.6974-21.8086 35.6112-20.2138Q30.525-18.619 27.1114-16.0876Q23.6979-13.5563 22.291-10.7397L22.1135-9.86328Q25.8753-6.63164 30.3921-4.48086Q34.9089-2.33008 39.2837-1.248Q43.6585-0.165918 47.0632-0.165918Q50.4834-0.165918 54.8671-1.248Q59.2508-2.33008 63.7587-4.48086Q68.2666-6.63164 72.0462-9.86328ZM47.0632-27.8813Q50.8052-27.8479 53.807-29.7755Q56.8088-31.7031 58.5666-34.9901Q60.3244-38.2771 60.3244-42.3965Q60.3244-46.2539 58.5588-49.4843Q56.7933-52.7147 53.7915-54.6667Q50.7896-56.6187 47.0632-56.6187Q43.37-56.6187 40.3516-54.6667Q37.3331-52.7147 35.5675-49.4843Q33.802-46.2539 33.8353-42.3965Q33.8353-38.2771 35.5931-35.0068Q37.3509-31.7364 40.3527-29.8255Q43.3545-27.9146 47.0632-27.8813Z"/>
  </g>
  <g id="Medium-S" transform="matrix(1 0 0 1 1699.83 696)">
   <path d="M46.7061 4.625Q54.917 4.625 62.1294 1.51367Q69.3418-1.59766 74.8477-7.12354Q80.3535-12.6494 83.4849-19.8618Q86.6162-27.0742 86.6162-35.2451Q86.6162-43.416 83.4849-50.6284Q80.3535-57.8408 74.8276-63.3667Q69.3018-68.8926 62.0894-72.0039Q54.877-75.1152 46.666-75.1152Q38.4951-75.1152 31.2827-72.0039Q24.0703-68.8926 18.5845-63.3667Q13.0986-57.8408 9.96729-50.6284Q6.83594-43.416 6.83594-35.2451Q6.83594-27.0742 9.96729-19.8618Q13.0986-12.6494 18.6045-7.12354Q24.1104-1.59766 31.3228 1.51367Q38.5352 4.625 46.7061 4.625ZM46.7061-4.00977Q40.2236-4.00977 34.5693-6.42285Q28.915-8.83594 24.646-13.125Q20.377-17.4141 17.9639-23.0884Q15.5508-28.7627 15.5508-35.2451Q15.5508-41.7275 17.9438-47.4019Q20.3369-53.0762 24.606-57.3652Q28.875-61.6543 34.5293-64.0674Q40.1836-66.4805 46.666-66.4805Q53.1885-66.4805 58.8428-64.0674Q64.4971-61.6543 68.7861-57.3652Q73.0752-53.0762 75.5083-47.4019Q77.9414-41.7275 77.9414-35.2451Q77.9414-28.7627 75.5283-23.0884Q73.1152-17.4141 68.8462-13.125Q64.5771-8.83594 58.9028-6.42285Q53.2285-4.00977 46.7061-4.00977ZM72.2686-9.86328L72.1045-10.5713Q70.9268-13.3945 67.4595-16.0034Q63.9922-18.6123 58.707-20.2778Q53.4219-21.9434 46.7061-21.9434Q40.0303-21.9434 34.7251-20.2778Q29.4199-18.6123 25.9727-16.0034Q22.5254-13.3945 21.3477-10.5713L21.1836-9.86328Q24.8174-6.55078 29.4824-4.30566Q34.1475-2.06055 38.7109-0.907715Q43.2744 0.245117 46.7061 0.245117Q50.1465 0.245117 54.7256-0.907715Q59.3047-2.06055 63.9541-4.30566Q68.6035-6.55078 72.2686-9.86328ZM46.7061-28.1777Q50.4346-28.1377 53.4263-30.0552Q56.418-31.9727 58.1758-35.2529Q59.9336-38.5332 59.9336-42.666Q59.9336-46.5234 58.1714-49.7505Q56.4092-52.9775 53.4175-54.9194Q50.4258-56.8613 46.7061-56.8613Q43.0264-56.8613 40.0146-54.9194Q37.0029-52.9775 35.2407-49.7505Q33.4785-46.5234 33.5186-42.666Q33.5186-38.5332 35.2764-35.2729Q37.0342-32.0127 40.0259-30.1152Q43.0176-28.2178 46.7061-28.1777Z"/>
  </g>
  <g id="Regular-S" transform="matrix(1 0 0 1 1403.58 696)">
   <path d="M46.2402 4.15039Q54.3457 4.15039 61.4746 1.07422Q68.6035-2.00195 74.0479-7.4707Q79.4922-12.9395 82.5928-20.0684Q85.6934-27.1973 85.6934-35.2539Q85.6934-43.3105 82.5928-50.4395Q79.4922-57.5684 74.0234-63.0371Q68.5547-68.5059 61.4258-71.582Q54.2969-74.6582 46.1914-74.6582Q38.1348-74.6582 31.0059-71.582Q23.877-68.5059 18.457-63.0371Q13.0371-57.5684 9.93652-50.4395Q6.83594-43.3105 6.83594-35.2539Q6.83594-27.1973 9.93652-20.0684Q13.0371-12.9395 18.4814-7.4707Q23.9258-2.00195 31.0547 1.07422Q38.1836 4.15039 46.2402 4.15039ZM46.2402-3.27148Q39.5996-3.27148 33.8135-5.7373Q28.0273-8.20312 23.6572-12.5977Q19.2871-16.9922 16.8213-22.8027Q14.3555-28.6133 14.3555-35.2539Q14.3555-41.8945 16.7969-47.7051Q19.2383-53.5156 23.6084-57.9102Q27.9785-62.3047 33.7646-64.7705Q39.5508-67.2363 46.1914-67.2363Q52.8809-67.2363 58.667-64.7705Q64.4531-62.3047 68.8477-57.9102Q73.2422-53.5156 75.7324-47.7051Q78.2227-41.8945 78.2227-35.2539Q78.2227-28.6133 75.7568-22.8027Q73.291-16.9922 68.9209-12.5977Q64.5508-8.20312 58.7402-5.7373Q52.9297-3.27148 46.2402-3.27148ZM72.5586-9.86328L72.4121-10.3516Q71.5332-13.1836 68.0176-15.8936Q64.502-18.6035 58.9355-20.3613Q53.3691-22.1191 46.2402-22.1191Q39.1602-22.1191 33.5693-20.3613Q27.9785-18.6035 24.4873-15.8936Q20.9961-13.1836 20.1172-10.3516L19.9707-9.86328Q23.4375-6.44531 28.2959-4.07715Q33.1543-1.70898 37.9639-0.463867Q42.7734 0.78125 46.2402 0.78125Q49.707 0.78125 54.541-0.463867Q59.375-1.70898 64.209-4.07715Q69.043-6.44531 72.5586-9.86328ZM46.2402-28.5645Q49.9512-28.5156 52.9297-30.4199Q55.9082-32.3242 57.666-35.5957Q59.4238-38.8672 59.4238-43.0176Q59.4238-46.875 57.666-50.0977Q55.9082-53.3203 52.9297-55.249Q49.9512-57.1777 46.2402-57.1777Q42.5781-57.1777 39.5752-55.249Q36.5723-53.3203 34.8145-50.0977Q33.0566-46.875 33.1055-43.0176Q33.1055-38.8672 34.8633-35.6201Q36.6211-32.373 39.5996-30.4932Q42.5781-28.6133 46.2402-28.5645Z"/>
  </g>
  <g id="Light-S" transform="matrix(1 0 0 1 1107.6 696)">
   <path d="M45.5078 3.41797Q53.4831 3.41797 60.4736 0.406901Q67.4642-2.60417 72.8109-7.96712Q78.1576-13.3301 81.193-20.3206Q84.2285-27.3112 84.2285-35.2539Q84.2285-43.1966 81.193-50.1872Q78.1576-57.1777 72.7946-62.5407Q67.4316-67.9036 60.4411-70.9147Q53.4505-73.9258 45.4753-73.9258Q37.5488-73.9258 30.5501-70.9147Q23.5514-67.9036 18.2292-62.5407Q12.9069-57.1777 9.87142-50.1872Q6.83594-43.1966 6.83594-35.2539Q6.83594-27.3112 9.87142-20.3206Q12.9069-13.3301 18.2454-7.96712Q23.584-2.60417 30.5827 0.406901Q37.5814 3.41797 45.5078 3.41797ZM45.5078-2.27865Q38.6719-2.27865 32.6986-4.82585Q26.7253-7.37305 22.2087-11.9059Q17.6921-16.4388 15.1367-22.4284Q12.5814-28.418 12.5814-35.2539Q12.5814-42.0898 15.1204-48.0794Q17.6595-54.069 22.1761-58.6019Q26.6927-63.1348 32.666-65.682Q38.6393-68.2292 45.4753-68.2292Q52.3438-68.2292 58.3252-65.682Q64.3066-63.1348 68.8314-58.6019Q73.3561-54.069 75.9277-48.0794Q78.4993-42.0898 78.4993-35.2539Q78.4993-28.418 75.9521-22.4284Q73.4049-16.4388 68.8883-11.9059Q64.3717-7.37305 58.3822-4.82585Q52.3926-2.27865 45.5078-2.27865ZM71.5983-10.1725L71.5169-10.5469Q70.4915-13.3138 66.9678-16.0319Q63.444-18.75 57.9671-20.5485Q52.4902-22.347 45.5078-22.347Q38.5579-22.347 33.0648-20.5566Q27.5716-18.7663 24.0723-16.0482Q20.5729-13.3301 19.5312-10.5957L19.4336-10.1725Q22.8353-6.73828 27.4414-4.30501Q32.0475-1.87174 36.792-0.569661Q41.5365 0.732422 45.5241 0.732422Q49.4954 0.732422 54.2318-0.561523Q58.9681-1.85547 63.5335-4.2806Q68.099-6.70573 71.5983-10.1725ZM45.5078-28.8574Q49.2025-28.8249 52.1566-30.7292Q55.1107-32.6335 56.8522-35.8968Q58.5938-39.1602 58.5938-43.278Q58.5938-47.1191 56.8441-50.3337Q55.0944-53.5482 52.1322-55.4769Q49.1699-57.4056 45.5078-57.4056Q41.862-57.4056 38.8835-55.4769Q35.9049-53.5482 34.1553-50.3337Q32.4056-47.1191 32.4544-43.278Q32.4544-39.1602 34.1878-35.9131Q35.9212-32.666 38.8835-30.778Q41.8457-28.89 45.5078-28.8574Z"/>
  </g>
  <g id="Thin-S" transform="matrix(1 0 0 1 811.863 696)">
   <path d="M44.5391 2.44928Q52.3422 2.44928 59.1498-0.47568Q65.9573-3.40064 71.1749-8.62368Q76.3924-13.8467 79.3418-20.6543Q82.2911-27.4619 82.2911-35.2539Q82.2911-43.0459 79.3418-49.8535Q76.3924-56.6611 71.1694-61.8841Q65.9463-67.1072 59.1387-70.0321Q52.3311-72.9571 44.5281-72.9571Q36.7739-72.9571 29.9474-70.0321Q23.1209-67.1072 17.9278-61.8841Q12.7347-56.6611 9.78531-49.8535Q6.83594-43.0459 6.83594-35.2539Q6.83594-27.4619 9.78531-20.6543Q12.7347-13.8467 17.9333-8.62368Q23.1319-3.40064 29.9584-0.47568Q36.7849 2.44928 44.5391 2.44928ZM44.5391-0.965537Q37.4449-0.965537 31.224-3.62037Q25.0032-6.2752 20.2928-10.9911Q15.5825-15.7069 12.9087-21.9333Q10.235-28.1597 10.235-35.2539Q10.235-42.3482 12.9032-48.5745Q15.5714-54.8009 20.2818-59.5168Q24.9921-64.2326 31.213-66.8874Q37.4338-69.5423 44.5281-69.5423Q51.6334-69.5423 57.8731-66.8874Q64.1129-64.2326 68.8099-59.5168Q73.5068-54.8009 76.1861-48.5745Q78.8653-42.3482 78.8653-35.2539Q78.8653-28.1597 76.2105-21.9333Q73.5556-15.7069 68.8453-10.9911Q64.135-6.2752 57.9086-3.62037Q51.6822-0.965537 44.5391-0.965537ZM70.3283-10.5815L70.333-10.8052Q69.1138-13.486 65.5793-16.2149Q62.0448-18.9437 56.6863-20.7961Q51.3278-22.6484 44.5391-22.6484Q37.7615-22.6484 32.3975-20.815Q27.0335-18.9815 23.5233-16.2527Q20.0132-13.5238 18.7563-10.9186L18.7232-10.5815Q22.0388-7.12576 26.3113-4.60638Q30.5837-2.08701 35.2421-0.709583Q39.9005 0.667843 44.5769 0.667843Q49.2156 0.667843 53.8228-0.690682Q58.4299-2.04921 62.6402-4.54968Q66.8504-7.05015 70.3283-10.5815ZM44.5391-29.2449Q48.2123-29.2339 51.1341-31.1382Q54.0559-33.0425 55.7759-36.295Q57.4959-39.5476 57.4959-43.6224Q57.4959-47.442 55.757-50.6458Q54.0181-53.8495 51.0774-55.7783Q48.1367-57.707 44.5391-57.707Q40.9148-57.707 37.9686-55.7783Q35.0224-53.8495 33.2835-50.6458Q31.5445-47.442 31.5934-43.6224Q31.5934-39.5476 33.2945-36.3006Q34.9956-33.0535 37.9363-31.1547Q40.877-29.2559 44.5391-29.2449Z"/>
  </g>
  <g id="Ultralight-S" transform="matrix(1 0 0 1 515.649 696)">
   <path d="M44.043 1.95312Q51.7578 1.95312 58.4717-0.927734Q65.1855-3.80859 70.3369-8.95996Q75.4883-14.1113 78.3936-20.8252Q81.2988-27.5391 81.2988-35.2539Q81.2988-42.9688 78.3936-49.6826Q75.4883-56.3965 70.3369-61.5479Q65.1855-66.6992 58.4717-69.5801Q51.7578-72.4609 44.043-72.4609Q36.377-72.4609 29.6387-69.5801Q22.9004-66.6992 17.7734-61.5479Q12.6465-56.3965 9.74121-49.6826Q6.83594-42.9688 6.83594-35.2539Q6.83594-27.5391 9.74121-20.8252Q12.6465-14.1113 17.7734-8.95996Q22.9004-3.80859 29.6387-0.927734Q36.377 1.95312 44.043 1.95312ZM44.043-0.292969Q36.8164-0.292969 30.4688-3.00293Q24.1211-5.71289 19.3115-10.5225Q14.502-15.332 11.7676-21.6797Q9.0332-28.0273 9.0332-35.2539Q9.0332-42.4805 11.7676-48.8281Q14.502-55.1758 19.3115-59.9854Q24.1211-64.7949 30.4688-67.5049Q36.8164-70.2148 44.043-70.2148Q51.2695-70.2148 57.6416-67.5049Q64.0137-64.7949 68.7988-59.9854Q73.584-55.1758 76.3184-48.8281Q79.0527-42.4805 79.0527-35.2539Q79.0527-28.0273 76.3428-21.6797Q73.6328-15.332 68.8232-10.5225Q64.0137-5.71289 57.666-3.00293Q51.3184-0.292969 44.043-0.292969ZM69.6777-10.791L69.7266-10.9375Q68.4082-13.5742 64.8682-16.3086Q61.3281-19.043 56.0303-20.9229Q50.7324-22.8027 44.043-22.8027Q37.3535-22.8027 32.0557-20.9473Q26.7578-19.0918 23.2422-16.3574Q19.7266-13.623 18.3594-11.084L18.3594-10.791Q21.6309-7.32422 25.7324-4.76074Q29.834-2.19727 34.4482-0.78125Q39.0625 0.634766 44.0918 0.634766Q49.0723 0.634766 53.6133-0.756836Q58.1543-2.14844 62.1826-4.6875Q66.2109-7.22656 69.6777-10.791ZM44.043-29.4434Q47.7051-29.4434 50.6104-31.3477Q53.5156-33.252 55.2246-36.499Q56.9336-39.7461 56.9336-43.7988Q56.9336-47.6074 55.2002-50.8057Q53.4668-54.0039 50.5371-55.9326Q47.6074-57.8613 44.043-57.8613Q40.4297-57.8613 37.5-55.9326Q34.5703-54.0039 32.8369-50.8057Q31.1035-47.6074 31.1523-43.7988Q31.1523-39.7461 32.8369-36.499Q34.5215-33.252 37.4512-31.3477Q40.3809-29.4434 44.043-29.4434Z"/>
  </g>
 </g>
</svg>
