<?xml version="1.0" encoding="UTF-8"?>
<!--Generator: Apple Native CoreSVG 175-->
<!DOCTYPE svg
PUBLIC "-//W3C//DTD SVG 1.1//EN"
       "http://www.w3.org/Graphics/SVG/1.1/DTD/svg11.dtd">
<svg version="1.1" xmlns="http://www.w3.org/2000/svg" xmlns:xlink="http://www.w3.org/1999/xlink" width="3300" height="2200">
 <!--glyph: "uni10039E.medium", point size: 100.0, font version: "17.3d3e1", template writer version: "65.1"-->
 <g id="Notes">
  <rect height="2200" id="artboard" style="fill:white;opacity:1" width="3300" x="0" y="0"/>
  <line style="fill:none;stroke:black;opacity:1;stroke-width:0.5;" x1="263" x2="3036" y1="292" y2="292"/>
  <text style="stroke:none;fill:black;font-family:sans-serif;font-size:13;font-weight:bold;" transform="matrix(1 0 0 1 263 322)">Weight/Scale Variations</text>
  <text style="stroke:none;fill:black;font-family:sans-serif;font-size:13;text-anchor:middle;" transform="matrix(1 0 0 1 559.711 322)">Ultralight</text>
  <text style="stroke:none;fill:black;font-family:sans-serif;font-size:13;text-anchor:middle;" transform="matrix(1 0 0 1 856.422 322)">Thin</text>
  <text style="stroke:none;fill:black;font-family:sans-serif;font-size:13;text-anchor:middle;" transform="matrix(1 0 0 1 1153.13 322)">Light</text>
  <text style="stroke:none;fill:black;font-family:sans-serif;font-size:13;text-anchor:middle;" transform="matrix(1 0 0 1 1449.84 322)">Regular</text>
  <text style="stroke:none;fill:black;font-family:sans-serif;font-size:13;text-anchor:middle;" transform="matrix(1 0 0 1 1746.56 322)">Medium</text>
  <text style="stroke:none;fill:black;font-family:sans-serif;font-size:13;text-anchor:middle;" transform="matrix(1 0 0 1 2043.27 322)">Semibold</text>
  <text style="stroke:none;fill:black;font-family:sans-serif;font-size:13;text-anchor:middle;" transform="matrix(1 0 0 1 2339.98 322)">Bold</text>
  <text style="stroke:none;fill:black;font-family:sans-serif;font-size:13;text-anchor:middle;" transform="matrix(1 0 0 1 2636.69 322)">Heavy</text>
  <text style="stroke:none;fill:black;font-family:sans-serif;font-size:13;text-anchor:middle;" transform="matrix(1 0 0 1 2933.4 322)">Black</text>
  <line style="fill:none;stroke:black;opacity:1;stroke-width:0.5;" x1="263" x2="3036" y1="1903" y2="1903"/>
  <g transform="matrix(1 0 0 1 263 1933)">
   <path d="M9.24805 0.830078Q10.8691 0.830078 12.2949 0.214844Q13.7207-0.400391 14.8096-1.49414Q15.8984-2.58789 16.5186-4.01367Q17.1387-5.43945 17.1387-7.05078Q17.1387-8.66211 16.5186-10.0879Q15.8984-11.5137 14.8047-12.6074Q13.7109-13.7012 12.2852-14.3164Q10.8594-14.9316 9.23828-14.9316Q7.62695-14.9316 6.20117-14.3164Q4.77539-13.7012 3.69141-12.6074Q2.60742-11.5137 1.9873-10.0879Q1.36719-8.66211 1.36719-7.05078Q1.36719-5.43945 1.9873-4.01367Q2.60742-2.58789 3.69629-1.49414Q4.78516-0.400391 6.21094 0.214844Q7.63672 0.830078 9.24805 0.830078ZM9.24805-0.654297Q7.91992-0.654297 6.7627-1.14746Q5.60547-1.64062 4.73145-2.51953Q3.85742-3.39844 3.36426-4.56055Q2.87109-5.72266 2.87109-7.05078Q2.87109-8.37891 3.35938-9.54102Q3.84766-10.7031 4.72168-11.582Q5.5957-12.4609 6.75293-12.9541Q7.91016-13.4473 9.23828-13.4473Q10.5762-13.4473 11.7334-12.9541Q12.8906-12.4609 13.7695-11.582Q14.6484-10.7031 15.1465-9.54102Q15.6445-8.37891 15.6445-7.05078Q15.6445-5.72266 15.1514-4.56055Q14.6582-3.39844 13.7842-2.51953Q12.9102-1.64062 11.748-1.14746Q10.5859-0.654297 9.24805-0.654297ZM5.6543-7.05078Q5.6543-6.72852 5.85938-6.52832Q6.06445-6.32812 6.40625-6.32812L8.51562-6.32812L8.51562-4.20898Q8.51562-3.88672 8.71094-3.67676Q8.90625-3.4668 9.23828-3.4668Q9.56055-3.4668 9.77051-3.67676Q9.98047-3.88672 9.98047-4.20898L9.98047-6.32812L12.0898-6.32812Q12.4219-6.32812 12.627-6.52832Q12.832-6.72852 12.832-7.05078Q12.832-7.38281 12.627-7.58789Q12.4219-7.79297 12.0898-7.79297L9.98047-7.79297L9.98047-9.90234Q9.98047-10.2344 9.77051-10.4443Q9.56055-10.6543 9.23828-10.6543Q8.90625-10.6543 8.71094-10.4443Q8.51562-10.2344 8.51562-9.90234L8.51562-7.79297L6.40625-7.79297Q6.06445-7.79297 5.85938-7.58789Q5.6543-7.38281 5.6543-7.05078Z"/>
  </g>
  <g transform="matrix(1 0 0 1 281.867 1933)">
   <path d="M11.709 2.91016Q13.75 2.91016 15.5518 2.12891Q17.3535 1.34766 18.7305-0.0292969Q20.1074-1.40625 20.8887-3.20801Q21.6699-5.00977 21.6699-7.05078Q21.6699-9.0918 20.8887-10.8936Q20.1074-12.6953 18.7305-14.0723Q17.3535-15.4492 15.5469-16.2305Q13.7402-17.0117 11.6992-17.0117Q9.6582-17.0117 7.85645-16.2305Q6.05469-15.4492 4.68262-14.0723Q3.31055-12.6953 2.5293-10.8936Q1.74805-9.0918 1.74805-7.05078Q1.74805-5.00977 2.5293-3.20801Q3.31055-1.40625 4.6875-0.0292969Q6.06445 1.34766 7.86621 2.12891Q9.66797 2.91016 11.709 2.91016ZM11.709 1.25Q9.98047 1.25 8.47656 0.605469Q6.97266-0.0390625 5.83496-1.17676Q4.69727-2.31445 4.05762-3.81836Q3.41797-5.32227 3.41797-7.05078Q3.41797-8.7793 4.05762-10.2832Q4.69727-11.7871 5.83008-12.9297Q6.96289-14.0723 8.4668-14.7119Q9.9707-15.3516 11.6992-15.3516Q13.4277-15.3516 14.9316-14.7119Q16.4355-14.0723 17.5781-12.9297Q18.7207-11.7871 19.3652-10.2832Q20.0098-8.7793 20.0098-7.05078Q20.0098-5.32227 19.3701-3.81836Q18.7305-2.31445 17.5928-1.17676Q16.4551-0.0390625 14.9463 0.605469Q13.4375 1.25 11.709 1.25ZM7.17773-7.05078Q7.17773-6.69922 7.41211-6.47461Q7.64648-6.25 8.01758-6.25L10.8887-6.25L10.8887-3.36914Q10.8887-2.99805 11.1133-2.76855Q11.3379-2.53906 11.6895-2.53906Q12.0605-2.53906 12.29-2.76855Q12.5195-2.99805 12.5195-3.36914L12.5195-6.25L15.4004-6.25Q15.7715-6.25 16.001-6.47461Q16.2305-6.69922 16.2305-7.05078Q16.2305-7.42188 16.001-7.65137Q15.7715-7.88086 15.4004-7.88086L12.5195-7.88086L12.5195-10.752Q12.5195-11.1328 12.29-11.3623Q12.0605-11.5918 11.6895-11.5918Q11.3379-11.5918 11.1133-11.3574Q10.8887-11.123 10.8887-10.752L10.8887-7.88086L8.01758-7.88086Q7.63672-7.88086 7.40723-7.65137Q7.17773-7.42188 7.17773-7.05078Z"/>
  </g>
  <g transform="matrix(1 0 0 1 305.646 1933)">
   <path d="M14.9707 5.66406Q17.0605 5.66406 18.96 5.01465Q20.8594 4.36523 22.4512 3.19336Q24.043 2.02148 25.2197 0.429688Q26.3965-1.16211 27.0459-3.06641Q27.6953-4.9707 27.6953-7.05078Q27.6953-9.14062 27.0459-11.04Q26.3965-12.9395 25.2197-14.5312Q24.043-16.123 22.4512-17.2998Q20.8594-18.4766 18.9551-19.126Q17.0508-19.7754 14.9609-19.7754Q12.8711-19.7754 10.9717-19.126Q9.07227-18.4766 7.48535-17.2998Q5.89844-16.123 4.72168-14.5312Q3.54492-12.9395 2.90039-11.04Q2.25586-9.14062 2.25586-7.05078Q2.25586-4.9707 2.90527-3.06641Q3.55469-1.16211 4.72656 0.429688Q5.89844 2.02148 7.49023 3.19336Q9.08203 4.36523 10.9814 5.01465Q12.8809 5.66406 14.9707 5.66406ZM14.9707 3.84766Q13.1641 3.84766 11.5283 3.2959Q9.89258 2.74414 8.53516 1.74805Q7.17773 0.751953 6.17676-0.610352Q5.17578-1.97266 4.62891-3.6084Q4.08203-5.24414 4.08203-7.05078Q4.08203-8.86719 4.62891-10.5029Q5.17578-12.1387 6.17188-13.501Q7.16797-14.8633 8.52539-15.8594Q9.88281-16.8555 11.5186-17.4023Q13.1543-17.9492 14.9609-17.9492Q16.7773-17.9492 18.4131-17.4023Q20.0488-16.8555 21.4111-15.8594Q22.7734-14.8633 23.7695-13.501Q24.7656-12.1387 25.3174-10.5029Q25.8691-8.86719 25.8691-7.05078Q25.8789-5.24414 25.332-3.6084Q24.7852-1.97266 23.7842-0.610352Q22.7832 0.751953 21.4209 1.74805Q20.0586 2.74414 18.4229 3.2959Q16.7871 3.84766 14.9707 3.84766ZM9.19922-7.05078Q9.19922-6.66992 9.45801-6.4209Q9.7168-6.17188 10.1172-6.17188L14.0625-6.17188L14.0625-2.2168Q14.0625-1.81641 14.3115-1.55762Q14.5605-1.29883 14.9512-1.29883Q15.3516-1.29883 15.6104-1.55273Q15.8691-1.80664 15.8691-2.2168L15.8691-6.17188L19.8242-6.17188Q20.2246-6.17188 20.4785-6.4209Q20.7324-6.66992 20.7324-7.05078Q20.7324-7.46094 20.4785-7.71484Q20.2246-7.96875 19.8242-7.96875L15.8691-7.96875L15.8691-11.9141Q15.8691-12.3242 15.6104-12.583Q15.3516-12.8418 14.9512-12.8418Q14.5605-12.8418 14.3115-12.583Q14.0625-12.3242 14.0625-11.9141L14.0625-7.96875L10.1172-7.96875Q9.70703-7.96875 9.45312-7.71484Q9.19922-7.46094 9.19922-7.05078Z"/>
  </g>
  <text style="stroke:none;fill:black;font-family:sans-serif;font-size:13;font-weight:bold;" transform="matrix(1 0 0 1 263 1953)">Design Variations</text>
  <text style="stroke:none;fill:black;font-family:sans-serif;font-size:13;" transform="matrix(1 0 0 1 263 1971)">Symbols are supported in up to nine weights and three scales.</text>
  <text style="stroke:none;fill:black;font-family:sans-serif;font-size:13;" transform="matrix(1 0 0 1 263 1989)">For optimal layout with text and other symbols, vertically align</text>
  <text style="stroke:none;fill:black;font-family:sans-serif;font-size:13;" transform="matrix(1 0 0 1 263 2007)">symbols with the adjacent text.</text>
  <line style="fill:none;stroke:#00AEEF;stroke-width:0.5;opacity:1.0;" x1="776" x2="776" y1="1919" y2="1933"/>
  <g transform="matrix(1 0 0 1 776 1933)">
   <path d="M3.31055 0.15625Q3.70117 0.15625 3.91602-0.00976562Q4.13086-0.175781 4.26758-0.585938L5.52734-4.0332L11.2891-4.0332L12.5488-0.585938Q12.6855-0.175781 12.9004-0.00976562Q13.1152 0.15625 13.4961 0.15625Q13.8867 0.15625 14.1162-0.0585938Q14.3457-0.273438 14.3457-0.644531Q14.3457-0.869141 14.2383-1.17188L9.6582-13.3691Q9.48242-13.8184 9.17969-14.043Q8.87695-14.2676 8.4082-14.2676Q7.5-14.2676 7.17773-13.3789L2.59766-1.16211Q2.49023-0.859375 2.49023-0.634766Q2.49023-0.263672 2.70996-0.0537109Q2.92969 0.15625 3.31055 0.15625ZM6.00586-5.51758L8.37891-12.0898L8.42773-12.0898L10.8008-5.51758Z"/>
  </g>
  <line style="fill:none;stroke:#00AEEF;stroke-width:0.5;opacity:1.0;" x1="793.197" x2="793.197" y1="1919" y2="1933"/>
  <text style="stroke:none;fill:black;font-family:sans-serif;font-size:13;font-weight:bold;" transform="matrix(1 0 0 1 776 1953)">Margins</text>
  <text style="stroke:none;fill:black;font-family:sans-serif;font-size:13;" transform="matrix(1 0 0 1 776 1971)">Leading and trailing margins on the left and right side of each symbol</text>
  <text style="stroke:none;fill:black;font-family:sans-serif;font-size:13;" transform="matrix(1 0 0 1 776 1989)">can be adjusted by modifying the x-location of the margin guidelines.</text>
  <text style="stroke:none;fill:black;font-family:sans-serif;font-size:13;" transform="matrix(1 0 0 1 776 2007)">Modifications are automatically applied proportionally to all</text>
  <text style="stroke:none;fill:black;font-family:sans-serif;font-size:13;" transform="matrix(1 0 0 1 776 2025)">scales and weights.</text>
  <g transform="matrix(1 0 0 1 1289 1933)">
   <path d="M2.8418 1.86523L4.54102 3.57422Q5.18555 4.22852 5.90332 4.17969Q6.62109 4.13086 7.31445 3.35938L18.0078-8.42773L17.041-9.4043L6.42578 2.27539Q6.16211 2.57812 5.89355 2.61719Q5.625 2.65625 5.27344 2.30469L4.10156 1.14258Q3.75 0.791016 3.79395 0.522461Q3.83789 0.253906 4.14062-0.0195312L15.6152-10.8203L14.6387-11.7871L3.04688-0.898438Q2.30469-0.214844 2.25098 0.498047Q2.19727 1.21094 2.8418 1.86523ZM9.25781-16.3281Q8.94531-16.0254 8.90625-15.6348Q8.86719-15.2441 9.04297-14.9512Q9.21875-14.6777 9.55566-14.541Q9.89258-14.4043 10.3809-14.5215Q11.4746-14.7754 12.5977-14.7314Q13.7207-14.6875 14.7949-13.9844L14.209-12.5293Q13.9551-11.9043 14.0674-11.4404Q14.1797-10.9766 14.5801-10.5664L16.875-8.25195Q17.2363-7.88086 17.5781-7.82227Q17.9199-7.76367 18.3398-7.8418L19.4043-8.03711L20.0684-7.36328L20.0293-6.80664Q20-6.43555 20.1221-6.12305Q20.2441-5.81055 20.6055-5.44922L21.3672-4.70703Q21.7285-4.3457 22.1533-4.33105Q22.5781-4.31641 22.9297-4.66797L25.8398-7.58789Q26.1914-7.93945 26.1816-8.35449Q26.1719-8.76953 25.8105-9.13086L25.0391-9.89258Q24.6875-10.2539 24.3799-10.3857Q24.0723-10.5176 23.7109-10.4883L23.1348-10.4395L22.4902-11.0742L22.7344-12.1973Q22.832-12.6172 22.6953-12.9834Q22.5586-13.3496 22.1191-13.7891L19.9219-15.9766Q18.6719-17.2168 17.2607-17.8369Q15.8496-18.457 14.4189-18.4814Q12.9883-18.5059 11.665-17.959Q10.3418-17.4121 9.25781-16.3281ZM10.752-15.957Q11.6602-16.6211 12.7002-16.9043Q13.7402-17.1875 14.8047-17.085Q15.8691-16.9824 16.8701-16.5137Q17.8711-16.0449 18.7012-15.2051L21.1328-12.793Q21.3086-12.6172 21.3525-12.4512Q21.3965-12.2852 21.3379-12.0312L21.0156-10.5469L22.5195-9.0625L23.5059-9.12109Q23.6914-9.13086 23.7891-9.09668Q23.8867-9.0625 24.0332-8.91602L24.6094-8.33984L22.168-5.89844L21.5918-6.47461Q21.4453-6.62109 21.4062-6.71875Q21.3672-6.81641 21.377-7.01172L21.4453-7.98828L19.9512-9.47266L18.4277-9.21875Q18.1836-9.16992 18.042-9.2041Q17.9004-9.23828 17.7148-9.41406L15.7129-11.416Q15.5176-11.5918 15.4932-11.7529Q15.4688-11.9141 15.5859-12.1875L16.4648-14.2773Q15.293-15.3711 13.8281-15.791Q12.3633-16.2109 10.8398-15.7617Q10.7227-15.7324 10.6885-15.8057Q10.6543-15.8789 10.752-15.957Z"/>
  </g>
  <text style="stroke:none;fill:black;font-family:sans-serif;font-size:13;font-weight:bold;" transform="matrix(1 0 0 1 1289 1953)">Exporting</text>
  <text style="stroke:none;fill:black;font-family:sans-serif;font-size:13;" transform="matrix(1 0 0 1 1289 1971)">Symbols should be outlined when exporting to ensure the</text>
  <text style="stroke:none;fill:black;font-family:sans-serif;font-size:13;" transform="matrix(1 0 0 1 1289 1989)">design is preserved when submitting to Xcode.</text>
  <text id="template-version" style="stroke:none;fill:black;font-family:sans-serif;font-size:13;text-anchor:end;" transform="matrix(1 0 0 1 3036 1933)">Template v.3.0</text>
  <text style="stroke:none;fill:black;font-family:sans-serif;font-size:13;text-anchor:end;" transform="matrix(1 0 0 1 3036 1951)">Requires Xcode 13 or greater</text>
  <text id="descriptive-name" style="stroke:none;fill:black;font-family:sans-serif;font-size:13;text-anchor:end;" transform="matrix(1 0 0 1 3036 1969)">Generated from house</text>
  <text style="stroke:none;fill:black;font-family:sans-serif;font-size:13;text-anchor:end;" transform="matrix(1 0 0 1 3036 1987)">Typeset at 100 points</text>
  <text style="stroke:none;fill:black;font-family:sans-serif;font-size:13;" transform="matrix(1 0 0 1 263 726)">Small</text>
  <text style="stroke:none;fill:black;font-family:sans-serif;font-size:13;" transform="matrix(1 0 0 1 263 1156)">Medium</text>
  <text style="stroke:none;fill:black;font-family:sans-serif;font-size:13;" transform="matrix(1 0 0 1 263 1586)">Large</text>
 </g>
 <g id="Guides">
  <g id="H-reference" style="fill:#27AAE1;stroke:none;" transform="matrix(1 0 0 1 339 696)">
   <path d="M0.993347 0L3.6377 0L29.3282-67.1326L30.0301-67.1326L30.0301-70.459L28.1227-70.459ZM11.6882-24.4797L46.9818-24.4797L46.2311-26.7288L12.4382-26.7288ZM55.1193 0L57.7637 0L30.6381-70.459L29.4327-70.459L29.4327-67.1326Z"/>
  </g>
  <line id="Baseline-S" style="fill:none;stroke:#27AAE1;opacity:1;stroke-width:0.5;" x1="263" x2="3036" y1="696" y2="696"/>
  <line id="Capline-S" style="fill:none;stroke:#27AAE1;opacity:1;stroke-width:0.5;" x1="263" x2="3036" y1="625.541" y2="625.541"/>
  <g id="H-reference" style="fill:#27AAE1;stroke:none;" transform="matrix(1 0 0 1 339 1126)">
   <path d="M0.993347 0L3.6377 0L29.3282-67.1326L30.0301-67.1326L30.0301-70.459L28.1227-70.459ZM11.6882-24.4797L46.9818-24.4797L46.2311-26.7288L12.4382-26.7288ZM55.1193 0L57.7637 0L30.6381-70.459L29.4327-70.459L29.4327-67.1326Z"/>
  </g>
  <line id="Baseline-M" style="fill:none;stroke:#27AAE1;opacity:1;stroke-width:0.5;" x1="263" x2="3036" y1="1126" y2="1126"/>
  <line id="Capline-M" style="fill:none;stroke:#27AAE1;opacity:1;stroke-width:0.5;" x1="263" x2="3036" y1="1055.54" y2="1055.54"/>
  <g id="H-reference" style="fill:#27AAE1;stroke:none;" transform="matrix(1 0 0 1 339 1556)">
   <path d="M0.993347 0L3.6377 0L29.3282-67.1326L30.0301-67.1326L30.0301-70.459L28.1227-70.459ZM11.6882-24.4797L46.9818-24.4797L46.2311-26.7288L12.4382-26.7288ZM55.1193 0L57.7637 0L30.6381-70.459L29.4327-70.459L29.4327-67.1326Z"/>
  </g>
  <line id="Baseline-L" style="fill:none;stroke:#27AAE1;opacity:1;stroke-width:0.5;" x1="263" x2="3036" y1="1556" y2="1556"/>
  <line id="Capline-L" style="fill:none;stroke:#27AAE1;opacity:1;stroke-width:0.5;" x1="263" x2="3036" y1="1485.54" y2="1485.54"/>
  <line id="left-margin-Regular-M" style="fill:none;stroke:#00AEEF;stroke-width:0.5;opacity:1.0;" x1="1379.13" x2="1379.13" y1="1030.79" y2="1150.12"/>
  <line id="right-margin-Regular-M" style="fill:none;stroke:#00AEEF;stroke-width:0.5;opacity:1.0;" x1="1520.56" x2="1520.56" y1="1030.79" y2="1150.12"/>
 </g>
 <g id="Symbols">
  <g id="Black-L" transform="matrix(1 0 0 1 2834.53 1556)">
   <path d="M80.892 16.802L116.846 16.802L116.846-27.4322Q116.846-32.5319 111.747-32.5319L86.0501-32.5319Q83.7507-32.5319 82.3213-31.1421Q80.892-29.7524 80.892-27.4322ZM56.1643 30.9093L141.454 30.9093Q150.12 30.9093 155.035 26.1016Q159.95 21.2939 159.95 13.1387L159.95-57.3547L139.97-71.0727L139.97 5.29173Q139.97 10.9283 134.375 10.9283L63.2219 10.9283Q57.649 10.9283 57.649 5.29173L57.649-71.0703L37.6471-57.3547L37.6471 13.1387Q37.6471 21.3159 42.5627 26.1126Q47.4782 30.9093 56.1643 30.9093ZM16.084-43.6706Q16.084-39.5166 18.8238-36.8624Q21.5636-34.2082 26.0826-34.2082Q28.0611-34.2082 30.0513-35.069Q32.0416-35.9298 33.7979-37.3889L94.733-88.4867Q98.8813-92.0201 103.148-88.4867L163.961-37.3889Q165.717-35.9298 167.718-35.069Q169.719-34.2082 171.697-34.2082Q176.15-34.2082 178.902-36.7791Q181.654-39.35 181.654-43.6082Q181.654-48.3828 177.633-51.7343L112.042-106.842Q106.12-111.833 98.9409-111.833Q91.7614-111.833 85.8594-106.842L20.126-51.6759Q16.084-48.3244 16.084-43.6706ZM135.255-81.5024L159.95-60.9006L159.95-95.7708Q159.95-100.832 154.889-100.832L140.395-100.832Q138.083-100.832 136.669-99.4468Q135.255-98.0619 135.255-95.7708Z"/>
  </g>
  <g id="Heavy-L" transform="matrix(1 0 0 1 2539.78 1556)">
   <path d="M78.9109 17.4353L114.903 17.4353L114.903-27.2424Q114.903-32.2356 109.91-32.2356L83.9488-32.2356Q81.7028-32.2356 80.3069-30.877Q78.9109-29.5184 78.9109-27.2424ZM54.202 29.6306L139.453 29.6306Q147.632 29.6306 152.244 25.11Q156.856 20.5893 156.856 12.8395L156.856-57.4443L139.361-69.4461L139.361 6.27843Q139.361 12.1302 133.57 12.1302L60.0553 12.1302Q54.2997 12.1302 54.2997 6.27843L54.2997-69.4349L36.7691-57.4443L36.7691 12.8395Q36.7691 20.6251 41.3841 25.1278Q45.999 29.6306 54.202 29.6306ZM16.084-43.889Q16.084-40.2826 18.4934-37.9171Q20.9029-35.5517 24.926-35.5517Q26.7324-35.5517 28.4861-36.3449Q30.2397-37.1381 31.8003-38.4241L93.2161-89.9469Q96.9305-93.1109 100.74-89.9469L162.044-38.4241Q163.604-37.1381 165.373-36.3449Q167.142-35.5517 168.948-35.5517Q172.835-35.5517 175.283-37.7964Q177.73-40.0411 177.73-43.7985Q177.73-48.0359 174.221-50.9672L108.733-106.001Q103.392-110.498 96.9807-110.498Q90.5694-110.498 85.253-106.001L19.6236-50.9226Q16.084-47.9913 16.084-43.889ZM134.416-79.2713L156.856-60.505L156.856-94.0166Q156.856-98.8955 151.977-98.8955L139.369-98.8955Q137.133-98.8955 135.774-97.5593Q134.416-96.2232 134.416-94.0166Z"/>
  </g>
  <g id="Bold-L" transform="matrix(1 0 0 1 2245.57 1556)">
   <path d="M76.4299 18.2936L112.379 18.2936L112.379-26.982Q112.379-31.7998 107.561-31.7998L81.2769-31.7998Q79.1149-31.7998 77.7724-30.4908Q76.4299-29.1817 76.4299-26.982ZM51.7366 28.1521L136.897 28.1521Q144.476 28.1521 148.708 23.9887Q152.94 19.8252 152.94 12.5824L152.94-57.4403L138.511-67.3508L138.511 7.53744Q138.511 13.7103 132.415 13.7103L56.1811 13.7103Q50.1355 13.7103 50.1355 7.53744L50.1355-67.3244L35.6558-57.4403L35.6558 12.5824Q35.6558 19.8765 39.8944 24.0143Q44.1329 28.1521 51.7366 28.1521ZM16.084-44.1654Q16.084-41.2278 18.0824-39.2309Q20.0808-37.2339 23.4743-37.2339Q25.0507-37.2339 26.505-37.9315Q27.9592-38.629 29.2738-39.6999L91.1845-91.6633Q94.4432-94.4409 97.7733-91.6633L159.573-39.6999Q160.887-38.629 162.361-37.9315Q163.834-37.2339 165.41-37.2339Q168.605-37.2339 170.665-39.0789Q172.725-40.9239 172.725-44.0516Q172.725-47.6131 169.83-50.0369L104.63-104.852Q99.9813-108.764 94.4855-108.764Q88.9897-108.764 84.3658-104.852L19.0161-50.0077Q16.084-47.5839 16.084-44.1654ZM133.311-76.4008L152.94-59.9313L152.94-91.9017Q152.94-96.4831 148.358-96.4831L137.96-96.4831Q135.853-96.4831 134.582-95.2271Q133.311-93.971 133.311-91.9017Z"/>
  </g>
  <g id="Semibold-L" transform="matrix(1 0 0 1 1950.59 1556)">
   <path d="M74.7195 18.8853L110.638 18.8853L110.638-26.8025Q110.638-31.4994 105.942-31.4994L79.435-31.4994Q77.3308-31.4994 76.0252-30.2245Q74.7195-28.9496 74.7195-26.8025ZM50.0369 27.1328L135.135 27.1328Q142.3 27.1328 146.27 23.2156Q150.24 19.2985 150.24 12.4051L150.24-57.4375L137.925-65.9064L137.925 8.40539Q137.925 14.7996 131.618 14.7996L53.5103 14.7996Q47.2647 14.7996 47.2647 8.40539L47.2647-65.8694L34.8883-57.4375L34.8883 12.4051Q34.8883 19.3604 38.8674 23.2466Q42.8464 27.1328 50.0369 27.1328ZM16.084-44.356Q16.084-41.8794 17.799-40.1366Q19.5141-38.3937 22.4735-38.3937Q23.8914-38.3937 25.1392-39.0252Q26.387-39.6568 27.5321-40.5794L89.784-92.8465Q92.7284-95.3577 95.7282-92.8465L157.869-40.5794Q159.014-39.6568 160.284-39.0252Q161.553-38.3937 162.971-38.3937Q165.689-38.3937 167.481-39.9631Q169.274-41.5325 169.274-44.226Q169.274-47.3216 166.804-49.3955L101.801-104.06Q97.6299-107.569 92.7653-107.569Q87.9007-107.569 83.7542-104.06L18.5973-49.3769Q16.084-47.303 16.084-44.356ZM132.55-74.4219L150.24-59.5359L150.24-90.4437Q150.24-94.82 145.864-94.82L136.988-94.82Q134.97-94.82 133.76-93.6192Q132.55-92.4184 132.55-90.4437Z"/>
  </g>
  <g id="Medium-L" transform="matrix(1 0 0 1 1655.18 1556)">
   <path d="M73.4226 19.3339L109.319 19.3339L109.319-26.6664Q109.319-31.2716 104.714-31.2716L78.0384-31.2716Q75.978-31.2716 74.7003-30.0226Q73.4226-28.7736 73.4226-26.6664ZM48.7482 26.3599L133.798 26.3599Q140.651 26.3599 144.422 22.6295Q148.193 18.8991 148.193 12.2707L148.193-57.4353L137.481-64.8111L137.481 9.06351Q137.481 15.6256 131.014 15.6256L51.4852 15.6256Q45.0879 15.6256 45.0879 9.06351L45.0879-64.7662L34.3064-57.4353L34.3064 12.2707Q34.3064 18.969 38.0886 22.6645Q41.8709 26.3599 48.7482 26.3599ZM16.084-44.5005Q16.084-42.3735 17.5842-40.8233Q19.0844-39.273 21.7146-39.273Q23.0123-39.273 24.1036-39.8546Q25.1949-40.4361 26.2114-41.2462L88.7221-93.7437Q91.4282-96.0529 94.1776-93.7437L156.577-41.2462Q157.594-40.4361 158.709-39.8546Q159.824-39.273 161.121-39.273Q163.478-39.273 165.068-40.6335Q166.658-41.9939 166.658-44.3583Q166.658-47.1005 164.509-48.9091L99.6565-103.459Q95.847-106.662 91.461-106.662Q87.0749-106.662 83.2905-103.459L18.2797-48.8986Q16.084-47.09 16.084-44.5005ZM131.973-72.9214L148.193-59.236L148.193-89.3381Q148.193-93.559 143.972-93.559L136.251-93.559Q134.301-93.559 133.137-92.4001Q131.973-91.2411 131.973-89.3381Z"/>
  </g>
  <g id="Regular-L" transform="matrix(1 0 0 1 1360.18 1556)">
   <path d="M71.731 19.9191L107.598 19.9191L107.598-26.4888Q107.598-30.9744 103.112-30.9744L76.2167-30.9744Q74.2135-30.9744 72.9723-29.7592Q71.731-28.544 71.731-26.4888ZM47.0672 25.3518L132.056 25.3518Q138.499 25.3518 142.011 21.865Q145.523 18.3782 145.523 12.0954L145.523-57.4326L136.901-63.3825L136.901 9.92192Q136.901 16.7029 130.226 16.7029L48.8437 16.7029Q42.2487 16.7029 42.2487 9.92192L42.2487-63.3272L33.5473-57.4326L33.5473 12.0954Q33.5473 18.4586 37.0729 21.9052Q40.5985 25.3518 47.0672 25.3518ZM16.084-44.6889Q16.084-43.018 17.3039-41.719Q18.5239-40.42 20.7248-40.42Q21.8657-40.42 22.7528-40.9363Q23.6399-41.4526 24.4889-42.1161L87.337-94.914Q89.7323-96.9597 92.1549-94.914L154.892-42.1161Q155.741-41.4526 156.655-40.9363Q157.568-40.42 158.709-40.42Q160.594-40.42 161.919-41.5079Q163.245-42.5958 163.245-44.5308Q163.245-46.8122 161.516-48.2748L96.8589-102.675Q93.5215-105.48 89.7597-105.48Q85.9978-105.48 82.6856-102.675L17.8655-48.2748Q16.084-46.8122 16.084-44.6889ZM131.22-70.9642L145.523-58.8449L145.523-87.8961Q145.523-91.9143 141.505-91.9143L135.29-91.9143Q133.428-91.9143 132.324-90.8099Q131.22-89.7055 131.22-87.8961Z"/>
  </g>
  <g id="Light-L" transform="matrix(1 0 0 1 1065.66 1556)">
   <path d="M69.8417 20.9879L105.098 20.9879L105.098-26.1454Q105.098-30.2302 101.013-30.2302L73.9265-30.2302Q72.0949-30.2302 70.9683-29.1198Q69.8417-28.0095 69.8417-26.1454ZM45.1398 25.0084L129.784 25.0084Q135.846 25.0084 139.062 21.7792Q142.279 18.5501 142.279 12.6489L142.279-56.6883L135.699-61.4166L135.699 11.0288Q135.699 18.3825 128.414 18.3825L46.4773 18.3825Q39.2714 18.3825 39.2714 11.0288L39.2714-61.3231L32.6122-56.6883L32.6122 12.6489Q32.6122 18.6305 35.8515 21.8194Q39.0908 25.0084 45.1398 25.0084ZM16.084-44.9179Q16.084-43.6478 17.0081-42.6733Q17.9323-41.6988 19.5987-41.6988Q20.4725-41.6988 21.1116-42.0719Q21.7506-42.445 22.4084-42.9559L84.9513-95.5056Q87.5566-97.7421 90.2082-95.5056L152.564-42.9559Q153.222-42.445 153.878-42.0719Q154.533-41.6988 155.407-41.6988Q156.872-41.6988 157.864-42.5385Q158.855-43.3782 158.855-44.8172Q158.855-46.564 157.432-47.7595L93.9961-101.187Q90.964-103.762 87.6029-103.762Q84.2419-103.762 81.1968-101.187L17.541-47.7595Q16.084-46.564 16.084-44.9179ZM130.036-68.2922L142.279-57.9099L142.279-86.8081Q142.279-90.1583 138.928-90.1583L133.42-90.1583Q131.882-90.1583 130.959-89.2353Q130.036-88.3123 130.036-86.8081Z"/>
  </g>
  <g id="Thin-L" transform="matrix(1 0 0 1 771.856 1556)">
   <path d="M67.343 22.4014L101.791 22.4014L101.791-25.6912Q101.791-29.2459 98.2363-29.2459L70.8977-29.2459Q69.2929-29.2459 68.318-28.2742Q67.343-27.3025 67.343-25.6912ZM42.5906 24.5542L126.78 24.5542Q132.338 24.5542 135.163 21.6658Q137.988 18.7774 137.988 13.3809L137.988-55.704L134.109-58.8165L134.109 12.4928Q134.109 20.6039 126.016 20.6039L43.3475 20.6039Q35.3337 20.6039 35.3337 12.4928L35.3337-58.6725L31.3756-55.704L31.3756 13.3809Q31.3756 18.8578 34.2362 21.706Q37.0967 24.5542 42.5906 24.5542ZM16.084-45.2207Q16.084-44.4807 16.6169-43.9354Q17.1498-43.3901 18.1093-43.3901Q18.6298-43.3901 18.9408-43.5738Q19.2519-43.7576 19.6569-44.0666L81.7961-96.288Q84.6791-98.7769 87.6336-96.288L149.485-44.0666Q149.89-43.7576 150.205-43.5738Q150.52-43.3901 151.04-43.3901Q151.95-43.3901 152.5-43.9015Q153.05-44.413 153.05-45.1959Q153.05-46.2358 152.03-47.078L90.2098-99.2176Q87.5814-101.49 84.7505-101.49Q81.9196-101.49 79.2277-99.2176L17.1118-47.078Q16.084-46.2358 16.084-45.2207ZM128.471-64.7583L137.988-56.6732L137.988-85.3692Q137.988-87.836 135.521-87.836L130.946-87.836Q129.838-87.836 129.155-87.1528Q128.471-86.4696 128.471-85.3692Z"/>
  </g>
  <g id="Ultralight-L" transform="matrix(1 0 0 1 476.631 1556)">
   <path d="M66.0631 23.1254L100.097 23.1254L100.097-25.4585Q100.097-28.7417 96.8141-28.7417L69.3463-28.7417Q67.8578-28.7417 66.9605-27.8411Q66.0631-26.9404 66.0631-25.4585ZM41.2849 24.3215L125.242 24.3215Q130.541 24.3215 133.165 21.6077Q135.79 18.8938 135.79 13.7558L135.79-55.1998L133.294-57.4847L133.294 13.2426Q133.294 21.7417 124.788 21.7417L41.7444 21.7417Q33.3169 21.7417 33.3169 13.2426L33.3169-57.3149L30.7422-55.1998L30.7422 13.7558Q30.7422 18.9742 33.4088 21.6479Q36.0754 24.3215 41.2849 24.3215ZM16.084-45.3758Q16.084-44.9073 16.4165-44.5818Q16.7491-44.2563 17.3464-44.2563Q17.686-44.2563 17.829-44.3431Q17.972-44.4299 18.2476-44.6354L80.1799-96.6888Q83.2053-99.3069 86.3148-96.6888L147.908-44.6354Q148.183-44.4299 148.324-44.3431Q148.464-44.2563 148.804-44.2563Q149.429-44.2563 149.753-44.5997Q150.076-44.943 150.076-45.3899Q150.076-46.0676 149.263-46.7289L88.2704-98.2091Q85.8489-100.327 83.2895-100.327Q80.7301-100.327 78.2192-98.2091L16.892-46.7289Q16.084-46.0676 16.084-45.3758ZM127.67-62.9482L135.79-56.0398L135.79-84.6322Q135.79-86.6465 133.775-86.6465L129.679-86.6465Q128.791-86.6465 128.23-86.0861Q127.67-85.5258 127.67-84.6322Z"/>
  </g>
  <g id="Black-M" transform="matrix(1 0 0 1 2855.41 1126)">
   <path d="M64.117 4.68203L91.857 4.68203L91.857-29.3051Q91.857-33.2934 87.8688-33.2934L68.1623-33.2934Q66.3581-33.2934 65.2375-32.2041Q64.117-31.1148 64.117-29.3051ZM44.9381 17.0634L111.002 17.0634Q118.084 17.0634 122.112 13.1269Q126.14 9.19032 126.14 2.57555L126.14-52.1929L108.801-64.1303L108.801-4.53403Q108.801-0.274552 104.553-0.274552L51.3815-0.274552Q47.1382-0.274552 47.1382-4.53403L47.1382-64.1309L29.7947-52.1929L29.7947 2.57555Q29.7947 9.19553 33.8225 13.1295Q37.8504 17.0634 44.9381 17.0634ZM12.4609-41.6125Q12.4609-37.9779 14.8274-35.7174Q17.1939-33.4568 21.0487-33.4568Q22.6932-33.4568 24.4048-34.1625Q26.1165-34.8681 27.6197-36.1266L74.3741-75.3153Q77.9893-78.3961 81.7184-75.3153L128.36-36.1266Q129.863-34.8681 131.577-34.1625Q133.292-33.4568 134.936-33.4568Q138.815-33.4568 141.164-35.6954Q143.513-37.9339 143.513-41.596Q143.513-45.6844 139.999-48.6059L89.2596-91.2317Q84.2142-95.4921 78.0461-95.4921Q71.878-95.4921 66.8384-91.2317L15.9803-48.5488Q12.4609-45.6273 12.4609-41.6125ZM105.348-72.6345L126.14-55.3312L126.14-83.4936Q126.14-87.4806 122.153-87.4806L109.398-87.4806Q107.586-87.4806 106.467-86.3902Q105.348-85.2998 105.348-83.4936Z"/>
  </g>
  <g id="Heavy-M" transform="matrix(1 0 0 1 2560.42 1126)">
   <path d="M62.3547 5.20251L90.1881 5.20251L90.1881-29.1513Q90.1881-33.0724 86.267-33.0724L66.3194-33.0724Q64.5516-33.0724 63.4532-32.0039Q62.3547-30.9354 62.3547-29.1513ZM43.1976 15.8451L109.256 15.8451Q115.896 15.8451 119.655 12.1654Q123.414 8.48571 123.414 2.23198L123.414-52.3492L108.317-62.7216L108.317-3.67157Q108.317 0.745472 103.933 0.745472L48.5042 0.745472Q44.1387 0.745472 44.1387-3.67157L44.1387-62.717L29.0227-52.3492L29.0227 2.23198Q29.0227 8.50439 32.7831 12.1747Q36.5434 15.8451 43.1976 15.8451ZM12.4609-41.8049Q12.4609-38.6686 14.5318-36.6604Q16.6026-34.6522 20.0219-34.6522Q21.5229-34.6522 23.0261-35.305Q24.5294-35.9577 25.8587-37.0611L73.1113-76.6882Q76.283-79.3903 79.5442-76.6882L126.7-37.0611Q128.03-35.9577 129.541-35.305Q131.053-34.6522 132.554-34.6522Q135.918-34.6522 138-36.5948Q140.082-38.5373 140.082-41.7557Q140.082-45.3682 137.04-47.9036L86.289-90.5472Q81.783-94.3457 76.3289-94.3457Q70.8747-94.3457 66.3829-90.5472L15.5191-47.8599Q12.4609-45.3246 12.4609-41.8049ZM104.637-70.6999L123.414-55.0308L123.414-81.8791Q123.414-85.7497 119.544-85.7497L108.568-85.7497Q106.8-85.7497 105.718-84.6903Q104.637-83.6309 104.637-81.8791Z"/>
  </g>
  <g id="Bold-M" transform="matrix(1 0 0 1 2265.63 1126)">
   <path d="M60.3833 5.78473L88.3211 5.78473L88.3211-28.9793Q88.3211-32.8252 84.4752-32.8252L64.2578-32.8252Q62.5308-32.8252 61.4571-31.7799Q60.3833-30.7347 60.3833-28.9793ZM41.2507 14.4822L107.302 14.4822Q113.448 14.4822 116.907 11.0899Q120.366 7.6975 120.366 1.84764L120.366-52.5241L107.775-61.1457L107.775-2.7068Q107.775 1.88652 103.239 1.88652L45.2856 1.88652Q40.7833 1.88652 40.7833-2.7068L40.7833-61.1354L28.159-52.5241L28.159 1.84764Q28.159 7.73126 31.6202 11.1067Q35.0815 14.4822 41.2507 14.4822ZM12.4609-42.0201Q12.4609-39.4413 14.201-37.7154Q15.9411-35.9895 18.8734-35.9895Q20.2137-35.9895 21.4839-36.5831Q22.754-37.1767 23.8889-38.1064L71.6986-78.2239Q74.3742-80.5024 77.112-78.2239L124.844-38.1064Q125.979-37.1767 127.263-36.5831Q128.548-35.9895 129.888-35.9895Q132.677-35.9895 134.46-37.6009Q136.243-39.2123 136.243-41.9343Q136.243-45.0145 133.73-47.1179L82.9658-89.7814Q79.0633-93.0633 74.4079-93.0633Q69.7524-93.0633 65.8734-89.7814L15.0032-47.0893Q12.4609-44.9859 12.4609-42.0201ZM103.842-68.5359L120.366-54.6947L120.366-80.0731Q120.366-83.8134 116.625-83.8134L107.639-83.8134Q105.92-83.8134 104.881-82.7887Q103.842-81.764 103.842-80.0731Z"/>
  </g>
  <g id="Semibold-M" transform="matrix(1 0 0 1 1970.24 1126)">
   <path d="M59.0243 6.18611L87.034 6.18611L87.034-28.8607Q87.034-32.6548 83.2399-32.6548L62.8365-32.6548Q61.1377-32.6548 60.081-31.6256Q59.0243-30.5963 59.0243-28.8607ZM39.9085 13.5427L105.956 13.5427Q111.761 13.5427 115.012 10.3484Q118.264 7.15412 118.264 1.58269L118.264-52.6446L107.401-60.0593L107.401-2.04169Q107.401 2.67314 102.761 2.67314L43.0667 2.67314Q38.4701 2.67314 38.4701-2.04169L38.4701-60.0451L27.5636-52.6446L27.5636 1.58269Q27.5636 7.19827 30.8186 10.3705Q34.0736 13.5427 39.9085 13.5427ZM12.4609-42.1684Q12.4609-39.974 13.973-38.4427Q15.4851-36.9113 18.0816-36.9113Q19.3112-36.9113 20.4206-37.4642Q21.53-38.017 22.5309-38.8271L70.7247-79.2826Q73.0583-81.269 75.4353-79.2826L123.564-38.8271Q124.565-38.017 125.693-37.4642Q126.821-36.9113 128.051-36.9113Q130.443-36.9113 132.02-38.2945Q133.597-39.6776 133.597-42.0574Q133.597-44.7706 131.448-46.5763L80.6749-89.2535Q77.1884-92.1792 73.0835-92.1792Q68.9786-92.1792 65.5221-89.2535L14.6475-46.5581Q12.4609-44.7525 12.4609-42.1684ZM103.294-67.044L118.264-54.463L118.264-78.828Q118.264-82.4785 114.613-82.4785L106.999-82.4785Q105.313-82.4785 104.303-81.4778Q103.294-80.477 103.294-78.828Z"/>
  </g>
  <g id="Medium-M" transform="matrix(1 0 0 1 1674.53 1126)">
   <path d="M57.9938 6.49045L86.0581 6.49045L86.0581-28.7707Q86.0581-32.5256 82.3033-32.5256L61.7589-32.5256Q60.0814-32.5256 59.0376-31.5085Q57.9938-30.4914 57.9938-28.7707ZM38.8908 12.8303L104.935 12.8303Q110.482 12.8303 113.576 9.78619Q116.67 6.7421 116.67 1.38178L116.67-52.736L107.118-59.2356L107.118-1.53737Q107.118 3.2696 102.398 3.2696L41.3843 3.2696Q36.7162 3.2696 36.7162-1.53737L36.7162-59.2184L27.1122-52.736L27.1122 1.38178Q27.1122 6.79413 30.2108 9.8122Q33.3094 12.8303 38.8908 12.8303ZM12.4609-42.2809Q12.4609-40.3779 13.8001-38.9941Q15.1394-37.6103 17.4812-37.6103Q18.6269-37.6103 19.6144-38.1323Q20.602-38.6542 21.5012-39.3735L69.9863-80.0854Q72.0606-81.8504 74.1639-80.0854L122.594-39.3735Q123.493-38.6542 124.503-38.1323Q125.512-37.6103 126.657-37.6103Q128.749-37.6103 130.17-38.8204Q131.591-40.0304 131.591-42.1507Q131.591-44.5857 129.717-46.1656L78.9378-88.8532Q75.7668-91.5088 72.0794-91.5088Q68.392-91.5088 65.2558-88.8532L14.3778-46.1553Q12.4609-44.5754 12.4609-42.2809ZM102.878-65.9128L116.67-54.2873L116.67-77.8839Q116.67-81.4664 113.088-81.4664L106.514-81.4664Q104.853-81.4664 103.866-80.4838Q102.878-79.5012 102.878-77.8839Z"/>
  </g>
  <g id="Regular-M" transform="matrix(1 0 0 1 1379.13 1126)">
   <path d="M56.6497 6.88742L84.7852 6.88742L84.7852-28.6534Q84.7852-32.357 81.0816-32.357L60.3533-32.357Q58.7036-32.357 57.6766-31.3558Q56.6497-30.3546 56.6497-28.6534ZM37.5633 11.9011L103.603 11.9011Q108.813 11.9011 111.702 9.05287Q114.592 6.20468 114.592 1.11974L114.592-52.8553L106.749-58.1611L106.749-0.879567Q106.749 4.04758 101.925 4.04758L39.1898 4.04758Q34.4285 4.04758 34.4285-0.879567L34.4285-58.14L26.5233-52.8553L26.5233 1.11974Q26.5233 6.26699 29.4179 9.08403Q32.3126 11.9011 37.5633 11.9011ZM12.4609-42.4276Q12.4609-40.9047 13.5747-39.7134Q14.6884-38.5221 16.6981-38.5221Q17.7343-38.5221 18.5629-39.0037Q19.3915-39.4853 20.1581-40.0862L69.0231-81.1324Q70.7591-82.6086 72.5056-81.1324L121.328-40.0862Q122.095-39.4853 122.95-39.0037Q123.804-38.5221 124.84-38.5221Q126.539-38.5221 127.757-39.5064Q128.974-40.4906 128.974-42.2725Q128.974-44.3445 127.46-45.6299L76.672-88.3311Q73.9125-90.6344 70.7696-90.6344Q67.6267-90.6344 64.9084-88.3311L14.0261-45.6299Q12.4609-44.3445 12.4609-42.4276ZM102.336-64.4374L114.592-54.0582L114.592-76.6525Q114.592-80.1462 111.098-80.1462L105.881-80.1462Q104.253-80.1462 103.294-79.1872Q102.336-78.2283 102.336-76.6525Z"/>
  </g>
  <g id="Light-M" transform="matrix(1 0 0 1 1084.38 1126)">
   <path d="M54.9558 7.84561L82.5437 7.84561L82.5437-28.3455Q82.5437-31.6898 79.1994-31.6898L58.3001-31.6898Q56.8042-31.6898 55.88-30.7826Q54.9558-29.8754 54.9558-28.3455ZM35.8353 11.5932L101.567 11.5932Q106.434 11.5932 109.059 8.97597Q111.683 6.35878 111.683 1.61594L111.683-52.188L105.67-56.3985L105.67 0.112829Q105.67 5.55343 100.3 5.55343L37.0682 5.55343Q31.7592 5.55343 31.7592 0.112829L31.7592-56.3432L25.685-52.188L25.685 1.61594Q25.685 6.42108 28.3229 9.00712Q30.9608 11.5932 35.8353 11.5932ZM12.4609-42.6329Q12.4609-41.4693 13.3094-40.5689Q14.158-39.6686 15.6885-39.6686Q16.4851-39.6686 17.0914-40.0218Q17.6976-40.375 18.2929-40.8392L66.8842-81.6628Q68.8086-83.3101 70.7603-81.6628L119.241-40.8392Q119.836-40.375 120.46-40.0218Q121.083-39.6686 121.88-39.6686Q123.203-39.6686 124.121-40.4303Q125.039-41.1921 125.039-42.5292Q125.039-44.122 123.799-45.1679L74.1054-86.9963Q71.6195-89.0944 68.836-89.0944Q66.0525-89.0944 63.5736-86.9963L13.7351-45.1679Q12.4609-44.122 12.4609-42.6329ZM101.275-62.0418L111.683-53.2199L111.683-75.6771Q111.683-78.5719 108.788-78.5719L104.204-78.5719Q102.867-78.5719 102.071-77.7755Q101.275-76.9792 101.275-75.6771Z"/>
  </g>
  <g id="Thin-M" transform="matrix(1 0 0 1 790.275 1126)">
   <path d="M52.7155 9.11289L79.5791 9.11289L79.5791-27.9383Q79.5791-30.8073 76.7101-30.8073L55.5845-30.8073Q54.292-30.8073 53.5038-30.0244Q52.7155-29.2415 52.7155-27.9383ZM33.5498 11.1859L98.8738 11.1859Q103.289 11.1859 105.562 8.87426Q107.836 6.56258 107.836 2.2722L107.836-51.3055L104.245-54.0674L104.245 1.42535Q104.245 7.54503 98.1498 7.54503L34.2621 7.54503Q28.2288 7.54503 28.2288 1.42535L28.2288-53.9668L24.5763-51.3055L24.5763 2.2722Q24.5763 6.62488 26.8747 8.90541Q29.173 11.1859 33.5498 11.1859ZM12.4609-42.9044Q12.4609-42.2161 12.9587-41.7005Q13.4564-41.1849 14.3531-41.1849Q14.8331-41.1849 15.1452-41.3684Q15.4573-41.5518 15.826-41.835L64.0554-82.3644Q66.2288-84.2378 68.452-82.3644L116.48-41.835Q116.849-41.5518 117.167-41.3684Q117.485-41.1849 117.965-41.1849Q118.79-41.1849 119.312-41.6524Q119.834-42.1198 119.834-42.8687Q119.834-43.8277 118.956-44.5569L70.7107-85.231Q68.5868-87.0575 66.2786-87.0575Q63.9704-87.0575 61.8082-85.231L13.3504-44.5569Q12.4609-43.8277 12.4609-42.9044ZM99.8717-58.8734L107.836-52.1111L107.836-74.387Q107.836-76.4898 105.733-76.4898L101.986-76.4898Q101.034-76.4898 100.453-75.9085Q99.8717-75.3271 99.8717-74.387Z"/>
  </g>
  <g id="Ultralight-M" transform="matrix(1 0 0 1 494.897 1126)">
   <path d="M51.5681 9.76198L78.0607 9.76198L78.0607-27.7297Q78.0607-30.3553 75.4351-30.3553L54.1936-30.3553Q53.0054-30.3553 52.2867-29.6361Q51.5681-28.9169 51.5681-27.7297ZM32.3791 10.9774L97.4944 10.9774Q101.678 10.9774 103.771 8.82217Q105.865 6.66696 105.865 2.60833L105.865-50.8535L103.514-52.8734L103.514 2.09762Q103.514 8.56511 97.0487 8.56511L32.8249 8.56511Q26.4206 8.56511 26.4206 2.09762L26.4206-52.7497L24.0084-50.8535L24.0084 2.60833Q24.0084 6.72926 26.1329 8.85332Q28.2573 10.9774 32.3791 10.9774ZM12.4609-43.0434Q12.4609-42.5986 12.779-42.2801Q13.0971-41.9616 13.6692-41.9616Q13.9869-41.9616 14.1484-42.0581Q14.3099-42.1546 14.5625-42.345L62.6064-82.7237Q64.9074-84.713 67.2697-82.7237L115.066-42.345Q115.319-42.1546 115.48-42.0581Q115.642-41.9616 115.959-41.9616Q116.53-41.9616 116.849-42.2783Q117.168-42.595 117.168-43.0426Q117.168-43.677 116.475-44.2439L68.972-84.3268Q67.0335-86.0143 64.9687-86.0143Q62.9039-86.0143 60.904-84.3268L13.1533-44.2439Q12.4609-43.677 12.4609-43.0434ZM99.1531-57.2505L105.865-51.5433L105.865-73.7262Q105.865-75.4234 104.168-75.4234L100.85-75.4234Q100.096-75.4234 99.6243-74.9522Q99.1531-74.4809 99.1531-73.7262Z"/>
  </g>
  <g id="Black-S" transform="matrix(1 0 0 1 2871.88 696)">
   <path d="M50.6836-4.05273L72.3633-4.05273L72.3633-30.6152Q72.3633-33.7402 69.2383-33.7402L53.8574-33.7402Q52.4414-33.7402 51.5625-32.8857Q50.6836-32.0312 50.6836-30.6152ZM35.6445 6.10352L87.4023 6.10352Q93.0664 6.10352 96.2891 2.9541Q99.5117-0.195312 99.5117-5.46875L99.5117-48.4375L85.3516-58.2031L85.3516-11.377Q85.3516-8.05664 82.0312-8.05664L41.0156-8.05664Q37.6953-8.05664 37.6953-11.377L37.6953-58.2031L23.5352-48.4375L23.5352-5.46875Q23.5352-0.195312 26.7578 2.9541Q29.9805 6.10352 35.6445 6.10352ZM9.76562-40.1855Q9.76562-37.207 11.6943-35.376Q13.623-33.5449 16.748-33.5449Q18.0664-33.5449 19.458-34.1064Q20.8496-34.668 22.0703-35.6934L58.5449-66.2598Q61.5234-68.7988 64.5996-66.2598L100.977-35.6934Q102.197-34.668 103.589-34.1064Q104.98-33.5449 106.299-33.5449Q109.473-33.5449 111.377-35.376Q113.281-37.207 113.281-40.1855Q113.281-43.5059 110.4-45.8984L70.7031-79.248Q66.6016-82.7148 61.5723-82.7148Q56.543-82.7148 52.4414-79.248L12.6465-45.8496Q9.76562-43.457 9.76562-40.1855ZM82.7148-64.9902L99.5117-51.0254L99.5117-73.4863Q99.5117-76.6113 96.3867-76.6113L85.8887-76.6113Q84.4727-76.6113 83.5938-75.7568Q82.7148-74.9023 82.7148-73.4863Z"/>
  </g>
  <g id="Heavy-S" transform="matrix(1 0 0 1 2576.38 696)">
   <path d="M49.3929-3.73005L71.2224-3.73005L71.2224-30.523Q71.2224-33.6365 68.1089-33.6365L52.5436-33.6365Q51.1391-33.6365 50.266-32.7878Q49.3929-31.9391 49.3929-30.523ZM34.3768 5.10089L86.1692 5.10089Q91.4991 5.10089 94.5258 2.14163Q97.5526-0.817634 97.5526-5.82601L97.5526-48.6565L85.075-57.2235L85.075-10.7662Q85.075-7.3767 81.7086-7.3767L38.826-7.3767Q35.4711-7.3767 35.4711-10.7662L35.4711-57.2235L22.982-48.6565L22.982-5.82601Q22.982-0.806109 26.0087 2.14739Q29.0355 5.10089 34.3768 5.10089ZM9.76562-40.3238Q9.76562-37.7256 11.4754-36.0732Q13.1851-34.4208 15.999-34.4208Q17.2251-34.4208 18.4669-34.9535Q19.7087-35.4862 20.8026-36.3964L57.7382-67.3661Q60.3134-69.5594 62.9631-67.3661L99.8241-36.3964Q100.918-35.4862 102.166-34.9535Q103.413-34.4208 104.639-34.4208Q107.421-34.4208 109.135-36.0271Q110.85-37.6334 110.85-40.2893Q110.85-43.2638 108.338-45.3568L68.4904-78.8332Q64.8153-81.9312 60.3507-81.9312Q55.8861-81.9312 52.2224-78.8332L12.2892-45.3195Q9.76562-43.2265 9.76562-40.3238ZM82.2423-63.6419L97.5526-50.8756L97.5526-72.2302Q97.5526-75.3321 94.4506-75.3321L85.3931-75.3321Q83.9771-75.3321 83.1097-74.4834Q82.2423-73.6347 82.2423-72.2302Z"/>
  </g>
  <g id="Bold-S" transform="matrix(1 0 0 1 2281.03 696)">
   <path d="M47.9492-3.36914L69.9463-3.36914L69.9463-30.4199Q69.9463-33.5205 66.8457-33.5205L51.0742-33.5205Q49.6826-33.5205 48.8159-32.6782Q47.9492-31.8359 47.9492-30.4199ZM32.959 3.97949L84.79 3.97949Q89.7461 3.97949 92.5537 1.23291Q95.3613-1.51367 95.3613-6.22559L95.3613-48.9014L84.7656-56.1279L84.7656-10.083Q84.7656-6.61621 81.3477-6.61621L36.377-6.61621Q32.9834-6.61621 32.9834-10.083L32.9834-56.1279L22.3633-48.9014L22.3633-6.22559Q22.3633-1.48926 25.1709 1.24512Q27.9785 3.97949 32.959 3.97949ZM9.76562-40.4785Q9.76562-38.3057 11.2305-36.853Q12.6953-35.4004 15.1611-35.4004Q16.2842-35.4004 17.3584-35.9009Q18.4326-36.4014 19.3848-37.1826L56.8359-68.6035Q58.96-70.4102 61.1328-68.6035L98.5352-37.1826Q99.4873-36.4014 100.574-35.9009Q101.66-35.4004 102.783-35.4004Q105.127-35.4004 106.628-36.7554Q108.13-38.1104 108.13-40.4053Q108.13-42.9932 106.03-44.751L66.0156-78.3691Q62.8174-81.0547 58.9844-81.0547Q55.1514-81.0547 51.9775-78.3691L11.8896-44.7266Q9.76562-42.9688 9.76562-40.4785ZM81.7139-62.1338L95.3613-50.708L95.3613-70.8252Q95.3613-73.9014 92.2852-73.9014L84.8389-73.9014Q83.4229-73.9014 82.5684-73.0591Q81.7139-72.2168 81.7139-70.8252Z"/>
  </g>
  <g id="Semibold-S" transform="matrix(1 0 0 1 1985.26 696)">
   <path d="M46.9539-3.12031L69.0665-3.12031L69.0665-30.3488Q69.0665-33.4405 65.9748-33.4405L50.0611-33.4405Q48.6784-33.4405 47.8162-32.6027Q46.9539-31.7648 46.9539-30.3488ZM31.9814 3.20635L83.8392 3.20635Q88.5375 3.20635 91.194 0.606396Q93.8506-1.99355 93.8506-6.50107L93.8506-49.0702L84.5523-55.3726L84.5523-9.61201Q84.5523-6.09189 81.0988-6.09189L34.6885-6.09189Q31.2683-6.09189 31.2683-9.61201L31.2683-55.3726L21.9367-49.0702L21.9367-6.50107Q21.9367-1.96025 24.5933 0.623047Q27.2498 3.20635 31.9814 3.20635ZM9.76562-40.5852Q9.76562-38.7056 11.0616-37.3907Q12.3576-36.0758 14.5835-36.0758Q15.6354-36.0758 16.5941-36.5541Q17.5528-37.0323 18.4072-37.7247L56.2139-69.4566Q58.0269-70.9967 59.8709-69.4566L97.6465-37.7247Q98.5009-37.0323 99.4762-36.5541Q100.452-36.0758 101.504-36.0758Q103.545-36.0758 104.9-37.2575Q106.255-38.4392 106.255-40.4853Q106.255-42.8065 104.44-44.3333L64.3094-78.0492Q61.4399-80.4504 58.0424-80.4504Q54.6448-80.4504 51.8087-78.0492L11.6142-44.3178Q9.76562-42.791 9.76562-40.5852ZM81.3495-61.094L93.8506-50.5925L93.8506-69.8565Q93.8506-72.9149 90.7922-72.9149L84.4567-72.9149Q83.0407-72.9149 82.1951-72.0771Q81.3495-71.2393 81.3495-69.8565Z"/>
  </g>
  <g id="Medium-S" transform="matrix(1 0 0 1 1689.26 696)">
   <path d="M46.1992-2.93164L68.3994-2.93164L68.3994-30.2949Q68.3994-33.3799 65.3145-33.3799L49.293-33.3799Q47.917-33.3799 47.0581-32.5454Q46.1992-31.7109 46.1992-30.2949ZM31.2402 2.62012L83.1182 2.62012Q87.6211 2.62012 90.1631 0.131348Q92.7051-2.35742 92.7051-6.70996L92.7051-49.1982L84.3906-54.7998L84.3906-9.25488Q84.3906-5.69434 80.9102-5.69434L33.4082-5.69434Q29.9678-5.69434 29.9678-9.25488L29.9678-54.7998L21.6133-49.1982L21.6133-6.70996Q21.6133-2.31738 24.1553 0.151367Q26.6973 2.62012 31.2402 2.62012ZM9.76562-40.666Q9.76562-39.0088 10.9336-37.7983Q12.1016-36.5879 14.1455-36.5879Q15.1436-36.5879 16.0146-37.0493Q16.8857-37.5107 17.666-38.1357L55.7422-70.1035Q57.3193-71.4414 58.9141-70.1035L96.9727-38.1357Q97.7529-37.5107 98.644-37.0493Q99.5352-36.5879 100.533-36.5879Q102.346-36.5879 103.589-37.6382Q104.833-38.6885 104.833-40.5459Q104.833-42.665 103.233-44.0166L63.0156-77.8066Q60.3955-79.9922 57.3281-79.9922Q54.2607-79.9922 51.6807-77.8066L11.4053-44.0078Q9.76562-42.6562 9.76562-40.666ZM81.0732-60.3057L92.7051-50.5049L92.7051-69.1221Q92.7051-72.167 89.6602-72.167L84.167-72.167Q82.751-72.167 81.9121-71.3325Q81.0732-70.498 81.0732-69.1221Z"/>
  </g>
  <g id="Regular-S" transform="matrix(1 0 0 1 1393.47 696)">
   <path d="M45.2148-2.68555L67.5293-2.68555L67.5293-30.2246Q67.5293-33.3008 64.4531-33.3008L48.291-33.3008Q46.9238-33.3008 46.0693-32.4707Q45.2148-31.6406 45.2148-30.2246ZM30.2734 1.85547L82.1777 1.85547Q86.4258 1.85547 88.8184-0.488281Q91.2109-2.83203 91.2109-6.98242L91.2109-49.3652L84.1797-54.0527L84.1797-8.78906Q84.1797-5.17578 80.6641-5.17578L31.7383-5.17578Q28.2715-5.17578 28.2715-8.78906L28.2715-54.0527L21.1914-49.3652L21.1914-6.98242Q21.1914-2.7832 23.584-0.463867Q25.9766 1.85547 30.2734 1.85547ZM9.76562-40.7715Q9.76562-39.4043 10.7666-38.3301Q11.7676-37.2559 13.5742-37.2559Q14.502-37.2559 15.2588-37.6953Q16.0156-38.1348 16.6992-38.6719L55.127-70.9473Q56.3965-72.0215 57.666-70.9473L96.0938-38.6719Q96.7773-38.1348 97.5586-37.6953Q98.3398-37.2559 99.2676-37.2559Q100.781-37.2559 101.88-38.1348Q102.979-39.0137 102.979-40.625Q102.979-42.4805 101.66-43.6035L61.3281-77.4902Q59.0332-79.3945 56.3965-79.3945Q53.7598-79.3945 51.5137-77.4902L11.1328-43.6035Q9.76562-42.4805 9.76562-40.7715ZM80.7129-59.2773L91.2109-50.3906L91.2109-68.1641Q91.2109-71.1914 88.1836-71.1914L83.7891-71.1914Q82.373-71.1914 81.543-70.3613Q80.7129-69.5312 80.7129-68.1641Z"/>
  </g>
  <g id="Light-S" transform="matrix(1 0 0 1 1098.5 696)">
   <path d="M43.7164-1.83792L65.5464-1.83792L65.5464-29.9522Q65.5464-32.7105 62.7881-32.7105L46.4747-32.7105Q45.2436-32.7105 44.48-31.9636Q43.7164-31.2167 43.7164-29.9522ZM28.7448 1.5831L80.3764 1.5831Q84.3218 1.5831 86.4798-0.55631Q88.6378-2.69572 88.6378-6.54348L88.6378-48.775L83.226-52.4935L83.226-7.91117Q83.226-3.84369 79.2262-3.84369L29.8615-3.84369Q25.9102-3.84369 25.9102-7.91117L25.9102-52.4633L20.4498-48.775L20.4498-6.54348Q20.4498-2.64689 22.6153-0.531896Q24.7808 1.5831 28.7448 1.5831ZM9.76562-40.9531Q9.76562-39.9038 10.532-39.0869Q11.2984-38.2701 12.6811-38.2701Q13.397-38.2701 13.9571-38.596Q14.5172-38.9219 15.0492-39.3379L53.2349-71.4165Q54.671-72.642 56.1221-71.4165L94.2472-39.3379Q94.7792-38.9219 95.3561-38.596Q95.933-38.2701 96.6489-38.2701Q97.8297-38.2701 98.6635-38.9521Q99.4972-39.6342 99.4972-40.8521Q99.4972-42.2836 98.421-43.1948L59.0576-76.3095Q57.0048-78.0322 54.686-78.0322Q52.3671-78.0322 50.3329-76.3095L10.8754-43.1948Q9.76562-42.2836 9.76562-40.9531ZM79.7745-57.1582L88.6378-49.649L88.6378-67.3012Q88.6378-69.7988 86.1402-69.7988L82.3057-69.7988Q81.147-69.7988 80.4607-69.1125Q79.7745-68.4263 79.7745-67.3012Z"/>
  </g>
  <g id="Thin-S" transform="matrix(1 0 0 1 804.093 696)">
   <path d="M41.7347-0.716868L62.9239-0.716868L62.9239-29.592Q62.9239-31.9299 60.5861-31.9299L44.0725-31.9299Q43.0213-31.9299 42.378-31.2929Q41.7347-30.656 41.7347-29.592ZM26.723 1.22287L77.9941 1.22287Q81.5392 1.22287 83.3869-0.646284Q85.2346-2.51544 85.2346-5.96294L85.2346-47.9943L81.9647-50.4314L81.9647-6.75009Q81.9647-2.08189 77.3245-2.08189L27.3792-2.08189Q22.7872-2.08189 22.7872-6.75009L22.7872-50.3611L19.469-47.9943L19.469-5.96294Q19.469-2.46661 21.3341-0.621869Q23.1993 1.22287 26.723 1.22287ZM9.76562-41.1932Q9.76562-40.5644 10.2217-40.0879Q10.6778-39.6114 11.4998-39.6114Q11.9355-39.6114 12.2355-39.7871Q12.5354-39.9629 12.867-40.2188L50.7324-72.037Q52.3888-73.4627 54.0801-72.037L91.8049-40.2188Q92.1365-39.9629 92.4432-39.7871Q92.7498-39.6114 93.1855-39.6114Q93.926-39.6114 94.4095-40.0332Q94.8929-40.4549 94.8929-41.1525Q94.8929-42.0233 94.1369-42.6543L56.0547-74.7478Q54.3221-76.2304 52.4237-76.2304Q50.5253-76.2304 48.7712-74.7478L10.5351-42.6543Q9.76562-42.0233 9.76562-41.1932ZM78.5333-54.3554L85.2346-48.6683L85.2346-66.1599Q85.2346-67.9569 83.4376-67.9569L80.3437-67.9569Q79.5255-67.9569 79.0294-67.4609Q78.5333-66.9648 78.5333-66.1599Z"/>
  </g>
  <g id="Ultralight-S" transform="matrix(1 0 0 1 508.561 696)">
   <path d="M40.7196-0.14267L61.5807-0.14267L61.5807-29.4075Q61.5807-31.53 59.4582-31.53L42.8421-31.53Q41.8831-31.53 41.3013-30.9494Q40.7196-30.3688 40.7196-29.4075ZM25.6874 1.03836L76.7738 1.03836Q80.114 1.03836 81.8027-0.692368Q83.4915-2.4231 83.4915-5.66559L83.4915-47.5945L81.3187-49.3752L81.3187-6.1554Q81.3187-1.1795 76.3504-1.1795L26.1078-1.1795Q21.1876-1.1795 21.1876-6.1554L21.1876-49.2844L18.9667-47.5945L18.9667-5.66559Q18.9667-2.37427 20.6779-0.667953Q22.3892 1.03836 25.6874 1.03836ZM9.76562-41.3162Q9.76562-40.9027 10.0628-40.6006Q10.36-40.2985 10.8948-40.2985Q11.187-40.2985 11.3537-40.3973Q11.5204-40.4961 11.7493-40.67L49.4507-72.3549Q51.2199-73.8831 53.0342-72.3549L90.554-40.67Q90.7829-40.4961 90.9512-40.3973Q91.1194-40.2985 91.4116-40.2985Q91.9266-40.2985 92.2306-40.5869Q92.5346-40.8752 92.5346-41.3063Q92.5346-41.89 91.9426-42.3775L54.5166-73.9479Q52.948-75.3075 51.265-75.3075Q49.5819-75.3075 47.9713-73.9479L10.3607-42.3775Q9.76562-41.89 9.76562-41.3162ZM77.8976-52.9198L83.4915-48.1659L83.4915-65.5754Q83.4915-67.0135 82.0534-67.0135L79.3388-67.0135Q78.6949-67.0135 78.2963-66.6149Q77.8976-66.2163 77.8976-65.5754Z"/>
  </g>
 </g>
</svg>
